<?xml version="1.0" encoding="UTF-8"?>
<svg id="Camada_1" xmlns="http://www.w3.org/2000/svg" version="1.1" viewBox="0 0 85 36">
  <!-- Generator: Adobe Illustrator 29.3.1, SVG Export Plug-In . SVG Version: 2.1.0 Build 151)  -->
  <defs>
    <style>
      .st0 {
        fill: #a71d3f;
      }

      .st0, .st1 {
        fill-rule: evenodd;
      }
    </style>
  </defs>
  <path class="st1" d="M36.9,9.3h.8v2.9c0,.2,0,.5.2.6.1.1.3.2.6.2s.5,0,.7-.2c.1-.1.2-.3.2-.6v-2.9h.8v2.9c0,.5-.1.8-.5,1-.3.2-.7.3-1.2.3s-.9-.1-1.1-.3-.5-.6-.5-1v-2.9h0ZM43.2,13.7l-1.7-2.1v2.1h-.6v-3.5h.3l1.6,2.1v-2.1h.6v3.5s-.2,0-.2,0ZM44.1,13.6v-3.5h.6v3.5h-.6ZM46.8,13.7h-.3l-1.2-3.5h.7l.8,2.4.9-2.4h.7l-1.4,3.5h-.1ZM49.1,10.7v.8h1.1v.6h-1.1v1h1.6v.6h-2.1v-3.5h2.1v.6h-1.6ZM53.1,13.6l-.9-1.5h-.3v1.5h-.7v-3.5h.9c.9,0,1.4.3,1.4,1s0,.5-.2.6c-.1.1-.2.2-.5.3l1,1.6h-.7ZM51.9,10.7v1h.2c.2,0,.5,0,.6-.1.1,0,.2-.2.2-.5s0-.3-.2-.3h-.8ZM54.1,13.5l.2-.6c.2.1.5.2.7.2.3,0,.6-.1.6-.3s0-.2-.1-.3c0,0-.2-.2-.6-.3-.2-.1-.5-.2-.6-.3s-.1-.2-.2-.3v-.5c0-.2,0-.5.3-.7.2-.2.5-.2.8-.2s.7,0,.9.2l-.2.6c-.2-.1-.5-.2-.7-.2s-.2,0-.3.1v.3c0,.2.2.5.7.7.2.1.3.2.5.3,0,0,.2.2.2.3v.5c0,.2,0,.5-.3.7-.2.2-.6.2-.9.2s-.6,0-.9-.2h0ZM56.7,13.6v-3.5h.6v3.5h-.6ZM58.8,13.6h-.8v-3.5h.9c.5,0,.9.1,1.2.5.3.3.5.7.5,1.1,0,1.2-.6,1.8-1.8,1.8h0ZM58.6,10.7v2.4h.3c.3,0,.6-.1.7-.3.2-.2.2-.6.2-.9,0-.7-.3-1.1-1-1.1s-.1,0-.2,0h0ZM63.1,13.6l-.2-.7h-1.2l-.2.7h-.7l1.4-3.5h.2l1.4,3.5h-.7.1ZM62.3,11.2l-.5,1.2h.8l-.5-1.2h.1ZM64.9,13.6h-.8v-3.5h.9c.5,0,.9.1,1.2.5.3.3.5.7.5,1.1,0,1.2-.6,1.8-1.8,1.8h0ZM64.8,10.7v2.4h.3c.3,0,.6-.1.7-.3.2-.2.2-.6.2-.9,0-.7-.3-1.1-1-1.1s-.1,0-.2,0h0ZM68,10.7v.8h1.1v.6h-1.1v1h1.6v.6h-2.1v-3.5h2.1v.6h-1.6ZM37.6,17.2v1h1.5v.7h-1.5v2h-.8v-4.3h2.8v.7h-2ZM40.9,17.9v.8h1.1v.6h-1.1v1h1.6v.6h-2.1v-3.5h2.1v.6h-1.6ZM43.9,20.8h-.8v-3.5h.9c.5,0,.9.1,1.2.5s.5.7.5,1.1c0,1.2-.6,1.8-1.8,1.8h0ZM43.6,17.9v2.4h.3c.3,0,.6-.1.7-.3.2-.2.2-.6.2-.9,0-.7-.3-1.1-1-1.1s-.1,0-.2,0h0ZM46.8,17.9v.8h1.1v.6h-1.1v1h1.6v.6h-2.1v-3.5h2.1v.6h-1.6ZM50.9,20.8l-.9-1.5h-.3v1.5h-.7v-3.5h.9c.9,0,1.4.3,1.4,1s0,.5-.2.6c-.1.1-.2.2-.5.3l1,1.6s-.7,0-.7,0ZM49.5,17.9v1h.2c.2,0,.5,0,.6-.1.1,0,.2-.2.2-.5s0-.3-.2-.3h-.8ZM53.7,20.8h.7l-1.4-3.5h-.2l-1.4,3.5h.7l.2-.7h1.2l.2.7h-.1ZM52.9,18.3l.5,1.2h-.8l.5-1.2h-.1ZM54.8,20.8v-3.5h.6v2.9h1.6v.6h-2.1ZM37.5,27.9h-.8v-3.5h.9c.5,0,.9.1,1.2.5s.5.7.5,1.1c0,1.2-.6,1.8-1.8,1.8h0ZM37.4,25v2.4h.3c.3,0,.6-.1.7-.3.2-.2.2-.6.2-.9,0-.7-.3-1.1-1-1.1s-.1,0-.2,0h0ZM40.5,25v.8h1.1v.6h-1.1v1h1.6v.6h-2.1v-3.5h2.1v.6h-1.6ZM45.3,26.4v1.6h-.8v-4.3h.9c.7,0,1.2,0,1.5.3s.5.6.5,1c0,1-.6,1.5-1.8,1.5s-.2,0-.3,0h.1ZM45.3,24.3v1.4h.3c.3,0,.6,0,.8-.2.1-.1.2-.3.2-.6,0-.5-.3-.7-1.1-.7s-.1,0-.2,0h0ZM48.6,25v.8h1.1v.6h-1.1v1h1.6v.6h-2.1v-3.5h2.1v.6h-1.6ZM52.7,27.9l-.9-1.5h-.3v1.5h-.7v-3.5h.9c.9,0,1.4.3,1.4,1s0,.5-.2.6c-.1.1-.2.2-.5.3l1,1.6s-.7,0-.7,0ZM51.5,25v1h.2c.2,0,.5,0,.6-.1.1,0,.2-.2.2-.5s0-.3-.2-.3h-.8ZM56,28.1l-1.7-2.1v2.1h-.6v-3.5h.3l1.6,2.1v-2.1h.6v3.5h-.2ZM59,27.9l-.2-.7h-1.2l-.2.7h-.7l1.4-3.5h.2l1.4,3.5h-.7.1ZM58.1,25.6l-.5,1.2h.8l-.5-1.2h.1ZM63.2,27.9h-.6l-.3-1.8-.7,1.9h-.2l-.7-1.9-.3,1.8h-.6l.7-3.5h.3l.8,2.4.8-2.4h.3l.7,3.5h-.2ZM64.7,27.9h-1v-3.5h1c.3,0,.7,0,.9.2.2.1.3.3.3.7s-.1.5-.5.7c.5.1.7.5.7.9s-.1.6-.3.8-.6.2-.9.2h-.2ZM64.2,25v.8h.3c.3,0,.6-.1.6-.5s-.2-.5-.6-.5h-.3ZM64.2,26.4v1.1h.3c.2,0,.5,0,.6-.1s.2-.2.2-.5,0-.3-.2-.5-.3-.1-.6-.1h-.3ZM66.5,24.5h.6v2.4c0,.2,0,.3.2.5s.2.1.5.1.3,0,.6-.1.2-.2.2-.5v-2.4h.6v2.4c0,.3-.1.7-.3.8s-.6.3-.9.3-.7,0-.9-.3-.3-.5-.3-.9v-2.4h-.1ZM72.2,24.7l-.2.6c-.1-.1-.3-.2-.7-.2s-.6.1-.7.3c-.2.2-.2.6-.2.9s0,.7.2.9.3.3.7.3.6-.1.8-.3l.2.5c-.2.2-.7.5-1.1.5s-.9-.1-1.1-.5-.3-.8-.3-1.2.1-.9.5-1.2c.3-.3.7-.6,1.1-.6s.7,0,.9.2h0ZM72.6,26.2c0-.5.1-.9.5-1.2s.7-.6,1.1-.6.9.1,1.1.5.3.8.3,1.2-.1,1-.5,1.4-.7.5-1.1.5-.8-.1-1-.5c-.2-.3-.3-.8-.3-1.4h-.1ZM73.3,26.2c0,.5,0,.7.2.9s.3.3.6.3.6-.1.7-.3.2-.6.2-.9c0-.8-.3-1.2-.9-1.2s-.5.1-.7.3-.2.6-.2.9h.1Z"/>
  <path class="st0" d="M10.4,29.3c7.4-1.7,15.2-1.2,20.9,0l-.3,2c.5,0,.8.1,1.2.2l-.6,2.8c-.8-.2-3.2-.6-4-.7l2.8-.8h0c-5.7-1.2-12.8-1.6-19.5,0h0l2.9.8c-.9,0-3.2.5-4,.7l-.6-2.8c.5-.1.9-.2,1.4-.2l-.3-2h-.1ZM12.2,31.7h.3l.2-1.7h-.2l-.2,1.2-.6-1.1h-.3l.8,1.5h0ZM13.2,31.5h.3l-.2-1.6h-.3l.2,1.6h0ZM13.9,31.3h.3v-.7h.2l.5.6h.3l-.6-.7.2-.2v-.5c0-.1,0,0-.1-.1h-.8l.2,1.6h-.3ZM14.1,30.5h0c.1,0,.2,0,.2-.1v-.2h0c0-.1-.1-.1-.2-.1h0v.5h0ZM15.7,31.1h.3v-1.4h.6v-.2h-1.4v.3h.6v1.2h-.1ZM16.6,29.5v.9c0,.2.1.3.2.3s.1.1.2.1h.7l.2-.2v-1.2h-.3v1.4h-.5v-1.2h-.6ZM18.2,30.9h.5c.2,0,.3,0,.5-.1,0,0,.1-.2.1-.3v-.2s-.1-.1-.3-.2h0l-.2-.2c-.1-.1,0,0,0,0h0q0-.1.2-.1h.3v-.2h-.5c-.1,0-.2,0-.3.1,0,0-.1.2,0,.3v.2s.1.1.3.2h0l.2.2c.1.1,0,0,0,.1h0q0,.1-.2.1h-.3v.2h-.2ZM20.1,30.9h.3v-1.6h-.3v1.6h0ZM20.8,30.9h.2v-1.1l.3,1h.2l.3-1v1.1h.2v-1.6h-.3l-.3,1.1-.3-1.1h-.5v1.6h.1ZM22.6,30.9h.3v-.6h.1c.2,0,.3,0,.5-.1,0,0,.2-.2.2-.3v-.2h-.1c0-.1-.1-.1-.3-.1h-.6v1.5h-.1ZM22.9,30.1h.2v-.2h0q0-.1-.2-.1h0v.6h0v-.2ZM23.7,31h.2l.2-.3h.6v.5h.5l-.5-1.6h-.3l-.7,1.5h0ZM24.2,30.4h.5l-.2-.6-.2.6h0ZM25.8,31.1h.3l.7-1.5h-.2l-.6,1.1-.3-1.2h-.3l.5,1.6h0ZM26.8,31.2h.3v-1.5c.1,0-.2,0-.2,0v1.5h-.1ZM27.5,31.3h.6c.2.1.3,0,.5,0,0,0,.2-.1.2-.2s0-.2.1-.5v-.5c0-.1,0-.2-.2-.2s-.2-.1-.3-.1h-.7l-.2,1.5h.1ZM27.8,31.1h.5s.1,0,.2-.1v-.7s0-.1-.1-.2c0,0-.1,0-.3-.1h-.2v1h-.1.1ZM28.9,31.6h.2l.2-.3h.6v.6h.3l-.3-1.6h-.3l-.8,1.4h.1ZM29.5,31h.5v-.6c-.1,0-.5.6-.5.6Z"/>
  <path class="st0" d="M20.9,7.6c-.6,0-2.1-.3-2.1-1.4s.3-.8.6-1.1c1.2-1.7,2-2.5,1.1-4.1.2,0,.7.5.9.8.3.7.5,1.4.2,2.1-.2.7-1.1,1.5-.9,2.3.2.7,1.1.8.9,0-.1-.3-.3-.5-.2-.9.2-.7,1.1-1.6.7-2.5.9.6.3,1.9.5,2.1,0,.2.8.8.7,1.2-.1,1-1.4,1.5-2.1,1.4h-.1Z"/>
  <path class="st0" d="M15.1,7.8c-.6,0-2.1-.3-2.1-1.4s.3-.8.6-1.1c1.2-1.7,2-2.5,1.1-4.1.2,0,.7.5.9.8.3.7.5,1.4.2,2.1-.2.7-1.1,1.5-.9,2.3.2.7,1.1.8.9,0-.1-.3-.3-.5-.2-.9.2-.7,1.1-1.6.7-2.5.9.6.3,1.9.5,2.1,0,.2.8.8.7,1.2-.1,1-1.4,1.5-2.1,1.4h-.1Z"/>
  <path class="st0" d="M26.7,7.8c-.6,0-2.1-.3-2.1-1.4s.3-.8.6-1.1c1.2-1.7,2-2.5,1.1-4.1.2,0,.7.5.9.8.3.7.5,1.4.2,2.1-.2.7-1.1,1.5-.9,2.3.2.7,1.1.8.9,0-.1-.3-.3-.5-.2-.9.2-.7,1.1-1.6.7-2.5.9.6.3,1.9.5,2.1,0,.2.8.8.7,1.2-.1,1-1.4,1.5-2.1,1.4h-.1Z"/>
  <path class="st1" d="M20.9,11.5c-2.8,0-6,.2-8.8.9.2,4.4,0,13.5,2,15.8-.2,0-.6,0-.8.1-1.5-2.4-1.6-8.5-1.8-13.1v-3.3h0c3.1-.7,6.2-1,9.4-1s6.3.2,9.4,1h0v3.3c-.1,4.6-.3,10.7-1.8,13.1-.2,0-.5,0-.8-.1,2-2.4,1.8-11.3,2-15.8-2.8-.7-5.9-.9-8.8-.9h0Z"/>
  <path class="st1" d="M22.4,9.4c-.5-.1-1-.1-1.5-.1s-1,0-1.5.1c-.7-.5-.7-1.1,0-1.5.5,0,1-.1,1.5-.1s1,0,1.5.1c.7.3.6,1,0,1.5Z"/>
  <path class="st1" d="M14.5,14.8c-.5-1.6.9-2.5,1.8-2.5,2.5-.2,4,.5,6.8.6,1,0,2,0,3.1-.5-.2.7-3.4,1.4-4.8,1.4h-1.4c-.2,0-4.5-.7-4.4.7,0,.1.2.1.2,0,.8-.3,1.4-.6,2.1-.6,1.6,0,2.7.5,4.5,0-1.2.8-4.4.6-5.1.7-.7.2-1.1.6-1.8.7-.9.2-1.1-.5-1.2-.6h.1Z"/>
  <path class="st1" d="M15.8,18.7c.1-.2.3-.6.6-.7.3-.3.9.5.3.7h-.9Z"/>
  <path class="st1" d="M14.5,19.2c-.2-.1-.5-.2-.8-.3.2,0,.5-.1.7-.2-.2-.2-.5-.5-.8-.5-.5-.1-.6.6-.2.8-.3.1-.2.8,0,.8-.1.2,0,.7.3.5.2-.1.5-.3.6-.5h-.6c.2-.1.5-.2.7-.5h.1Z"/>
  <path class="st1" d="M15.7,27.9c1.1-.2,1.7-.5,2.4-.7.8-.2,1.4-.7,2.1-1.1-.7,0-1.2-.3-1.7-.7-.6-.5-.9-1-1-1.4,0,.3-.2.7-.5,1-.2.3-.7,1.1-1.1.6-.2-.1-.8.2-1.2,0-.7-.1-.7.6-.3.8-.3.2-.2.8.2.9-.1.2.2.6.6.5h.6,0Z"/>
  <path class="st1" d="M16.3,22.1c.1,0,.3.2.5.3h0c0-.2.1-.3.2-.6,0-.1.2-.2.3-.3,0-.2,0-.3.1-.6,0-.1.2-.5.3-.6h-.2c-.3,0-.9-.2-1.1-.3v2h-.1Z"/>
  <path class="st1" d="M16.5,15.6c.3.1.6.3.6.8s-.2.8-.6.8h-2.8c-.2,0-.6-.6-.6-.8,0-.5.2-.6.6-.8,0,0,2.8,0,2.8,0Z"/>
  <path class="st1" d="M26.7,28.1c.3-.2.6-.5.8-.9h0c.3-.5.5-1,.5-1.7s0-1-.1-1.6c0-.7-1.5-4-1.7-4.5-.2-.5-.7-1.4-.7-1.7,0-.8.7-1.2,1.5-1.2s.9.3,1.1.7h0c.2.3.2.8.1,1.2h0c-.8.8-.7,1.4-.3,2.3.2.6.3,1.4.5,2.4,0-.9.1-1.7.2-2.5,0-.9.2-1.4.2-2.3h0c0-.6,0-1.2-.3-1.7s-.9-.8-1.6-.8c-1.6,0-2.4,1.5-1.7,2.8.6,1,1.1,2.7,1.6,3.7s.6,1.9.2,2.4h0c-.3-.6-.9-.7-1.6-.9-.7-.2-1.5-.6-1.9-1.4,0,.2-.3.5-.5.6-.2.2-.8.5-1,.6h0v-.3c-.2.1-.2.2-.6.3-.7.3-1.5.7-1.5,1.6s1.1,1.1,2.3,1.2c.7,0,1.2,0,1.8.2,0,0,0-.2.1-.5,0-.1.1-.2.2-.2h0c-.1.2-.2.7-.2.9,0,1.1,1.5,1.2,2.3,1.4h.3Z"/>
  <path class="st1" d="M24.1,18.9c-.1-.5-.3-.9-.7-1.2h.1c-.2-.6-.6-.9-.9-1.4h0v-.3h.2c-.1-.2-.5-.3-.7-.5-.5,0-.9-.1-1.1,0,0,.2.1.5.2.6,0,.2,0,.5-.1.7h0v-.6c0-.2,0-.5-.2-.7h-.7c-.6,0-1.2.3-1.7.6h0v.3c0,.2,0,.5.2.7.1-.3.3-.3.6-.2.1,0,.3.2.5.3,0,.1.2.2.2.5v.2h-.3c-.1,0-.2,0-.3-.1h0v.5s0,.1.1.2h0s.2,0,.3-.1h1.2c.2,0,.2-.3,0-.7h0c.3.5.2.8,0,1,0,0-.2.1-.3.1,0,0,.1.1.1.2v.2h0c-.2.1-.5.2-.7.5-.5.2-1,.5-1.5.8-.5.3-.8.7-.9,1,0,0,.2,0,.3-.1h.5s-.2,0-.3.1c-.5.2-.9.6-1.1,1s-.3,1-.1,1.7c0,0,0,.2.1.3,0-.1,0-.2.1-.5v-.3h0c.2.7.7,1.4,1.2,1.8.3.3.9.6,1.4.7h.3s-.2-.1-.3-.2h0c-.1-.2-.2-.5-.2-.7s0-.6.2-.8h0c.2-.3.7-.7,1.5-1,0,0,.3-.1.6-.3.2-.2.5-.5.5-.8h0v1c.3-.2.7-.6.9-1,.3-.8.5-1.6.5-1.8h0v.2h.1c0-.5,0-.9-.1-1.4h0l.5-.6ZM20.3,15.7h0Z"/>
  <path class="st1" d="M19,17.3h-.5c-.3.1-.7.2-.9-.2h0c.3.2.7.1,1,0,.2,0,.6-.1.8,0h-.5v.2Z"/>
  <path class="st1" d="M15.8,25.5l.6-6.7h-.5c-.1,0-.2-.2-.2-.3s.1-.2.2-.5c0-.1.2-.2.3-.3h.2c0-.1-2.6-.1-2.6-.1v.5c.2.1.5.3.7.5h0v.3h0c.1,0,.2.2,0,.3,0,0-.1,0-.2.1.1,0,.2.2.1.3,0,0-.2.2-.3.5h0c0,1.6.2,3.6.3,5.2h.2c.3,0,.8-.1,1.1-.1h0v.3ZM14.6,18.4s.5.5,0,0h0ZM13.9,18.4h.1-.1c0-.1,0,0,0,0ZM14,19.2h.1c0-.1-.1,0-.1,0ZM14.5,18.9c.2.1,0,0,0,0h0ZM16.4,18.4h-.1c0-.1,0,.1,0,.1h.1Z"/>
  <path class="st1" d="M16.6,9.6c-.5,0-1-.1-1.5,0-.6,0-1,0-1.5.2-.7-.3-.7-1.1,0-1.5.5,0,1-.2,1.5-.2h1.5c.7.2.7,1,0,1.5h0Z"/>
  <path class="st1" d="M20.9,9.5c-.6,0-1,0-1.5.2v.7h2.9v-.7c-.5-.1-1-.2-1.5-.2Z"/>
  <path class="st1" d="M15,9.7c-.6,0-1,0-1.5.2v.9c1-.1,1.9-.2,2.9-.3v-.7c-.5-.1-1-.1-1.5-.1h0Z"/>
  <path class="st1" d="M25.2,9.6c.5,0,1-.1,1.5,0,.6,0,1,0,1.5.2.7-.3.7-1.1,0-1.5-.5,0-1-.2-1.5-.2h-1.5c-.7.2-.7,1,0,1.5h0Z"/>
  <path class="st1" d="M26.8,9.7c.6,0,1,0,1.5.2v.9c-1-.1-1.9-.2-2.9-.3v-.6c.5-.1,1-.1,1.5-.1h0Z"/>
  <path class="st1" d="M20.9,34.8h0c-.5-.8-.6-1.5-.6-2.1v-.3h1.2v.3c0,.7,0,1.4-.6,2.1h-.1Z"/>
  <path class="st1" d="M15.9,35.2h0c-.6-.8-.6-1.5-.7-2.1v-.3c.3,0,.8,0,1.1-.1v.3c0,.7,0,1.4-.6,2.1h.1Z"/>
  <path class="st1" d="M25.9,35.2h0c-.5-.8-.5-1.5-.6-2.1v-.3c.3,0,.8,0,1.1.1v.2c0,.7-.1,1.4-.7,2h.1Z"/>
</svg>