<?xml version="1.0" encoding="UTF-8"?>
<svg id="Camada_1" xmlns="http://www.w3.org/2000/svg" version="1.1" viewBox="0 0 85 36">
  <!-- Generator: Adobe Illustrator 29.3.1, SVG Export Plug-In . SVG Version: 2.1.0 Build 151)  -->
  <defs>
    <style>
      .st0 {
        fill: #d62127;
      }

      .st1 {
        fill: #f0be19;
      }

      .st2 {
        fill: #005e35;
      }

      .st3 {
        fill: #0c673f;
      }

      .st4 {
        fill: #005f35;
      }

      .st5 {
        fill: #fdfdfd;
      }
    </style>
  </defs>
  <path class="st4" d="M59.8,25.5c-.2,0-.4.2-.6.3-1.6.6-3.2-.3-3.4-2-.2-2.5,2.1-3.8,4.1-2.4,0,0,0-.4.1-.4h1.2v5.5c0,.2-.3.8-.4,1-.8,1.2-3,1.4-4.1.5-.2-.2-1-1-.8-1.3,0,0,1.1-.3,1.2-.4.3,1,2,1.3,2.5.4,0,0,.2-.4.2-.4v-.8h0ZM59.8,23.4c0-.7-.6-1.3-1.3-1.3s-1.3.6-1.3,1.3.6,1.3,1.3,1.3,1.3-.6,1.3-1.3Z"/>
  <path class="st4" d="M31.3,23.6v2.5h-1.5v-7.5h3.6c1.2,0,2,1.4,2,2.5s-.9,2.5-2.1,2.5h-1.9,0ZM31.3,22.3h1.2s.4,0,.4,0c.6-.2.9-1.1.6-1.7,0-.2-.5-.5-.7-.5h-1.6s0,2.3,0,2.3Z"/>
  <path class="st4" d="M73.3,24.1h-3.7c0,.9,1.3,1.1,2,.7,0,0,.3-.4.3-.4.2,0,.9.4,1.2.4-.1.8-1.1,1.4-1.9,1.5-2,.2-3.1-1.2-2.9-3.1.2-2.6,4-3.1,4.9-.7,0,.1.2.5.2.7v.9ZM71.8,23.1c0-1.4-2.1-1.3-2.2,0h2.2Z"/>
  <path class="st4" d="M40.9,23.6c0,1.5-1.2,2.7-2.7,2.7s-2.7-1.2-2.7-2.7,1.2-2.7,2.7-2.7,2.7,1.2,2.7,2.7ZM37.9,22.2c-1.2.2-1.2,3,.6,2.6,1.1-.2,1.2-2,.3-2.5-.2-.2-.7-.2-.9-.1h0Z"/>
  <path class="st4" d="M51.3,21v3.1c0,0,.2.5.2.5.4.4,1.4.3,1.6-.2,0,0,.1-.3.1-.3v-3.1h1.5c0,1.4,0,2.9,0,4.4,0,.2,0,.5.1.7h-1.5s0-.4,0-.4c-.8.9-2.8.6-3.3-.5,0-.1-.2-.6-.2-.6v-3.5h1.5Z"/>
  <path class="st4" d="M63.9,21v2.9c0,.1.2.5.2.6.4.5,1.4.4,1.7-.1,0,0,.2-.4.2-.4v-3h1.4c0,1.7,0,3.4.1,5.1h-1.4s0-.3,0-.4c-.2,0-.3.2-.5.3-1,.5-3,0-3-1.4v-3.6h1.4Z"/>
  <path class="st2" d="M32.7,11c2,.2,2.2,2.8.5,3.6l1.1,2.5h-1c-.1,0-.9-2.1-1.1-2.4h-1.4v2.3s0,0,0,0h-.9v-6.1c.9,0,2-.1,2.9,0h0ZM30.8,13.9h1.7s.3-.1.4-.2c.6-.3.6-1.4,0-1.7,0,0-.4-.2-.4-.2h-1.7s0,2.1,0,2Z"/>
  <path class="st2" d="M49.5,11v2.6h2.8c0,0,0-2.6,0-2.6h1v6.1h-1v-2.7h-2.8v2.6s0,0,0,0h-.9v-6.1h1,0Z"/>
  <path class="st4" d="M78,22.3c-.3,0-1,.3-1.3.2,0,0,0-.5-.6-.5-.3,0-.6.2-.5.6,0,.3,1.4.5,1.8.7,1.3.7,1,2.5-.4,2.8-1.2.3-2.8,0-2.9-1.4.3,0,1-.3,1.3-.2,0,0,0,.2,0,.2.3.5,1.6.3,1.3-.4-.1-.2-1.2-.4-1.6-.6-.8-.3-1.1-.9-.9-1.7.3-1.7,3.8-1.7,3.8.1h0Z"/>
  <path class="st4" d="M63.9,16.7v2.4h-.8v-6h.8s0,.5,0,.5c.3-.2.6-.5,1-.6,1.8-.2,2.6,1,2.4,2.6s-2.3,2.3-3.4,1.1h0ZM65,13.7c-1.6.2-1.4,2.9.4,2.7.5,0,.9-.5,1-1,.1-.9-.3-1.8-1.4-1.7h0Z"/>
  <polygon class="st4" points="48.2 19.5 48.2 21 49.1 21 49.1 22.3 48.2 22.3 48.2 26.1 46.7 26.1 46.7 22.3 45.8 22.3 45.8 21 46.7 21 46.7 19.5 48.2 19.5"/>
  <path class="st2" d="M45.1,21v1.4c-.3,0-.9-.1-1.2,0-.2.1-.6.6-.6.9v2.7s0,0,0,0h-1.4v-5s0,0,0,0h1.2c.1,0,0,.5.1.5.2,0,.2-.2.4-.3.5-.3,1.1-.2,1.6-.2h0Z"/>
  <path class="st2" d="M38.8,15.5h-3.2c0,1,1.2,1.3,1.9.7.1,0,.3-.4.4-.4s.7.2.7.3c-.8,1.8-3.7,1.4-3.9-.6-.4-3.6,4.4-3.5,4.1,0h0ZM37.9,14.8c0-1.6-2.2-1.5-2.3,0h2.3Z"/>
  <path class="st2" d="M43,17.2h-.8c0,0-.1-.4-.1-.5-1.1,1.2-3.4.4-2.7-1.4.1-.3.7-.7,1.1-.7h1.6c.1-1-1-1.2-1.7-.7-.2.2-.2.4-.5.3-.6-.2-.5-.5,0-.9.7-.5,2-.6,2.6,0,.9.8.3,2.9.6,3.9h0ZM40.8,15.2c-1.2.3-.7,1.6.6,1.2.6-.2.8-1.2.6-1.2h-1.1Z"/>
  <path class="st2" d="M76.2,17.2h-.8c-.1,0,0-.4,0-.5-1,1.2-3.5.4-2.7-1.4.2-.3.7-.8,1.1-.8h1.6c.1-.9-.7-1.1-1.4-.9-.3.1-.5.5-.6.5s-.6-.3-.6-.3c.4-1.3,2.7-1.3,3.3-.2.5.9,0,2.5.2,3.5h0ZM75.2,15.2h-1.2c0,0-.3.1-.4.1-.4.3-.4,1,.1,1.1.9.3,1.6-.4,1.5-1.3Z"/>
  <path class="st4" d="M58.5,15.1c0,1.2-1,2.2-2.2,2.2s-2.2-1-2.2-2.2,1-2.2,2.2-2.2,2.2,1,2.2,2.2ZM56.1,13.7c-1.3.2-1.3,2.4,0,2.7,1.9.4,2-3,0-2.7Z"/>
  <path class="st2" d="M62.1,14c-.1,0-.8.2-.8.2,0,0,0-.1,0-.2-.3-.5-1.5-.4-1.2.4,0,.3,1.1.4,1.4.6.7.3.9.7.8,1.4-.2,1.4-3.2,1.4-3.2-.2.2,0,.7-.2.8-.1,0,0,0,.2.1.3.4.5,1.7.3,1.3-.4-.1-.3-1-.4-1.4-.6-.7-.3-1-.9-.7-1.6.5-1.1,2.9-.9,3,.4h0Z"/>
  <path class="st2" d="M71.4,11.7v1.3h.8v.7h-.8v3.3s0,0,0,0h-.8v-3.4h-.8v-.7c.1,0,.8,0,.8,0v-1.2h.9,0Z"/>
  <rect class="st4" x="43.9" y="11" width=".9" height="6.1"/>
  <rect class="st4" x="77" y="11" width=".9" height="6.1"/>
  <rect class="st4" x="68.1" y="13" width="1" height="4.1"/>
  <path class="st2" d="M69.1,20.5c0,0,.8-1.6.9-1.8,0,0,1.4,0,1.5,0,.3.6.7,1.2.9,1.8h-1.1c0-.1-.5-1-.5-1-.1,0,0,0-.1.1-.2.3-.4.6-.5.9h-1.1Z"/>
  <circle class="st2" cx="68.6" cy="11.6" r=".6"/>
  <g>
    <path class="st2" d="M9.9,26.4c-.1-.7,0-1.3.3-1.9.3-.7,1.1-1.5,1,0,0,.5-.4,1.2-.7,1.6-.2.2-.2,0-.3.5,0,.5.1.8.6,1,0-.1,0-.7.2-.5,0,0,.4,1.4.8,1.5-.2-.8-.4-1.4-.3-2.2,0-.5.5-1.6.8-.5.1.4.1,1,0,1.4,0,.6-.6,1.1-.2,1.8l1.1.7c0-.2-.1-.4-.2-.6-.2-.4-.3-.9-.2-1.4,0-.6.4-1.7.8-.6.2.5.2,1,.1,1.6,0,.4-.4.9,0,1.2.1.1,1.2.5,1.2.5,0-.5-.5-.4-.7-.7-.8-1.2.8-1.8,1-.6,0,.5-.2.7-.2.9s.4.5.5.6c0,0,1,.2,1,.1,0,0-.2-.2-.3-.2-.5-.5-1-1.4-.9-2.1.1-.8,1,.3,1.1.6,0,.2.2.6.3.8,0,.2,0,.7,0,.8.2.4.9.6,1.3.9.4-.3,1.2-.5,1.3-1,0-.8,0-1.3.6-2,.3-.4.7-.6.8,0,0,.5-.3,1.3-.6,1.7-.2.2-.4.3-.6.5.5,0,1,0,1.4-.4.4-.5.1-.4,0-.7s0-1.1.5-1.2c.9-.2.9,1.1.3,1.5,0,0-.3,0-.3.1s0,.3-.2.4c0,0,1.2-.4,1.3-.5.3-.4,0-1-.1-1.4s0-1.1.2-1.5c.1-.3.3-.5.5-.2.3.5.3,1.6,0,2.1,0,.3-.3.4-.3.7.3-.2,1-.5,1.1-.9.3-.6,0-.8-.2-1.4-.1-.5-.1-1.2,0-1.7.3-.8.6,0,.7.4s.1,1,0,1.4c0,.4-.3.6-.3,1,.2-.1.3-.4.5-.6,0-.2.3-.9.4-.9.3-.2.3.4.2.5.3-.3.6-.5.6-.9,0-.5-.2-.5-.5-.9-.3-.4-.8-1.7-.5-2.1.2-.2.7.4.8.6.4.7.3,1.1.3,1.9s0,.2,0,.2c0-.4.3-.9.3-1.3,0-.1-.4-.8-.5-1.3,0-.3,0-2,.6-1.3.3.4.4,1.3.3,1.9,0,.4-.3.7-.3,1.1.1.1.4-.6.4-.6.2-.3,1.4-1.3,1.8-1.1.3.2-.5,1.1-.7,1.3-.5.4-.7.4-1.2.6-.4.2-.5.5-.7.9,0,0,0,0,0,0,.3,0,.3-.4.6-.5,1.5-.6,1.6,1.5,0,1.1-.3,0-.3-.5-.8-.2-.2.1-.4.5-.5.7-.3.3-.6.5-.8.7.3.1.4-.1.7-.2.5-.2,1.6-.4,2.1-.1,1,.4-.4.8-.8.9-.3,0-.8,0-1.1,0-.3,0-.7-.3-1.1-.2l-.7.8c.2,0,.2-.1.3-.2.5-.4,1.6,0,1.4.6-.2.5-1.1.5-1.4.2,0,0-.1-.3-.2-.3,0,0-.4,0-.5,0-.3,0-.7.5-1,.6,0,.1,0,0,.1,0,.9-.2,1.8-.2,2.6.4.6.5.1.7-.4.7-.4,0-1-.1-1.4-.3-.7-.3-.7-.8-1.6-.6l-.6.3c.3.2.3,0,.5,0,1.2-.1,1.4,1.6.1,1.2-.2,0-.5-.3-.5-.5,0-.1,0-.3,0-.4-.3-.5-2,0-2.4.1l.7.4c.8,0,1.9.7,2.3,1.4.3.5.1.6-.4.5-.6-.1-1.5-.8-1.9-1.3,0,0,0-.3-.1-.3-.1,0-.9-.4-1.1-.4-.2,0-.6.5-.7.5-.2,0-.5-.5-.8-.5,0,0-.5.1-.6.2-.6.2-.4.4-.8.8s-1.2,1-1.7,1.1c-.2,0-.5.1-.5-.2,0-.7,1.7-1.9,2.5-1.8l.7-.4c-.5,0-1.4-.4-1.9-.3,0,0-.5.1-.5.2,0,0,0,.2,0,.4,0,.3-.4.5-.8.5-1.1,0-.7-1.4.3-1.3.2,0,.3.2.5,0,0-.1-.5-.2-.6-.3-.8-.1-.8.3-1.4.5-.5.3-1.4.4-2,.3-.7-.2.2-.8.6-.9.4-.2,1.1-.3,1.5-.3.2,0,.5.1.6.2.1,0,0,0,0-.1-.5-.2-.8-.6-1.5-.6-.2.6-.9.7-1.4.4-.8-.5.3-1.4,1.2-.9.1,0,.2.2.3.2,0-.1-.3-.2-.4-.3,0-.1-.2-.4-.3-.4-.5-.1-.7.2-1,.2-.4,0-1.2,0-1.6-.1-.2,0-.9-.4-.5-.6.4-.3,1.8-.2,2.3,0,.2,0,.3.2.5.3,0,0,.2,0,.2,0-.3-.3-.6-.5-.9-.8-.2-.3-.4-.8-.9-.7,0,0-.2.3-.5.3-1.6.3-1.3-1.7.1-1.1.4.2.2.6.7.5-.2-.1-.2-.5-.2-.6,0,0-.4-.3-.4-.3-.2,0-.4,0-.6-.2-.3-.2-1.6-1.2-1.3-1.6s1.5.6,1.7.9c.2.3.3.7.6.9,0-.4-.2-.6-.3-1-.1-.5,0-1.6.3-2s.5-.1.6.3c.2.7,0,1.4-.2,2,0,0-.1.1-.2.2,0,.2.2,1.2.4,1.4h0Z"/>
    <g>
      <g>
        <path class="st1" d="M18.4,3.3s0,.3,0,.3c0,0,.3,0,.3,0,0,0,0,.4,0,.4s-.3,0-.3,0,0,.5,0,.6c0,0,1,.7,1.2.8.3.2.6.5.9.7.3,0,.5,0,.8,0,.9,0,1.7.7,1.9,1.5.2.9-.2,1.4-.5,2.2-.8-.1-1.5-.4-2.3-.5-1.9-.3-3.7-.2-5.5.2-.2,0-1.2.4-1.3.3,0,0-.4-.8-.5-.9-.5-1.2.3-2.6,1.6-2.8.5,0,.7,0,1.1,0,.3-.3.6-.6.9-.8.2-.2,1.1-.6,1.1-.7,0,0,0-.3,0-.4,0-.2-.3,0-.3,0s0-.4,0-.5.3,0,.3,0,0-.3,0-.3.5,0,.5,0h0ZM17.9,5.2c-.3.1-.5.3-.8.5-.8.6-1.8,1.3-1.5,2.4,0,.2.2.4.2.6h2c0-.1,0-3.6,0-3.6ZM18.4,8.7h2c1.1-1.6-.7-2.7-2-3.5v3.5h0ZM15.4,6.7c-1.6-.4-2.5,1.3-1.5,2.6l1.5-.3c-.3-.8-.4-1.5,0-2.3ZM22.5,9.3c.1-.3.4-.7.4-1.1,0-1-.9-1.9-1.9-1.6.4.8.4,1.5,0,2.3l1.5.3Z"/>
        <path class="st1" d="M17,9.7c1.4,0,3,0,4.3.3.2,0,1.1.3,1.1.3,0,.2-.2.7-.4.7h-7.7c-.1,0-.4-.5-.4-.6,0,0,0,0,0-.1.2-.1,1.4-.4,1.7-.4.4,0,.9-.1,1.4-.2h0Z"/>
        <path class="st0" d="M17.9,5.2v3.5h-2c0-.1-.2-.3-.2-.5-.3-1.1.7-1.9,1.5-2.4.2-.2.5-.4.8-.5Z"/>
        <path class="st0" d="M18.4,8.7v-3.5c1.2.8,3.1,1.9,2,3.6h-2c0-.1,0,0,0,0Z"/>
        <path class="st0" d="M22.5,9.3l-1.5-.3c.4-.8.4-1.5,0-2.3,1-.3,2,.5,1.9,1.6,0,.4-.3.7-.4,1.1Z"/>
        <path class="st0" d="M15.4,6.7c-.5.8-.3,1.5,0,2.3l-1.5.3c-1-1.2,0-3,1.5-2.6Z"/>
      </g>
      <g>
        <path class="st0" d="M18.9,2.7c.1,0,0,.3,0,.3,0,0,.3,0,.3,0,0,.3,0,1.2,0,1.4.2.3,1.1.7,1.3,1,1.3-.3,2.5.3,3,1.6.6,1.5-.4,2.6-1,3.8h2.6v9.9c-.8,8.8-13.3,8.9-14.3.2v-10.1h2.5c-.6-1.5-1.7-2.6-.8-4.2.6-1,1.7-1.4,2.8-1.2.1-.2,1.4-1,1.4-1.1v-1.5c0,0,.3,0,.3,0s0-.3,0-.3c.4,0,1.2,0,1.6,0h0ZM18.4,3.3s-.5,0-.5,0c0,0,0,.3,0,.3s-.3,0-.3,0,0,.4,0,.5c0,0,.3,0,.3,0,0,.1,0,.3,0,.4,0,.1-.9.6-1.1.7-.3.2-.6.5-.9.8-.4,0-.7-.1-1.1,0-1.3.2-2,1.5-1.6,2.8,0,.1.4.9.5.9.1,0,1.1-.2,1.3-.3,1.8-.4,3.7-.5,5.5-.2.8.1,1.5.4,2.3.5.3-.8.8-1.3.5-2.2s-1-1.5-1.9-1.5c-.3,0-.5.2-.8,0-.3-.2-.6-.5-.9-.7-.2-.1-1.2-.7-1.2-.8,0,0,0-.5,0-.6s.3,0,.3,0,0-.3,0-.4c0,0-.3,0-.3,0,0,0,0-.3,0-.3h0ZM17,9.7c-.5,0-.9.1-1.4.2-.3,0-1.5.3-1.7.4,0,0,0,0,0,.1,0,.1.3.6.4.6h7.7c.2,0,.3-.5.4-.7,0,0-1-.3-1.1-.3-1.4-.3-2.9-.4-4.3-.3h0ZM12.1,11.8h-.3c0,.2,0,.5,0,.6,0,0,.1,0,.1.2,0,.2-.2,1.3-.1,1.4.1,0,.7,0,.7,0,0,0-.1-.6.3-.6s.2.6.3.6c0,0,.6,0,.7,0,0,0-.1-1.2-.1-1.4,0-.2.1-.1.1-.2,0-.2,0-.4,0-.6h-.3v.4h-.4v-.4h-.4v.4h-.4v-.4ZM17.6,11.8h-.4c0,.2,0,.4,0,.6,0,0,.2,0,.2.2,0,.2,0,.7-.1,1,0,.2,0,.3,0,.5.1,0,.7,0,.7,0,0,0,0-.5.1-.6.5-.2.3.5.3.6,0,0,.6,0,.7,0,0,0-.2-1.2-.1-1.4,0-.1.1,0,.1-.1,0-.2,0-.4,0-.6h-.3v.4h-.4v-.4h-.4v.4h-.4v-.4h0ZM23,11.8h-.4c0,.2,0,.4,0,.6,0,0,.2,0,.2.2l-.2,1.4c.1,0,.7,0,.7,0,0,0,0-.5.1-.6.5-.2.3.5.3.6,0,0,.6,0,.7,0l-.2-1.5c.3,0,.1-.5.2-.7h-.4v.4c0,0-.3,0-.4,0-.1-.2.2-.4-.4-.4v.4h-.4v-.4h0ZM22.1,14.6h-7.9c.1,2.7,0,5.5,0,8.2,0,.2.4.5.6.5.9.2,2-.2,2.8.2.1,0,.4.4.5.4.1,0,.2-.2.3-.3.3-.2.7-.3,1.1-.3.8,0,2.5.4,2.5-.9,0-2.5-.2-5,0-7.4,0-.1,0-.3,0-.4h0ZM12.1,17.9h-.3c0,.2,0,.5,0,.6,0,0,.1,0,.1.2,0,.2-.2,1.3-.1,1.4.1,0,.7,0,.7,0,0,0-.1-.6.3-.6s.2.6.3.6c0,0,.6,0,.7,0,0,0-.1-1.2-.1-1.4,0-.2.1-.1.1-.2,0-.2,0-.5,0-.6h-.3v.4h-.4v-.4h-.4v.4h-.4v-.4ZM23,17.9h-.4c0,.2,0,.4,0,.6,0,0,.2,0,.2.2l-.2,1.5c.1,0,.7,0,.7,0,0,0,0-.5.1-.6.5-.2.3.5.3.6,0,0,.6,0,.7,0l-.2-1.5c.3,0,.1-.5.2-.7h-.4v.4c0,0-.3,0-.4,0-.1-.2.2-.4-.4-.4v.4h-.4v-.4h0ZM15.1,24h-.4c0,.2,0,.5,0,.6,0,0,0,0,.1.1,0,.2-.2,1.4-.1,1.5.1,0,.7,0,.7,0,0,0-.2-.9.3-.6.2.1,0,.6.1.6,0,0,.6,0,.7,0l-.2-1.5c0-.1.1,0,.2-.2,0-.1,0-.4,0-.6h-.4v.4h-.4v-.4h-.4v.4h-.3v-.4h0ZM20.1,24h-.4c0,.2,0,.5,0,.6,0,0,0,0,.1.1,0,.2-.2,1.4-.1,1.5.1,0,.7,0,.7,0,0,0-.2-.9.3-.6.2.1,0,.6.1.6,0,0,.6,0,.7,0l-.2-1.5c0-.1.1,0,.2-.2,0-.1,0-.4,0-.6h-.4v.4h-.4v-.4h-.4v.4h-.3v-.4h0Z"/>
        <path class="st1" d="M15.1,24v.4h.3v-.4h.4v.4h.4v-.4h.4c0,.2,0,.4,0,.6,0,0-.2,0-.2.2l.2,1.5c-.1,0-.7,0-.7,0,0,0,0-.5-.1-.6-.5-.2-.3.5-.3.6,0,0-.6,0-.7,0,0,0,.2-1.2.1-1.5,0-.1-.1,0-.1-.1,0-.2,0-.5,0-.6h.4,0Z"/>
        <path class="st1" d="M20.1,24v.4h.3v-.4h.4v.4h.4v-.4h.4c0,.2,0,.4,0,.6,0,0-.2,0-.2.2l.2,1.5c-.1,0-.7,0-.7,0,0,0,0-.5-.1-.6-.5-.2-.3.5-.3.6,0,0-.6,0-.7,0,0,0,.2-1.2.1-1.5,0-.1-.1,0-.1-.1,0-.2,0-.5,0-.6h.4,0Z"/>
        <path class="st1" d="M23,11.8v.4h.4v-.4c.5,0,.2.2.4.4,0,0,.3,0,.4,0v-.4h.4c0,.2.2.7-.2.7l.2,1.5c-.1,0-.7,0-.7,0,0,0,.2-.9-.3-.6-.2.1,0,.6-.1.6,0,0-.6,0-.7,0l.2-1.4c0-.1-.1,0-.2-.2,0-.1,0-.4,0-.6h.4,0Z"/>
        <path class="st1" d="M23,17.9v.4h.4v-.4c.5,0,.2.2.4.4,0,0,.3,0,.4,0v-.4h.4c0,.2.2.7-.2.7l.2,1.5c-.1,0-.7,0-.7,0,0,0,.2-.9-.3-.6-.2.1,0,.6-.1.6,0,0-.6,0-.7,0l.2-1.5c0-.1-.1,0-.2-.2,0-.1,0-.4,0-.6h.4,0Z"/>
        <path class="st1" d="M17.6,11.8v.4h.4v-.4h.4v.4h.4v-.4h.4c0,.2,0,.5,0,.6,0,0,0,0-.1.1,0,.2.2,1.4.1,1.4-.1,0-.7,0-.7,0,0,0,.2-.9-.3-.6-.2.1,0,.6-.1.6,0,0-.6,0-.7,0v-.5c0-.3.1-.7.1-1,0-.1-.1,0-.2-.2,0-.1,0-.4,0-.6h.4,0Z"/>
        <path class="st1" d="M12.1,11.8v.4h.4v-.4h.4v.4h.4v-.4h.4c0,.2,0,.5,0,.6,0,0-.1,0-.1.2,0,.2.2,1.3.1,1.4-.1,0-.7,0-.7,0,0,0,.1-.6-.3-.6s-.2.6-.3.6c0,0-.6,0-.7,0,0,0,.1-1.2.1-1.4,0-.2-.1-.1-.1-.2,0-.2,0-.4,0-.6h.3Z"/>
        <path class="st1" d="M12.1,17.9v.4h.4v-.4h.4v.4h.4v-.4h.4c0,.2,0,.5,0,.6,0,0,0,0-.1.2,0,.2.2,1.3.1,1.4-.1,0-.7,0-.7,0,0,0,.1-.6-.3-.6s-.2.6-.3.6c0,0-.6,0-.7,0,0,0,.1-1.2.1-1.4,0-.2-.1-.1-.1-.2,0-.2,0-.5,0-.6h.3Z"/>
        <g>
          <path class="st5" d="M22.1,14.6c0,.1,0,.3,0,.4,0,2.5.1,5,0,7.4,0,1.3-1.7.8-2.5.9-.4,0-.8.1-1.1.3-.1,0-.2.3-.3.3s-.4-.3-.5-.4c-.9-.4-2,0-2.8-.2-.2,0-.5-.3-.6-.5,0-2.7,0-5.5,0-8.2h7.9ZM19.1,15.1h-1.8s0,0,0,0v1.3c0,.1.2.4.2.5.4.5,1.2.5,1.5,0,0,0,.1-.3.1-.3v-1.6h0ZM16.7,17.9h-1.9v1.6s.1.2.2.3c.4.6,1.4.5,1.7-.2,0,0,0-.3,0-.3,0,0,0-1.4,0-1.4ZM19.1,17.9h-1.8s0,0,0,0v1.2s0,.3,0,.4c.3.7,1.3.7,1.7.1,0,0,.1-.3.1-.3v-1.5h0ZM21.6,17.9h-1.9v1.5s.2.3.2.4c.3.4,1.1.5,1.5,0,0,0,.3-.4.3-.5v-1.5h0ZM19.1,20.6h-1.8s0,0,0,0v1.3s.1.3.1.4c.3.5,1,.7,1.5.3,0,0,.3-.4.3-.5v-1.6h0Z"/>
          <path class="st3" d="M19.1,15.1v1.6s-.1.3-.1.3c-.3.5-1.1.5-1.5,0,0-.1-.2-.4-.2-.5v-1.3s0,0,0,0h1.8,0ZM17.9,15.6c0-.1-.1-.2-.2-.2s-.2.1-.2.2.1.2.2.2.2-.1.2-.2ZM18.9,15.6c0-.1-.1-.2-.2-.2s-.2.1-.2.2.1.2.2.2.2-.1.2-.2ZM18.4,16.1c0-.1-.1-.2-.2-.2s-.2.1-.2.2.1.2.2.2.2-.1.2-.2ZM17.9,16.7c0-.1-.1-.2-.2-.2s-.2.1-.2.2.1.2.2.2.2-.1.2-.2ZM18.9,16.7c0-.1-.1-.2-.2-.2s-.2.1-.2.2.1.2.2.2.2-.1.2-.2Z"/>
          <path class="st3" d="M19.1,20.6v1.6s-.2.4-.3.5c-.5.4-1.2.2-1.5-.3,0,0-.1-.3-.1-.4v-1.3s0,0,0,0h1.8,0ZM17.9,21c0-.1-.1-.2-.2-.2s-.2.1-.2.2.1.2.2.2.2-.1.2-.2ZM18.9,21.1c0-.1-.1-.2-.2-.2s-.2.1-.2.2.1.2.2.2.2-.1.2-.2ZM18.4,21.6c0-.1-.1-.2-.2-.2s-.2.1-.2.2.1.2.2.2.2-.1.2-.2ZM17.9,22.2c0-.1-.1-.2-.2-.2s-.2.1-.2.2.1.2.2.2.2-.1.2-.2ZM18.9,22.2c0-.1-.1-.2-.2-.2s-.2.1-.2.2.1.2.2.2.2-.1.2-.2Z"/>
          <path class="st3" d="M21.6,17.9v1.5c0,0-.2.4-.3.5-.4.4-1.1.4-1.5,0,0,0-.2-.4-.2-.4v-1.5h1.9ZM20.4,18.3c0-.1,0-.2-.2-.2s-.2.1-.2.2,0,.2.2.2.2-.1.2-.2ZM21.4,18.3c0-.1,0-.2-.2-.2s-.2.1-.2.2,0,.2.2.2.2-.1.2-.2ZM20.9,18.9c0-.1-.1-.2-.2-.2s-.2.1-.2.2.1.2.2.2.2-.1.2-.2ZM20.4,19.4c0-.1-.1-.2-.2-.2s-.2.1-.2.2.1.2.2.2.2-.1.2-.2ZM21.4,19.4c0-.1-.1-.2-.2-.2s-.2.1-.2.2.1.2.2.2.2-.1.2-.2Z"/>
          <path class="st3" d="M16.7,17.9v1.4s0,.2,0,.3c-.3.7-1.2.7-1.7.2,0,0-.2-.3-.2-.3v-1.6s1.9,0,1.9,0ZM15.4,18.3c0-.1-.1-.2-.2-.2s-.2.1-.2.2.1.2.2.2.2-.1.2-.2ZM16.4,18.3c0-.1-.1-.2-.2-.2s-.2.1-.2.2.1.2.2.2.2-.1.2-.2ZM15.9,18.9c0-.1-.1-.2-.2-.2s-.2.1-.2.2.1.2.2.2.2-.1.2-.2ZM15,19.6c0,.1.5,0,.4-.2,0-.4-.6,0-.4.2ZM16.4,19.4c0-.1-.1-.2-.2-.2s-.2.1-.2.2.1.2.2.2.2-.1.2-.2Z"/>
          <path class="st3" d="M19.1,17.9v1.5s-.1.3-.1.3c-.4.6-1.4.5-1.7-.1,0,0,0-.3,0-.4v-1.2s0,0,0,0h1.8,0ZM17.9,18.3c0-.1-.1-.2-.2-.2s-.2.1-.2.2.1.2.2.2.2-.1.2-.2ZM18.9,18.3c0-.1-.1-.2-.2-.2s-.2.1-.2.2.1.2.2.2.2-.1.2-.2ZM18.4,18.9c0-.1-.1-.2-.2-.2s-.2.1-.2.2.1.2.2.2.2-.1.2-.2ZM17.9,19.4c0-.1-.1-.2-.2-.2s-.2.1-.2.2.1.2.2.2.2-.1.2-.2ZM18.9,19.4c0-.1-.1-.2-.2-.2s-.2.1-.2.2.1.2.2.2.2-.1.2-.2Z"/>
          <circle class="st5" cx="17.6" cy="16.7" r=".2"/>
          <circle class="st5" cx="17.6" cy="15.6" r=".2"/>
          <circle class="st5" cx="18.1" cy="16.1" r=".2"/>
          <circle class="st5" cx="18.6" cy="16.7" r=".2"/>
          <circle class="st5" cx="18.7" cy="15.6" r=".2"/>
          <circle class="st5" cx="17.6" cy="21" r=".2"/>
          <circle class="st5" cx="17.6" cy="22.2" r=".2"/>
          <circle class="st5" cx="18.7" cy="22.2" r=".2"/>
          <circle class="st5" cx="18.1" cy="21.6" r=".2"/>
          <circle class="st5" cx="18.7" cy="21.1" r=".2"/>
          <circle class="st5" cx="20.1" cy="19.4" r=".2"/>
          <circle class="st5" cx="21.1" cy="19.4" r=".2"/>
          <circle class="st5" cx="20.6" cy="18.9" r=".2"/>
          <circle class="st5" cx="20.1" cy="18.3" r=".2"/>
          <circle class="st5" cx="21.1" cy="18.3" r=".2"/>
          <circle class="st5" cx="15.2" cy="18.3" r=".2"/>
          <circle class="st5" cx="16.2" cy="18.3" r=".2"/>
          <circle class="st5" cx="15.7" cy="18.9" r=".2"/>
          <circle class="st5" cx="16.2" cy="19.4" r=".2"/>
          <path class="st5" d="M15,19.6c-.2-.3.3-.6.4-.2,0,.3-.3.4-.4.2Z"/>
          <circle class="st5" cx="17.6" cy="19.4" r=".2"/>
          <circle class="st5" cx="17.6" cy="18.3" r=".2"/>
          <circle class="st5" cx="18.7" cy="18.3" r=".2"/>
          <circle class="st5" cx="18.6" cy="19.4" r=".2"/>
          <circle class="st5" cx="18.1" cy="18.9" r=".2"/>
        </g>
      </g>
    </g>
  </g>
</svg>