<?xml version="1.0" encoding="UTF-8"?>
<svg id="Camada_1" xmlns="http://www.w3.org/2000/svg" version="1.1" viewBox="0 0 85 36">
  <!-- Generator: Adobe Illustrator 29.3.1, SVG Export Plug-In . SVG Version: 2.1.0 Build 151)  -->
  <defs>
    <style>
      .st0 {
        fill: #a6364c;
      }

      .st1 {
        fill: #2e7ea5;
      }
    </style>
  </defs>
  <g>
    <path d="M10.3,31h-.7v-3.3c.5,0,.7,0,.9,0,.5,0,.9.1,1.2.4.3.3.4.7.4,1.1,0,1.2-.6,1.8-1.8,1.8ZM10.1,28.1v2.5c.1,0,.2,0,.4,0,.3,0,.6-.1.8-.4.2-.2.3-.6.3-1,0-.8-.4-1.2-1.1-1.2s-.2,0-.4,0h0Z"/>
    <path d="M14.7,29.8h-1.8c0,.3,0,.5.2.6.2.1.3.2.6.2s.5,0,.7-.2l.2.3c0,0-.2.1-.3.2-.2,0-.4.1-.6.1-.3,0-.6-.1-.8-.3-.2-.2-.4-.5-.4-.9s.1-.7.4-1c.2-.2.5-.3.8-.3s.7.1.9.3c.2.2.3.4.3.7s0,.2,0,.3ZM13.6,28.9c-.2,0-.4,0-.5.2-.1.1-.2.3-.2.4h1.4c0-.2,0-.3-.2-.4-.1-.1-.3-.2-.5-.2h0Z"/>
    <path d="M15.7,30.8v1.1h-.5v-3.4h.5v.2c.2-.2.4-.2.6-.2.4,0,.7.1.8.3.2.2.3.5.3.9s0,.7-.3.9c-.2.2-.5.4-.9.4s-.2,0-.3,0c-.1,0-.2,0-.2-.1h0ZM15.7,29.1v1.4s0,0,.2.1.2,0,.3,0c.6,0,.8-.3.8-.9s0-.5-.2-.7-.3-.2-.6-.2-.1,0-.2,0c0,0-.2,0-.2.1h0Z"/>
    <path d="M18.1,28.9h-.3v-.3h.3v-.5l.5-.2v.7h.7v.3h-.7v1.2c0,.2,0,.4.1.4,0,0,.2.1.3.1s.2,0,.4,0v.4c-.1,0-.3,0-.5,0s-.4,0-.5-.2-.2-.3-.2-.5v-1.4h0Z"/>
    <path d="M19.8,29.8c0-.4.1-.7.3-.9s.5-.3.8-.3.7.1.9.3c.2.2.3.5.3.9s0,.7-.3.9c-.2.2-.5.3-.8.3s-.7-.1-.9-.3c-.2-.2-.3-.5-.3-.9h0ZM20.2,29.8c0,.6.2.9.7.9s.4,0,.5-.2.2-.4.2-.7c0-.6-.2-.9-.7-.9s-.4,0-.5.2c-.1.2-.2.4-.2.7h0Z"/>
    <path d="M25.7,31v-.2c-.2.1-.4.2-.7.2s-.6-.1-.8-.3c-.2-.2-.3-.5-.3-.9s.1-.7.3-.9.5-.4.8-.4.5,0,.6.2v-1.1h.5v3.4h-.5ZM25.7,29.1c-.1-.2-.3-.2-.5-.2s-.4,0-.6.3-.2.4-.2.7c0,.6.3.9.8.9s.2,0,.3,0c0,0,.2,0,.2-.1v-1.3h0Z"/>
    <path d="M28.9,29.8h-1.8c0,.3,0,.5.2.6.2.1.3.2.6.2s.5,0,.7-.2l.2.3c0,0-.2.1-.3.2-.2,0-.4.1-.6.1-.3,0-.6-.1-.8-.3-.2-.2-.4-.5-.4-.9s.1-.7.4-1c.2-.2.5-.3.8-.3s.7.1.9.3c.2.2.3.4.3.7s0,.2,0,.3ZM27.8,28.9c-.2,0-.4,0-.5.2-.1.1-.2.3-.2.4h1.4c0-.2,0-.3-.2-.4-.1-.1-.3-.2-.5-.2h0Z"/>
    <path d="M31.4,28.1v.9h1.2v.4h-1.2v1.2h1.6v.4h-2.1v-3.3h2.1v.4s-1.6,0-1.6,0Z"/>
    <path d="M35.1,31v-1.4c0-.3,0-.4-.1-.5s-.2-.1-.4-.1-.2,0-.3,0c-.1,0-.2.1-.3.2v1.8h-.5v-2.4h.3v.3c.3-.2.5-.4.9-.4.6,0,.8.3.8,1v1.5h-.5,0Z"/>
    <path d="M36.1,31.6l.2-.3c.3.2.5.2.7.2s.4,0,.5-.1.2-.1.2-.2c0-.2-.2-.3-.4-.3s-.1,0-.3,0c-.1,0-.2,0-.3,0-.4,0-.6-.1-.6-.4s0-.1.1-.2c0,0,.2-.1.3-.1-.4-.2-.5-.4-.5-.8s0-.5.3-.6.4-.2.7-.2.4,0,.6.1l.2-.3.3.3-.3.2c.1.1.2.3.2.6s0,.5-.2.6c-.2.2-.4.3-.6.3h-.4s0,0-.2,0c0,0-.1,0-.1.1s0,0,.2,0,.2,0,.3,0c.2,0,.2,0,.3,0,.2,0,.4,0,.6.2s.2.3.2.5-.1.4-.3.5c-.2.1-.5.2-.8.2s-.3,0-.5,0-.3-.1-.4-.2h0ZM37.1,28.9c-.2,0-.3,0-.4.2s-.2.2-.2.4,0,.3.2.4.2.2.4.2.3,0,.4-.2.1-.2.1-.4,0-.3-.2-.4-.2-.2-.4-.2h0Z"/>
    <path d="M40.9,29.8h-1.8c0,.3,0,.5.2.6.2.1.3.2.6.2s.5,0,.7-.2l.2.3c0,0-.2.1-.3.2-.2,0-.4.1-.6.1-.3,0-.6-.1-.8-.3-.2-.2-.4-.5-.4-.9s.1-.7.4-1c.2-.2.5-.3.8-.3s.7.1.9.3c.2.2.3.4.3.7s0,.2,0,.3ZM39.8,28.9c-.2,0-.4,0-.5.2-.1.1-.2.3-.2.4h1.4c0-.2,0-.3-.2-.4-.1-.1-.3-.2-.5-.2h0Z"/>
    <path d="M43,31v-1.4c0-.3,0-.4-.1-.5s-.2-.1-.4-.1-.2,0-.3,0c-.1,0-.2.1-.3.2v1.8h-.5v-2.4h.3v.3c.3-.2.5-.4.9-.4.6,0,.8.3.8,1v1.5h-.5,0Z"/>
    <path d="M45.6,31v-1.5c0-.2,0-.3-.1-.4s-.2-.2-.4-.2-.2,0-.3,0-.2.1-.3.2v1.8h-.5v-3.4h.5v1.3c0,0,.2-.2.3-.2s.3,0,.4,0c.3,0,.5,0,.6.2.2.2.2.4.2.7v1.5h-.5,0Z"/>
    <path d="M48.2,30.7c-.2.2-.5.3-.8.3s-.4,0-.5-.2c-.2-.1-.2-.3-.2-.5s.1-.5.3-.6.5-.2.9-.2.2,0,.3,0c0-.4-.2-.6-.6-.6s-.5,0-.7.2l-.2-.4c0,0,.2-.1.4-.2s.3,0,.4,0c.4,0,.6,0,.8.2s.2.4.2.8v.9c0,.2,0,.4.2.4v.2c-.2,0-.3,0-.4,0,0,0-.2-.1-.2-.2h0ZM48.1,29.8c-.1,0-.2,0-.3,0-.2,0-.4,0-.6.2-.2.1-.2.2-.2.4,0,.2.2.4.5.4s.4-.1.6-.3v-.6Z"/>
    <path d="M50.7,29c0,0-.2-.1-.3-.1-.2,0-.3,0-.4.2-.1.1-.2.3-.2.5v1.4h-.5v-2.4h.5v.4c.2-.3.4-.4.7-.4s.2,0,.3,0l-.2.4h0Z"/>
    <path d="M51.4,31v-2.1h-.3v-.4h.8v2.4h-.5ZM51.7,27.6c0,0,.2,0,.2,0,0,0,0,.1,0,.2s0,.1,0,.2c0,0-.1,0-.2,0s-.1,0-.2,0,0-.1,0-.2,0-.1,0-.2c0,0,.1,0,.2,0Z"/>
    <path d="M54.1,30.7c-.2.2-.5.3-.8.3s-.4,0-.5-.2c-.2-.1-.2-.3-.2-.5s.1-.5.3-.6.5-.2.9-.2.2,0,.3,0c0-.4-.2-.6-.6-.6s-.5,0-.7.2l-.2-.4c0,0,.2-.1.4-.2s.3,0,.4,0c.4,0,.6,0,.8.2s.2.4.2.8v.9c0,.2,0,.4.2.4v.2c-.2,0-.3,0-.4,0,0,0-.2-.1-.2-.2h0ZM54,29.8c-.1,0-.2,0-.3,0-.2,0-.4,0-.6.2-.2.1-.2.2-.2.4,0,.2.2.4.5.4s.4-.1.6-.3v-.6Z"/>
    <path d="M57.7,31h-1v-3.3c.4,0,.7,0,.9,0,.3,0,.6,0,.8.2.2.1.3.3.3.6s0,.3-.2.4-.3.2-.4.2c.3,0,.5.2.6.3.1.1.2.4.2.6s-.1.5-.3.7c-.2.2-.5.3-.9.3h0ZM57.2,28v1c0,0,.2,0,.4,0,.4,0,.7-.2.7-.5s-.2-.5-.6-.5-.3,0-.4,0h0ZM57.2,29.3v1.3c.2,0,.3,0,.4,0,.3,0,.5,0,.7-.2s.2-.3.2-.5,0-.4-.2-.5-.3-.1-.7-.1h-.4Z"/>
    <path d="M59.7,31v-2.1h-.3v-.4h.8v2.4h-.5ZM59.9,27.6c0,0,.2,0,.2,0,0,0,0,.1,0,.2s0,.1,0,.2c0,0-.1,0-.2,0s-.1,0-.2,0,0-.1,0-.2,0-.1,0-.2c0,0,.1,0,.2,0Z"/>
    <path d="M60.7,29.8c0-.4.1-.7.3-.9s.5-.3.8-.3.7.1.9.3.3.5.3.9,0,.7-.3.9c-.2.2-.5.3-.8.3s-.7-.1-.9-.3c-.2-.2-.3-.5-.3-.9h0ZM61.2,29.8c0,.6.2.9.7.9s.4,0,.5-.2.2-.4.2-.7c0-.6-.2-.9-.7-.9s-.4,0-.5.2c-.1.2-.2.4-.2.7h0Z"/>
    <path d="M66.5,31v-1.5c0-.4-.2-.6-.5-.6s-.2,0-.3.1c0,0-.2.1-.2.2v1.8h-.5v-1.7c0-.1,0-.2-.1-.3,0,0-.2-.1-.4-.1s-.2,0-.3.1-.2.1-.2.2v1.8h-.5v-2.4h.3l.2.3c.2-.2.4-.3.7-.3.4,0,.6.1.8.3,0,0,.2-.2.3-.2s.3,0,.4,0c.3,0,.5,0,.6.2s.2.4.2.6v1.6h-.5,0Z"/>
    <path d="M69.7,29.8h-1.8c0,.3,0,.5.2.6.2.1.3.2.6.2s.5,0,.7-.2l.2.3c0,0-.2.1-.3.2-.2,0-.4.1-.6.1-.3,0-.6-.1-.8-.3-.2-.2-.4-.5-.4-.9s.1-.7.4-1c.2-.2.5-.3.8-.3s.7.1.9.3c.2.2.3.4.3.7s0,.2,0,.3ZM68.6,28.9c-.2,0-.4,0-.5.2-.1.1-.2.3-.2.4h1.4c0-.2,0-.3-.2-.4-.1-.1-.3-.2-.5-.2h0ZM69.2,27.3l-.5.8h-.3l.4-.8s.5,0,.5,0Z"/>
    <path d="M71.9,31v-.2c-.2.1-.4.2-.7.2s-.6-.1-.8-.3-.3-.5-.3-.9.1-.7.3-.9.5-.4.8-.4.5,0,.6.2v-1.1h.5v3.4h-.5,0ZM71.9,29.1c-.1-.2-.3-.2-.5-.2s-.4,0-.6.3-.2.4-.2.7c0,.6.3.9.8.9s.2,0,.3,0c0,0,.2,0,.2-.1v-1.3h0Z"/>
    <path d="M73.2,31v-2.1h-.3v-.4h.8v2.4h-.5ZM73.5,27.6c0,0,.2,0,.2,0,0,0,0,.1,0,.2s0,.1,0,.2c0,0-.1,0-.2,0s-.1,0-.2,0,0-.1,0-.2,0-.1,0-.2c0,0,.1,0,.2,0Z"/>
    <path d="M76.3,28.7l-.2.3s-.1,0-.2-.1-.2,0-.3,0c-.2,0-.4,0-.6.2-.2.2-.2.4-.2.7s0,.5.2.6.3.2.6.2.4,0,.6-.2l.2.4c-.2.1-.6.2-.9.2s-.6-.1-.9-.3-.3-.5-.3-.9.1-.7.4-.9.6-.4,1-.4.3,0,.4,0,.3.1.3.2h0Z"/>
    <path d="M78.3,30.7c-.2.2-.5.3-.8.3s-.4,0-.5-.2c-.2-.1-.2-.3-.2-.5s.1-.5.3-.6.5-.2.9-.2.2,0,.3,0c0-.4-.2-.6-.6-.6s-.5,0-.7.2l-.2-.4c0,0,.2-.1.4-.2s.3,0,.4,0c.4,0,.6,0,.8.2s.2.4.2.8v.9c0,.2,0,.4.2.4v.2c-.2,0-.3,0-.4,0,0,0-.2-.1-.2-.2h0ZM78.2,29.8c-.1,0-.2,0-.3,0-.2,0-.4,0-.6.2-.2.1-.2.2-.2.4,0,.2.2.4.5.4s.4-.1.6-.3v-.6Z"/>
  </g>
  <g>
    <path class="st0" d="M9.6,25.2V5.3c.9,0,7.4,0,8,0,2.9,0,7.6.3,7.6,9.9s-4.7,9.9-7.6,9.9c0,0-8,0-8,0ZM13.5,8.4v13.9c1.1,0,3.1,0,4.1,0,3.5,0,3.5-4.9,3.5-7.1s0-6.8-3.5-6.8h-4.1Z"/>
    <path class="st0" d="M47.2,13.2c1.2,0,1.9,0,3.1,0,1.4,0,2-.5,2.3-1.4,1.2.3,2.3.6,3.5.8-.5.9-1.1,1.4-2.1,1.8.6.5,3.6.6,3.6,5.3s-3.6,5.5-4.9,5.5c-3.2,0-6.2,0-9.4,0v-15.7c1.3.3,2.7.6,4,1,0,0,0,2.7,0,2.7ZM47.2,22.5h3.1c2.7,0,3.2-1.8,3.2-3.1,0-1.5-.5-3.1-3.2-3.1h-3.1v6.2h0Z"/>
    <path class="st0" d="M40.8,21.9c.3,1.2.3,2,0,3.3h-13.4V5.7c3.9.9,12.2,2.9,12.3,3h-8.4v4.9h7.8c.4,1.1.3,2.1,0,3.2h-7.8v5.1h9.5,0Z"/>
    <path class="st1" d="M72,5.8c.8-.6,4.6-.6,5.4,0,1,12.1,0,0,.9,12.1l-3.5-.9-.6-7.2c-.6,2.2,0,0-1.8,6.7-1-.2-2-.5-3.1-.7.8-3.5,1.7-6.4,2.6-9.9h0Z"/>
    <path class="st1" d="M43.2,5.3h7c5.5,0,6.5,2.8,6.4,4.9,0,1.2-.2,1.7-.5,2.3-.6-.1-1-.2-1.6-.4-1.1-.3-1-.2-1.9-.5,0-.3,0-.5,0-.9,0-2.4-1.4-2.8-2.4-2.8-1.2,0-2.2,0-3,0v2.4c-1.3-.3-2.7-.6-4-1v-4.1h0Z"/>
    <path class="st1" d="M68.2,15.4c-3.3-.7,0,0-3.3-.8-.8-2.7-.9-3.1-1.4-4.8,0,1.4-.2,2.9-.2,4.4-1.1-.3-2.3-.6-3.6-.9.4-4.6.3-4.2.6-7.6,1.8-.6,3.7-.6,5.2,0,.9,3.3,1.9,6.2,2.7,9.6Z"/>
    <path class="st0" d="M62.4,25c-1.3.3-2.3.3-3.6,0,.2-3.8.5-7.6.7-11.5,1.2.3,2.4.6,3.6.9-.2,3.4-.5,6.9-.7,10.6Z"/>
    <path class="st0" d="M64.9,14.8c1.2.3,2.2.5,3.3.8l.7,2.7.5-2.4c.9.2,2.1.5,3.1.7l-1.6,5.5c-.6.5-3.6.6-4.2,0-1.9-7.3-1.2-4.8-1.9-7.3h0Z"/>
    <path class="st0" d="M74.9,17.2c1.4.3,2.4.6,3.5.9l.5,7c-1.3.3-2.2.3-3.4,0-.6-7.7,0,0-.6-7.8Z"/>
    <path class="st1" d="M27.3,5.3h13.1c.5.5.5,2.8,0,3.4-4.5-1.1-8.6-2-13-3.1,0,0,0-.2,0-.3Z"/>
  </g>
</svg>