<?xml version="1.0" encoding="UTF-8"?>
<svg id="Camada_1" xmlns="http://www.w3.org/2000/svg" version="1.1" viewBox="0 0 85 36">
  <!-- Generator: Adobe Illustrator 29.3.1, SVG Export Plug-In . SVG Version: 2.1.0 Build 151)  -->
  <defs>
    <style>
      .st0 {
        fill: #005052;
      }

      .st1 {
        fill: #da5226;
      }
    </style>
  </defs>
  <path class="st1" d="M11.5,31.5v-2.3h.5v2.3h-.5ZM14.2,31.5l-.8-1.1c-.1-.2-.2-.4-.2-.4h0s0,.2,0,.3v1.2h-.5v-2.3h.5l.7,1c.2.2.2.4.2.4h0s0-.2,0-.4v-1.1h.5v2.3h-.5,0ZM16.3,31.5c-.8,0-1.2-.6-1.2-1.2s.4-1.2,1.2-1.2,1.2.6,1.2,1.2-.4,1.2-1.2,1.2ZM16.3,29.6c-.4,0-.6.3-.6.7s.2.8.6.8.6-.3.6-.7-.2-.7-.6-.7ZM19,31.5h-.5l-.9-2.3h.6l.4,1.3c0,.2.1.4.1.4h0s0-.2.1-.4l.4-1.3h.5l-.8,2.3h0ZM20.2,31.5h-.5l.9-2.3h.5l.9,2.3h-.6v-.4h-1v.4ZM20.9,30.2c0-.2-.1-.4-.1-.4h0s0,.2-.1.4l-.2.5h.6l-.2-.5h0ZM22.1,30.4c0-.6.4-1.2,1.2-1.2s.5,0,.7.2l-.2.4c-.1,0-.3-.1-.5-.1-.4,0-.6.3-.6.7s.2.7.6.7.4,0,.5-.2l.2.4c-.1.1-.4.2-.7.2h0c.1.2.2.3.2.4s-.2.3-.4.3-.2,0-.3,0v-.2c0,0,.2,0,.2,0,0,0,.2,0,.2-.1,0-.1-.1-.1-.2-.1v-.3c-.5-.1-.8-.6-.8-1.1h0ZM24.7,31.5h-.6l.9-2.3h.5l.9,2.3h-.6v-.4h-1v.4ZM25.5,29c-.2,0-.3-.1-.4-.1s-.2,0-.2.1l-.2-.2c0-.1.2-.3.4-.3s.3.1.4.1.2,0,.2-.1l.2.2c0,.1-.2.3-.4.3h0ZM25.4,30.2c0-.2-.1-.4-.1-.4h0s0,.2-.1.4l-.2.5h.6l-.2-.5h0ZM27.8,31.5c-.8,0-1.2-.6-1.2-1.2s.4-1.2,1.2-1.2,1.2.6,1.2,1.2-.4,1.2-1.2,1.2ZM27.8,29.6c-.4,0-.6.3-.6.7s.2.8.6.8.6-.3.6-.7-.2-.7-.6-.7ZM30.1,31.5v-2.3h1.3v.5h-.8v.4h.7v.4h-.7v.5h.8v.5h-1.4,0ZM33.5,30.7h-.2v.8h-.6v-2.3h.8c.5,0,.9.2.9.7s-.4.8-.9.8h0ZM33.5,29.6h-.2v.7h.2c.3,0,.4-.1.4-.3s-.1-.3-.4-.3ZM34.8,31.5v-2.3h1.3v.5h-.8v.4h.7v.4h-.7v.5h.8v.5h-1.4,0ZM37.3,31.5c-.4,0-.6-.1-.7-.2l.2-.4c0,0,.2.2.5.2s.3-.1.3-.2c0-.2-.2-.2-.5-.4-.3-.1-.5-.3-.5-.7s.3-.6.8-.6.6.1.7.2l-.2.4c0,0-.3-.1-.4-.1s-.3,0-.3.2.2.2.4.3c.3.1.6.3.6.7s-.3.7-.8.7h0ZM40.3,31.7c.1,0,.2,0,.3,0l.2.4c0,0-.2.1-.5.1-.4,0-.7-.1-1-.6-.6-.1-.9-.6-.9-1.1s.4-1.2,1.2-1.2,1.2.6,1.2,1.2-.3,1-.8,1.1c.1.2.2.2.4.2h0ZM39.6,29.6c-.4,0-.6.3-.6.7s.2.8.6.8.6-.3.6-.7-.2-.7-.6-.7ZM42.2,31.5c-.7,0-1-.3-1-.9v-1.4h.6v1.3c0,.4.1.5.5.5s.4-.2.4-.5v-1.4h.5v1.3c0,.6-.3,1-.9,1h0ZM43.8,31.5v-2.3h.6v2.3h-.6ZM45.5,31.5c-.4,0-.6-.1-.7-.2l.2-.4c0,0,.2.2.5.2s.3-.1.3-.2c0-.2-.2-.2-.5-.4-.3-.1-.5-.3-.5-.7s.3-.6.8-.6.6.1.7.2l-.2.4c0,0-.3-.1-.4-.1s-.3,0-.3.2.2.2.4.3c.3.1.6.3.6.7s-.3.7-.8.7h0ZM47,31.5h-.6l.9-2.3h.5l.9,2.3h-.6v-.4h-1v.4ZM47.7,30.2c0-.2-.1-.4-.1-.4h0s0,.2-.1.4l-.2.5h.6l-.2-.5h0Z"/>
  <g>
    <g>
      <path class="st0" d="M78.7,1.6c0-.1-.1-.2-.2-.1l-22.8,4.8c-.2,0-.3,0-.3.2,0,.2,0,.3,0,.4,0,0,0,0,.2,0h0s9.6,13.3,9.6,13.3c0,0,0,0,0,.1h0s0,0,0,0c.1.2.4.3.6.2.2,0,.4-.2.4-.4L78.7,1.8c0,0,0-.1,0-.2h0ZM63.9,9.6l-6.8-2.8,20.3-4.6-13.5,7.5h0ZM78,2.2l-11.8,16.4-1.9-8.5,13.7-7.9h0ZM63.7,10s0,0,0,0c0,0,0,0,0,.1l1.1,7.7-8.2-10.4,7,2.6h0Z"/>
      <g>
        <path class="st1" d="M79.4,1.7c0-.5-.4-.9-.9-.9s-.9.4-.9.9.4.9.9.9.9-.4.9-.9Z"/>
        <path class="st1" d="M65.3,9.9c0-.7-.6-1.3-1.3-1.3s-1.3.6-1.3,1.3.6,1.3,1.3,1.3,1.3-.6,1.3-1.3Z"/>
        <path class="st1" d="M57.3,6.7c0-.8-.7-1.5-1.5-1.5s-1.5.7-1.5,1.5.7,1.5,1.5,1.5,1.5-.7,1.5-1.5Z"/>
        <path class="st1" d="M67.8,20c0-1.1-.9-1.9-1.9-1.9s-1.9.9-1.9,1.9.9,1.9,1.9,1.9,1.9-.9,1.9-1.9Z"/>
      </g>
    </g>
    <path class="st0" d="M23.8,14.3c-1.1,0-1.9-.9-1.9-1.9s.8-1.9,1.9-1.9,1.9.9,1.9,1.9-.9,1.9-1.9,1.9ZM20,15.3v-2.9h-8.5v14.5h3.5v-5.7h4.5v-2.7h-4.5v-3.2h5,0ZM25.5,26.9v-10.6h-3.3v10.6s3.3,0,3.3,0ZM37.4,26.9v-7.4c0-2-.9-3.5-3.2-3.5s-2.8.9-3.3,1.6v-1.3h-3.2v10.6h3.3v-7c.2-.3.9-1.1,1.9-1.1s1.3.5,1.3,1.4v6.7h3.3,0ZM42.4,22.4h6.6c.4-4.1-1.3-6.5-4.7-6.5s-5.4,2.1-5.4,5.5,2.1,5.6,5.7,5.6,3.3-.6,4.1-1l-1-2.1c-.5.3-1.3.7-2.7.7s-2.3-.9-2.5-2.3h0ZM42.3,20.3c.2-1.3.8-2,1.9-2s1.6.9,1.6,2h-3.5ZM61.1,21.5c0-3.6-1.6-5.6-4.3-5.6s-2.3.6-2.9,1.4v-1.1h-3.2v15.3h3.3v-5.1c.4.3,1.2.7,2.4.7,2.8,0,4.8-2.2,4.8-5.6ZM57.6,21.5c0,2-.7,3.1-2,3.1s-1.3-.3-1.6-.6v-4.4c.2-.3.8-1,1.8-1s1.9,1.1,1.9,3h0Z"/>
  </g>
</svg>