<?xml version="1.0" encoding="UTF-8"?>
<svg id="Camada_1" xmlns="http://www.w3.org/2000/svg" version="1.1" viewBox="0 0 85 36">
  <!-- Generator: Adobe Illustrator 29.3.1, SVG Export Plug-In . SVG Version: 2.1.0 Build 151)  -->
  <defs>
    <style>
      .st0 {
        fill: #fff;
      }

      .st0, .st1, .st2 {
        fill-rule: evenodd;
      }

      .st1 {
        fill: #1f92d0;
      }

      .st3 {
        isolation: isolate;
      }

      .st2 {
        fill: #322f80;
      }

      .st4 {
        mix-blend-mode: multiply;
      }
    </style>
  </defs>
  <g class="st3">
    <g id="Camada_11" data-name="Camada_1">
      <g class="st4">
        <polygon class="st2" points="26.8 6.6 42 6.6 39 30.5 24 30.5 26.8 6.6"/>
        <polygon class="st0" points="41.3 11.6 31.7 11.6 31.3 15.2 40 15.2 39.6 18.7 30.8 18.7 30.1 25.5 24.5 25.5 26.5 8.1 41.7 8.1 41.3 11.6"/>
        <path class="st2" d="M5,27.1h.3l-.2,1.6c0,0,0,.1,0,.2h0c0,.3,0,.4,0,.4s.1,0,.2,0,.2,0,.3-.1.1-.3.2-.6l.2-1.5h.3l-.2,1.5s0,0,0,0c0,.3,0,.5-.2.6,0,.1-.1.2-.2.3-.1,0-.2,0-.4,0s-.3,0-.5-.2c-.1-.1-.2-.3-.2-.5v-.2c0,0,0-.1,0-.2l.2-1.5h0ZM6.4,29.6l.4-2.6h.4l.6,2,.3-2h.3l-.4,2.6h-.4l-.6-2.1-.3,2.1h-.3ZM8.5,29.6l.4-2.6h.3l-.4,2.6h-.3ZM9.3,27.1h.3l.3,2.1,1-2.1h.3l-1.2,2.6h-.4l-.3-2.6ZM10.9,29.6l.4-2.6h1.1v.4h-.9v.7c-.1,0,.7,0,.7,0v.4h-.9v.8c-.1,0,.7,0,.7,0v.4h-1.2,0ZM12.4,29.6l.4-2.6h.5c.2,0,.5,0,.6.2.1.1.2.3.2.6s0,.4-.2.6c-.1.1-.3.2-.5.3l.4,1h-.3l-.6-1.3h0c.3,0,.5,0,.6,0,0,0,.1-.1.2-.2,0,0,0-.2,0-.2,0-.1,0-.2-.1-.3,0,0-.2-.1-.3-.1h-.3l-.4,2.2h-.3,0ZM14.3,28.8h.3c0,.2,0,.3,0,.4,0,0,.1.1.2.1s.2,0,.3-.1,0-.2,0-.3,0-.1,0-.2,0-.1-.2-.2c0,0,0,0,0,0-.1,0-.2-.2-.3-.2,0,0,0-.1-.1-.2,0,0,0-.1,0-.2,0-.2,0-.4.2-.5.1-.1.3-.2.5-.2s.3,0,.4.2.2.3.2.5h0c0,0-.3,0-.3,0h0c0-.2,0-.2,0-.3,0,0-.1,0-.2,0s-.2,0-.2.1c0,0,0,.1,0,.2s.1.3.4.5c0,0,0,0,.1,0,0,0,.2.2.2.3,0,.1,0,.2,0,.4,0,.2,0,.4-.2.6-.1.1-.3.2-.5.2s-.4,0-.5-.2-.2-.3-.2-.6h0c0,0,0,0,0,0ZM15.7,29.6l.4-2.6h.3l-.4,2.6h-.3ZM17.4,27.4h-.3l-.3,1.9h.4c.3,0,.5-.1.7-.3.2-.2.2-.5.2-.8s0-.5-.2-.6c-.1-.1-.3-.2-.5-.2h0ZM16.4,29.6l.4-2.6h.6c.3,0,.6.1.7.3.2.2.3.5.3.8s-.1.8-.3,1c-.2.3-.5.4-.9.4,0,0-.8,0-.7,0ZM18.2,29.6l1.2-2.6h.4l.4,2.6h-.3v-.7h-1l-.3.7s-.3,0-.3,0ZM19.7,28.5l-.2-1.1-.5,1.1h.7ZM21.3,27.4h-.3l-.3,1.9h.4c.3,0,.5-.1.7-.3.2-.2.2-.5.2-.8s0-.5-.2-.6c-.1-.1-.3-.2-.5-.2h0ZM20.3,29.6l.4-2.6h.6c.3,0,.6.1.7.3s.3.5.3.8-.1.8-.3,1c-.2.3-.5.4-.9.4,0,0-.8,0-.7,0ZM22.4,29.6l.4-2.6h1.1v.4h-.9v.7c-.1,0,.7,0,.7,0v.4h-.8v.8c-.1,0,.7,0,.7,0v.4h-1.2Z"/>
        <path class="st0" d="M24.7,29.6l.4-2.6h1.1v.4h-.9v.7c-.1,0,.7,0,.7,0v.4h-.8l-.2,1.1s-.3,0-.3,0ZM26.7,29.6l.4-2.6h1.1v.4h-.9v.7c-.1,0,.7,0,.7,0v.4h-.8v.8c-.1,0,.7,0,.7,0v.4c0,0-1.2,0-1.2,0ZM29.7,27.4h-.3l-.3,1.9h.4c.3,0,.5-.1.7-.3.2-.2.2-.5.2-.8s0-.5-.2-.6c-.1-.1-.3-.2-.5-.2h0ZM28.7,29.6l.4-2.6h.6c.3,0,.6.1.7.3s.3.5.3.8-.1.8-.3,1c-.2.3-.5.4-.9.4h-.8,0ZM31.2,29.6l.4-2.6h1.1v.4h-.9v.7c-.1,0,.7,0,.7,0v.4h-.9v.8c-.1,0,.7,0,.7,0v.4c0,0-1.2,0-1.2,0ZM33.2,29.6l.4-2.6h.6c.3,0,.5,0,.6.2.1.1.2.3.2.6s0,.4-.2.6c-.1.1-.3.2-.5.3l.4,1h-.3l-.6-1.3h0c.3,0,.5,0,.6,0,0,0,.1-.1.2-.2,0,0,0-.2,0-.2,0-.1,0-.2-.1-.3,0,0-.2-.1-.3-.1h-.3l-.4,2.2h-.3,0ZM35.2,29.6l1.2-2.6h.4l.4,2.6h-.3v-.7h-1l-.3.7h-.3ZM36.6,28.5l-.2-1.1-.5,1.1h.6ZM37.7,29.6l.4-2.6h.3l-.4,2.2h.7v.4c0,0-1.1,0-1.1,0Z"/>
        <path class="st2" d="M40.7,27.4h-.3l-.3,1.9h.4c.3,0,.5-.1.7-.3.2-.2.2-.5.2-.8s0-.5-.2-.6c-.1-.1-.3-.2-.5-.2h0ZM39.7,29.6l.4-2.6h.6c.3,0,.6.1.7.3.2.2.3.5.3.8s-.1.8-.3,1c-.2.3-.5.4-.9.4h-.8ZM42.2,28.5c0,.3,0,.5.2.6.1.2.3.2.5.2s.5-.1.6-.3c.2-.2.2-.5.2-.8s0-.5-.2-.6c-.1-.2-.3-.2-.5-.2s-.5.1-.6.3c-.2.2-.2.5-.2.8h0ZM41.9,28.5c0-.2,0-.4,0-.6,0-.2.2-.4.3-.5.1-.1.2-.2.4-.3.1,0,.3-.1.5-.1.3,0,.5.1.7.3s.3.5.3.9,0,.3,0,.5c0,.1,0,.3-.2.4-.1.2-.2.3-.4.4-.2.1-.4.1-.6.1-.3,0-.6-.1-.7-.3-.2-.2-.3-.5-.3-.8h0ZM45.1,29.6l.4-2.6h.6c.3,0,.4,0,.6.2.1.1.2.3.2.6s0,.4-.2.6c-.1.1-.3.2-.5.3l.4,1h-.3l-.6-1.3h0c.3,0,.5,0,.6,0,0,0,.1-.1.2-.2,0,0,0-.2,0-.2,0-.1,0-.2-.1-.3,0,0-.2-.1-.3-.1h-.3l-.4,2.2h-.3,0ZM46.9,29.6l.4-2.6h.3l-.4,2.6h-.3ZM48,28.5c0,.3,0,.5.2.6.1.2.3.2.5.2s.5-.1.6-.3c.2-.2.2-.5.2-.8s0-.5-.2-.6c-.1-.2-.3-.2-.5-.2s-.5.1-.6.3c-.2.2-.2.5-.2.8h0ZM47.7,28.5c0-.2,0-.4,0-.6s.2-.4.3-.5c.1-.1.2-.2.4-.3.1,0,.3-.1.5-.1.3,0,.5.1.7.3s.3.5.3.9,0,.3,0,.5c0,.1,0,.3-.2.4-.1.2-.2.3-.4.4-.2.1-.4.1-.6.1-.3,0-.6-.1-.7-.3-.2-.2-.3-.5-.3-.8h0ZM53,28.7h-1v-.3h1.4c0,.4-.2.7-.4,1-.2.2-.5.4-.8.4s-.6-.1-.7-.3c-.2-.2-.3-.5-.3-.9s0-.4,0-.6c0-.2.1-.3.2-.5.1-.1.2-.2.4-.3.2,0,.3-.1.5-.1.3,0,.5,0,.7.2.2.2.3.4.3.7h-.3c0-.2-.1-.3-.2-.4s-.2-.1-.4-.1c-.2,0-.5.1-.6.3-.2.2-.3.5-.3.8s0,.5.2.6c.1.2.3.2.5.2s.3,0,.5-.2.3-.3.3-.5h0ZM53.5,29.6l.4-2.6h.6c.2,0,.4,0,.6.2.1.1.2.3.2.6s0,.4-.2.6c-.1.1-.3.2-.5.3l.4,1h-.3l-.6-1.3h0c.3,0,.5,0,.6,0,0,0,.1-.1.2-.2,0,0,0-.2,0-.2,0-.1,0-.2-.1-.3,0,0-.2-.1-.3-.1h-.3l-.4,2.2h-.3ZM54.9,29.6l1.2-2.6h.4l.4,2.6h-.3v-.7h-1l-.3.7h-.3,0ZM56.4,28.5l-.2-1.1-.5,1.1h.7ZM57,29.6l.4-2.6h.4l.6,2,.3-2h.3l-.4,2.6h-.4l-.6-2.1-.3,2.1h-.3ZM60.1,27.4h-.3l-.3,1.9h.4c.3,0,.5-.1.7-.3.2-.2.2-.5.2-.8s0-.5-.2-.6c-.1-.1-.3-.2-.5-.2h0ZM59.1,29.6l.4-2.6h.6c.3,0,.6.1.7.3.2.2.3.5.3.8s-.1.8-.3,1c-.2.3-.5.4-.9.4h-.8,0ZM61.2,29.6l.4-2.6h1.1v.4h-.9v.7c-.1,0,.7,0,.7,0v.4h-.9v.8c-.1,0,.7,0,.7,0v.4c0,0-1.2,0-1.2,0ZM64.6,27.4h-.3l-.3,1.9h.4c.3,0,.5-.1.7-.3.2-.2.2-.5.2-.8s0-.5-.2-.6c-.1-.1-.3-.2-.5-.2h0ZM63.6,29.6l.4-2.6h.6c.3,0,.6.1.7.3.2.2.3.5.3.8s-.1.8-.3,1c-.2.3-.5.4-.9.4h-.8ZM66.1,28.5c0,.3,0,.5.2.6.1.2.3.2.5.2s.5-.1.6-.3c.2-.2.2-.5.2-.8s0-.5-.2-.6c-.1-.2-.3-.2-.5-.2s-.5.1-.6.3c-.2.2-.2.5-.2.8h0ZM65.8,28.5c0-.2,0-.4,0-.6s.2-.4.3-.5c.1-.1.2-.2.4-.3.1,0,.3-.1.5-.1.3,0,.6.1.7.3s.3.5.3.9,0,.3,0,.5c0,.1,0,.3-.2.4-.1.2-.2.3-.4.4s-.4.1-.6.1c-.3,0-.6-.1-.7-.3-.2-.2-.3-.5-.3-.8h0ZM69.1,29.6l.4-2.6h.4l.6,2,.3-2h.3l-.4,2.6h-.4l-.6-2.1-.3,2.1h-.3,0ZM71.6,28.5c0,.3,0,.5.2.6.1.2.3.2.5.2s.5-.1.6-.3c.2-.2.2-.5.2-.8s0-.5-.2-.6c-.1-.2-.3-.2-.5-.2s-.5.1-.6.3c-.2.2-.2.5-.2.8h0ZM71.3,28.5c0-.2,0-.4,0-.6,0-.2.2-.4.3-.5.1-.1.2-.2.4-.3.2,0,.3-.1.5-.1.3,0,.5.1.7.3s.3.5.3.9,0,.3,0,.5c0,.1,0,.3-.2.4-.1.2-.2.3-.4.4-.2.1-.4.1-.6.1-.3,0-.6-.1-.7-.3-.2-.2-.3-.5-.3-.8h0ZM73.6,29.6l.4-2.6h.6c.3,0,.4,0,.6.2.1.1.2.3.2.6s0,.4-.2.6c-.1.1-.3.2-.5.3l.4,1h-.3l-.6-1.3h0c.3,0,.5,0,.6,0,0,0,.1-.1.2-.2,0,0,0-.2,0-.2,0-.1,0-.2-.1-.3,0,0-.2-.1-.3-.1h-.3l-.4,2.2h-.3,0ZM75.7,29.6l.4-2.2h-.5v-.4h1.3v.4h-.5l-.4,2.2h-.3,0ZM76.7,29.6l.4-2.6h1.1v.4h-.9v.7c-.1,0,.7,0,.7,0v.4h-.9v.8c-.1,0,.7,0,.7,0v.4c0,0-1.2,0-1.2,0Z"/>
        <path class="st1" d="M25.5,17.8c-.3,2.6-1.2,4.6-2.6,5.9-1.7,1.5-4.3,2.2-8,2.2s-6.2-.7-7.5-2c-1.2-1.3-1.7-3.3-1.4-6.1l1.1-9.7h5.5l-1.1,9.7c-.2,1.5,0,2.7.7,3.5.6.9,1.6,1.3,2.8,1.3s2.3-.4,3.1-1.1c1-.9,1.6-2.1,1.8-3.7l1.1-9.7h5.5l-1.1,9.7h0ZM57.8,25.5h-5.9l.2-5c0-.3-.2-.6-.3-.9-.2-.3-.5-.5-.9-.7-.6,0-1.5,0-2.8,0-1.3,0-2,0-2.1,0l-.8,6.8h-5.6l2-17.4h11.5c1.6,0,2.9.4,4.1,1.1,1.4.9,1.9,2,1.8,3.5-.1,1-.6,1.9-1.4,2.6-.8.7-1.7,1.2-2.9,1.4v.2c.4,0,.9.1,1.3.3,1.3.5,1.7,1.4,1.8,2.8v4.9s2-16.9,2-16.9h7.9l6.2,11.5,1.3-11.5h5.2l-2,17.4h-7.5l-6.5-11.8-1.4,11.8h-5.1,0ZM53.1,13.3c0-.6-.2-1-.7-1.4-.6-.4-1.2-.6-1.9-.6h-3.7l-.5,4.2h3.8c.8,0,1.5-.2,2.1-.6.6-.4.9-.9,1-1.6h0Z"/>
      </g>
    </g>
  </g>
</svg>