<?xml version="1.0" encoding="UTF-8"?>
<svg id="Camada_1" xmlns="http://www.w3.org/2000/svg" version="1.1" viewBox="0 0 85 36">
  <!-- Generator: Adobe Illustrator 29.3.1, SVG Export Plug-In . SVG Version: 2.1.0 Build 151)  -->
  <defs>
    <style>
      .st0 {
        fill: #d4b658;
      }

      .st1 {
        fill: #7cabd0;
      }

      .st2 {
        fill: #cacac9;
      }

      .st3 {
        fill: #e7daac;
      }

      .st4 {
        fill: #d3b557;
      }

      .st5 {
        fill: #527d97;
      }

      .st6 {
        fill: #a6a4a4;
      }

      .st7 {
        fill: #d4b659;
      }

      .st8 {
        fill: #d4b75a;
      }
    </style>
  </defs>
  <path class="st1" d="M35.9,26.7h0c0,0,0,.1,0,.1h0c0,.2-.2.3-.3.4h0c-.8.7-2,.9-3,1.2-.7.2-1.4.5-2,.9h0c0,0,0,.1-.2.2h0c0,.1-.2.2-.2.2h0c0,0-.1.1-.2.2-.2.1-.3.3-.5.5,0,0,0,0,0,0v-4.3c.6,0,1,.6,1.4.9s.8.6,1.4.5c0,0-.1-.2-.1-.2-.2-.2-.4-.4-.6-.6,0,0-.1-.1,0-.2.8,0,1.3.6,2.1.5,0,0,.4-.1.4-.1,0,0,0,0,0,0l-1.2-.7c.5-.3,1.1,0,1.6,0,.3,0,.7-.1.8-.4l-1.8-.4c.3-.3.8-.3,1.2-.4.4,0,.9-.2,1-.6h-2.1c.1-.2.4-.3.6-.4.5-.2,1.3-.2,1.6-.8,0,0,.1-.2,0-.2l-2.2.3c.3-.5.9-.6,1.4-.9.4-.2.7-.5.9-1l-2.2.7c.2-.6.9-.8,1.4-1.2.4-.3.7-.7.8-1.2l-2.2,1c.2-.7.9-1,1.5-1.5.4-.3.7-.8.8-1.3l-2.3,1.3c.1-.8.9-1.2,1.5-1.6.4-.4.8-.9.9-1.5l-2.3,1.5c.3-1.4,2.2-1.9,2.3-3.4-.8.5-1.7,1-2.5,1.5-.9.6-1.4,1.2-1.9,2.1-.4.8-.8,2.5-1.9,2.5v-6.7h-7.3v11.2h0v-11.2h14.7s0,0,0,.1c0,3.9,0,7.7,0,11.6,0,.5-.2,1.1-.5,1.6h0Z"/>
  <path class="st5" d="M21.8,24.7v-11.2h7.3v6.7c-1.1,0-1.5-1.7-1.8-2.5-.5-1-1-1.5-1.9-2.1l-2.4-1.5c0,.5.3.9.6,1.2.5.6,1.4,1.1,1.7,1.9,0,0,.1.4,0,.3l-2.3-1.5c.1,1,1,1.5,1.7,2.2.3.2.7.6.6,1l-2.2-1.3c0,.5.3.9.6,1.2.5.5,1.4.8,1.6,1.6l-2.2-1c.1.5.4.9.9,1.2.5.3,1.1.6,1.4,1.1l-2.2-.6c0,.4.4.7.7.9.5.3,1.2.4,1.5.9l-2.2-.3c0,0,0,0,0,0,.2.7,1.3.7,1.8,1,.2,0,.3.2.4.3h-2.1c.4.9,1.6.4,2.2,1l-1.8.4c.6.8,1.7,0,2.5.4l-1.2.7c.8.6,1.7-.5,2.5-.3l-.9.9c.3.2.7,0,1-.1.6-.3,1.1-1.2,1.7-1.2v4.3s0,0,0,0c0,0-.1-.1-.2-.2,0,0,0,0-.1,0,0,0-.1-.2-.2-.2h0c0,0,0,0-.1-.1h-.1c0,0,0-.1,0-.1h0c0,0,0,0,0,0h0c0,0,0,0,0,0h0c0,0,0,0,0,0h0c0,0,0,0,0,0,0,0,0,0-.1,0,0,0,0,0,0,0,0,0,0,0-.1,0,0,0-.2,0-.3-.1h-.1c0,0,0-.1-.2-.1h0s0,0,0,0h0c0,0-.1,0-.2,0h0s0,0,0,0h0s0,0,0,0h0s0,0,0,0h0s0,0,0,0h0s-.1,0-.2,0h0s-.1,0-.2,0h0s0,0,0,0h0s0,0,0,0h0s0,0,0,0h0s0,0,0,0h0s0,0,0,0h0s0,0,0,0h0s0,0,0,0h0s0,0,0,0h0s-.1,0-.2,0h0s-.1,0-.2,0h0s0,0,0,0h0s0,0,0,0h0s0,0,0,0h0c0,0-.1,0-.2,0h0c-.1,0-.3-.2-.5-.2h0c0,0,0,0,0,0h0c0,0,0,0,0,0h0c0,0,0-.1,0-.1l-.3-.3s0,0,0,0h0c0-.1,0-.2,0-.2h0s0,0,0,0c0,0,0,0,0,0,0,0,0-.2-.1-.2,0,0,0,0,0-.2h0c0,0,0-.2,0-.2h0s0,0,0,0h0s0,0,0,0h0c0,0,0-.1,0-.1h0c0,0,0-.1,0-.1h0c0,0,0-.2,0-.2h0c0,0,0-.2,0-.2h0c0-.1,0-.2,0-.2v-.2h0c0-.1.2,0,.2,0Z"/>
  <path class="st6" d="M56.3,12.6h4c0,.3,0,.7,0,1,0,0,0,0,0,0h-.2s0,0,0,0h0s0,0,0,0h0s0,0,0,0h0c-.1,0-.2,0-.2.2,0,0,0,0,0,0h0s0,.1,0,.1c0,1.7-.1,3.4,0,5.1,0,0,0,.1,0,.2h0c0,.1,0,.2,0,.2h0c0,0,0,.1,0,.1h0c0,0,0,.1,0,.1,0,0,0,0,0,.1h0c0,.1,0,.2,0,.2h0c0,0,0,.2,0,.2h0c0,.1.1.2.2.3,0,0,0,0,0,0h0c.2.2.3.2.4.2h0s0,0,0,0h0s0,0,0,0c.2,0,.4,0,.6,0h.2s0,0,0,0h0s0,0,0,0h0s0,0,0,0h0c0,0,.1,0,.2,0h0c0,0,0,0,0,0h0c0,0,0,0,0,0,0,0,0,0,.1-.1,0,0,0,0,0,0h0c0,0,0-.2,0-.2,0-.2.1-.3.2-.4h0c0-.1,0-.2,0-.2h0c0,0,0-.2,0-.2h0v-5.4h0s0,0,0,0h0c0,0-.1-.2-.2-.2-.1,0-.2,0-.3,0h0s0,0,0,0h0s0,0,0,0h0s0,0,0,0h0s0,0,0-.1c0-.3,0-.7,0-1h4c0,.3,0,.7,0,1,0,0,0,0,0,0h-.2s0,0,0,0h0s0,0,0,0h0s0,0,0,0h0c-.2.1-.2.2-.3.4h0c0,1.9,0,3.7,0,5.5,0,0,0,.1,0,.2h0c0,.1,0,.2,0,.2h0c0,0,0,.2,0,.2h0c0,0,0,.1,0,.1h0s0,0,0,0c0,0,0,0,0,.1h0c0,0,0,.1,0,.2,0,0-.1.2-.2.3,0,0,0,0,0,0h0c0,0,0,.2,0,.2,0,0,0,0,0,0l-.4.4h-.1c0,0,0,0,0,0h0c0,0,0,0,0,0h0c-.1.1-.3.2-.4.3h0s0,0,0,0h0s0,0,0,0h0s-.1,0-.2,0h0s0,0,0,0h0s0,0,0,0h0s0,0-.1,0h-.1c0,0-.1,0-.2,0h-1.3s0,0,0,0h0s0,0,0,0h0s0,0,0,0h0s0,0,0,0h0s0,0,0,0h0s0,0,0,0h0s0,0,0,0h0c0,0-.1,0-.2,0,0,0-.2-.1-.3-.2h0c0,0,0,0-.1,0h-.1c0,0,0,0,0,0,0,0-.1-.1-.2-.2,0,0-.1,0-.2-.2,0,0,0-.1-.2-.2h0s0,0,0,0h0s0,0,0,0h0s0,0,0,0c0-.1-.2-.3-.2-.5h0c0,0,0-.2,0-.2h0s0,0,0,0h0c0,0,0-.1,0-.1h0c0,0,0-.2,0-.2h0c0-.1,0-.3,0-.3v-.2c0-1.7,0-3.4,0-5.1,0,0,0-.2,0-.2h0c0,0,0-.1,0-.1h0c0,0-.1-.2-.2-.2,0,0,0,0-.1,0h0s0,0,0,0h0s0,0,0,0h0s0,0,0,0h0s0,0,0,0h0s0,0,0-.1c0-.3,0-.7,0-1h-.2Z"/>
  <path class="st6" d="M52.4,12.6h.2c0,0,.1,0,.2,0h.2s0,0,0,0h0s0,0,0,0h0s0,0,0,0h0s0,0,0,0h0s0,0,0,0h0s0,0,0,0h0c0,0,.2.1.3.2,0,0,0,0,.1,0h0c0,0,0,0,0,0h0c0,0,0,.1,0,.1l.3.3s0,0,0,0h0c0,.1,0,.2,0,.2,0,0,0,0,0,0h0c0,0,0,.2,0,.2h0c0,.2,0,.4,0,.5h0c0,.1,0,.2,0,.2h0c0,0,0,.2,0,.2h0c0,.2,0,.3,0,.3v.6c0,0,0,.1,0,.2h0c0,.1,0,.2,0,.2h0c0,0,0,.2,0,.2h0c0,0,0,.1,0,.1,0,.1,0,.2,0,.3h0c0,.1,0,.2,0,.3h0c0,0,0,.2,0,.2h0c0,0,0,.2,0,.2,0,0,0,0,0,0l-.3.3s0,0,0,0h0c0,0,0,0,0,0h0c0,0,0,0,0,0h0c0,.1-.2.2-.3.2h0s0,0,0,0h0s0,0,0,0h0s0,0,0,0h0s0,0,0,0h0s0,0,0,0h0s0,0,0,0h0s0,0-.1,0h-.1c0,0-.2,0-.3,0-.6,0-1.2,0-1.8,0v1.9s0,0,0,0h0c0,.2,0,.2.1.2s0,0,.1,0h0s0,0,0,0h0s0,0,0,0h0s0,0,0,0h0s0,0,.1,0h0s0,0,0,0v1.1h-4.2v-1.1h0s0,0,0,0h0s0,0,0,0h0s0,0,0,0h0c0,0,.2,0,.2,0h0c0,0,0,0,0-.1h0c0-.1,0-.2,0-.3,0,0,0,0,0-.1v-6.3s0,0,0-.1c0,0,0-.2,0-.3h0c0,0,0,0,0,0,0,0,0,0,0,0h0s0,0,0,0h0s0,0,0,0h0s0,0,0,0h0s0,0,0,0h0v-1.1c1.6,0,3.2,0,4.7,0h0ZM50.7,14s0,0,0,0v3.6s0,0,0,0h1.5c1.8,0,2.1-3.1.5-3.6,0,0-.3,0-.4,0,0,0-1.6,0-1.6,0Z"/>
  <path class="st6" d="M71,12.5h.9c0,0,.1,0,.2,0h.2s0,0,0,0h0s0,0,0,0h0s0,0,0,0h0c0,0,.1,0,.2,0h0s0,0,0,0h0s0,0,0,0h0c0,0,.1,0,.2,0h0c0,0,.1,0,.2,0h.1c0,.1.2.2.3.2,0,0,0,0,0,0,0,0,0,0,0,0,0,0,0,.1,0,.2v.2c0,0,0,.1,0,.2v.2c0,0,0,.1,0,.2v.2c0,0,0,.1,0,.2v.2c0,0,0,.1,0,.2v.2c0,0,0,.1,0,.2v.2h0c0,0-1.3,0-1.3,0h0c0-.1,0-.2,0-.2h0c0,0,0-.2,0-.2h0c0,0,0-.2,0-.2h0c0,0,0-.2,0-.2h0c0,0,0-.2,0-.2h0c0,0,0-.2,0-.2h0c0,0,0-.2,0-.2h0c0-.1,0-.2,0-.2-.1,0-.2,0-.4,0h0s0,0,0,0h0s0,0,0,0h0s0,0,0,0h0s0,0,0,0c0,0-.2,0-.2,0h-.2c0,0-.2,0-.2,0h-.2s0,0,0,0h0c-.1,0-.2,0-.3.1,0,0,0,0,0,0,0,0,0,0,0,0h0c0,0,0,0,0,0-.1,0-.2.2-.3.3,0,0,0,0,0,0h0c0,.1,0,.2,0,.2,0,0,0,.2,0,.2h0c0,.2,0,.3,0,.4h0c0,.1,0,.2,0,.2h0c0,0,0,.1,0,.1h0c0,0,0,.2,0,.2h0c0,0,0,.2,0,.2v.2c0,0,0,.1,0,.2v.2c0,0,0,.3,0,.4v.5c0,.1,0,.3,0,.3v.2h0v.3h0v.2h0c0,.1,0,.2,0,.2h0s0,0,0,0h0c0,0,0,.1,0,.1h0s0,0,0,0h0s0,0,0,0c0,0,0,.1,0,.2h0c0,0,0,.1,0,.2,0,0,0,.1,0,.1h0s0,0,0,0h0s0,0,0,0h0c0,0,0,.2.2.2,0,0,0,0,.1.1,0,0,0,0,.1.1,0,0,0,0,0,0h0c0,0,0,0,0,0,0,0,0,0,.1,0,0,0,.1,0,.2,0h0s0,0,0,0h0s0,0,0,0h0s0,0,0,0h0s0,0,0,0h0s0,0,0,0h.1c0,0,.1,0,.2,0,0,0,.3,0,.4,0h.4s0,0,0,0h0s0,0,0,0h0s0,0,0,0h0s0,0,0,0h0s0,0,0,0h0s0,0,0,0h0c.2,0,.3-.1.4-.2h0s0,0,0,0h0s.1,0,.1,0h0c0,0,0,.2,0,.2h0c0,0,0,.2,0,.2h0c0,0,0,.2,0,.2h0c0,0,0,.2,0,.2h0c0,0,0,.2,0,.2h0c0,0,0,.2,0,.2h0c0,0,0,.2,0,.2h0v.2h0s0,0,0,0c0,0-.1,0-.2,0h0s0,0,0,0h0c-.1,0-.3.1-.4.2h0s0,0,0,0h0s0,0,0,0h0s0,0,0,0h0s0,0,0,0h0s0,0,0,0h0s0,0,0,0h0s0,0,0,0c0,0-.1,0-.2,0h-.2c0,0-.2,0-.2,0h-.7c0,0-.2,0-.2,0h-.2s0,0,0,0h0s0,0,0,0h0s0,0,0,0h0c-.1,0-.3-.1-.4-.2h0c-.1,0-.3-.2-.4-.2h0c0,0,0,0,0,0h0c0,0,0,0,0,0h0c0,0,0,0,0,0,0,0,0,0-.1-.1,0,0,0,0-.1,0h0c0,0,0-.2,0-.2,0,0,0-.1-.1-.1,0,0,0,0,0,0h0c0-.2,0-.2-.1-.3h0s0,0,0,0c0,0,0-.1,0-.2,0,0,0-.1,0-.2,0,0,0-.2,0-.2h0c0-.2,0-.4-.1-.5h0c0-.1,0-.2,0-.2h0c0,0,0-.1,0-.1h0c0,0,0-.2,0-.2h0c0,0,0-.2,0-.2h0c0-.1,0-.2,0-.2h0c0-.2,0-.3,0-.3v-1.6c0,0,0-.1,0-.2v-.2h0v-.2h0v-.2h0v-.2h0v-.2h0c0-.1,0-.2,0-.2h0c0-.2,0-.3,0-.4h0c0,0,0-.1,0-.2h0c0-.2.1-.4.2-.5h0c0,0,0-.2,0-.2h0c0,0,0-.2,0-.2h0s0-.1,0-.1h0c0,0,0-.1.1-.2,0,0,0,0,0,0l.2-.2s0,0,0,0c0,0,.1,0,.1-.1,0,0,0,0,0,0h0c0,0,0,0,0,0h0c0,0,0,0,0,0h0c0,0,0,0,0,0,0,0,.1,0,.1,0,0,0,0,0,0,0h.1c0,0,.2-.1.3-.2h0s0,0,0,0h0s.1,0,.2,0h0s0,0,0,0h0s0,0,0,0h0s0,0,0,0h0s0,0,.1,0,.2,0,.2,0h.3,0Z"/>
  <path class="st4" d="M24.5,30.2s.2,0,.2,0h.1c0,0,0,.1.2.1h0s0,0,0,0h0s0,0,0,0h0s0,0,0,0h0c0,0,.2,0,.3.1h0s0,0,0,0h0s0,0,0,0h0s0,0,0,0h0c0,0,.2,0,.2,0h0s0,0,0,0h0s0,0,0,0h0s0,0,0,0h0s0,0,0,0h0s0,0,0,0h0s0,0,0,0h0s0,0,0,0h0s0,0,0,0h0s0,0,0,0h0s0,0,0,0h0s0,0,0,0h0s0,0,0,0h.1s0,0,.1,0c0,0,.1,0,.2,0h.2c0,0,.2,0,.2,0h.6c0,0,.2,0,.2,0h.3s0,0,.2,0h0s0,0,.1,0h0s0,0,0,0h0s0,0,0,0h0s0,0,0,0h0s0,0,0,0h0s0,0,0,0h0s0,0,0,0h0s0,0,0,0h0s0,0,0,0h0s0,0,0,0h0s0,0,0,0h0s0,0,.2,0h0s0,0,0,0h0c.1,0,.3-.1.4-.2h0s0,0,0,0h0c0,0,.1,0,.2,0h0s0,0,0,0h0s0,0,0,0h0s0,0,.2,0h0c0,0,.1,0,.2-.1h.1c0,0,0,0,0,0s0,0,0,0,0,0,0,0h0c0,0,0,.1,0,.2h0c0,0,0,.2,0,.2,0,0,0,0,0,0h0c0,.1,0,.2,0,.2h0c0,.1,0,.2,0,.2h0c0,.1,0,.2,0,.2h0c0,.1,0,.2,0,.2h0c0,0,0,.1,0,.2h0c0,0,0,.2,0,.2,0,0,0,0,0,0h0c0,.1,0,.2,0,.2h0c0,.1,0,.2,0,.2h0c0,.1,0,.2,0,.2h0v.2c-.2,0-.4.2-.6.3h-.1c0,0,0,.1-.2.1h0s0,0,0,0h0c0,0-.1,0-.2,0h0c0,0-.2,0-.3.1h0s0,0,0,0h0c0,0-.2,0-.2,0h0s0,0,0,0h0s0,0,0,0h0s0,0,0,0h0s0,0,0,0h0s0,0,0,0h0s0,0,0,0h0s0,0,0,0h0s0,0,0,0h0s0,0,0,0h0s0,0,0,0h0s0,0,0,0h0s0,0,0,0h0s0,0,0,0h-.1s0,0,0,0h-.1s0,0-.1,0h-.1s0,0-.2,0-.1,0-.2,0h-.2c0,0-.2,0-.3,0h-1.2c0,0-.2,0-.2,0h-.2c0,0-.1,0-.2,0h-.1c0,0-.1,0-.2,0h-.2s0,0-.1,0h0s0,0,0,0h0s0,0,0,0h0s0,0,0,0h0s0,0,0,0h0s0,0,0,0h0s0,0,0,0h0s0,0,0,0h0s0,0,0,0h0s0,0,0,0h0s0,0,0,0h0s0,0,0,0h0s0,0,0,0h0s0,0,0,0h0s0,0,0,0h0s0,0,0,0h0c0,0-.2,0-.3-.1h0s0,0,0,0h0c0,0-.1,0-.2,0h0s0,0,0,0h0s-.1,0-.2,0h0c0,0-.1,0-.2-.1h0c-.1,0-.3-.2-.4-.2h0c0-.1,0-.2,0-.2h0c0-.1,0-.2,0-.2h0c0-.1,0-.2,0-.2h0c0-.1,0-.2,0-.2h0c0,0,0-.1,0-.2h0c0,0,0-.2,0-.2,0,0,0,0,0,0h0c0-.1,0-.2,0-.2h0c0-.1,0-.2,0-.2h0c0-.1,0-.2,0-.2h0c0-.1,0-.2,0-.2h0c0,0,0-.1,0-.2h0c0,0,0-.2,0-.2,0,0,0,0,0,0h0-.1ZM32.7,31.6s0-.3,0-.3c-.3,0-.7.2-1,.3,0,0,0,0,0,.1,0,.3.3,1,.4,1.3,0,0,0,.2.1.2,0,0,.8-.3,1-.3,0,0,0-.3-.1-.3,0,0-.6.2-.7.2,0,0-.1-.3,0-.4,0,0,.6-.1.6-.2,0,0,0-.2-.1-.2s-.6.2-.6.2v-.4s.5-.2.6-.2h0ZM26,32.9c-.5,0-.6-.3-.5-.7,0-.3.3-.5.6-.4.2,0,.3.3.5,0,.1-.2-.4-.4-.6-.4-.5,0-.8.3-.9.8,0,.4,0,.7.5.9.2,0,.6.2.7,0,0,0,.2-.7.2-.7,0,0-.5-.2-.6-.2,0,0,0,.2,0,.3,0,0,.2,0,.2,0,0,0,0,.2,0,.3h0ZM29.9,31.9l.8,1.5c0,0,.3,0,.3,0,0,0,.3-1.5.3-1.7,0,0-.3,0-.3,0l-.2,1.2c0,0,0,0,0,0-.2-.3-.3-.7-.5-1-.1,0-.2,0-.4,0h0ZM27.8,32.7c.4,0,.5-.6.2-.8s-.6-.2-.8-.2c0,0,0,0,0,0,0,0-.2,1.5-.2,1.7,0,0,.3,0,.3,0s0-.5,0-.6c.5,0,.3.5.5.7,0,0,.3,0,.4,0,0-.3,0-.7-.3-.9ZM29.5,33.3c0,.3.1.5.5.3l-.5-1.6c0-.1-.4-.1-.4,0-.2.5-.4,1.1-.5,1.6,0,0,.3,0,.3,0,0,0,0-.3.1-.3,0,0,.5,0,.6,0h0Z"/>
  <path class="st4" d="M40.1,19.7h.6s.1,0,.2,0h0s.1,0,.2,0h0c0,0,0,0,0,0h0c0,0,0,0,0,0h0c0,0,0,.1,0,.1h.1c0,.1,0,.2,0,.2h0c0,.1,0,.2,0,.2h0s0,0,0,0c0,0,0,.1,0,.2h0c0,.1,0,.2,0,.3h0v.2h0v.5h0v.2h0c0,.2,0,.2,0,.2h.1s0,0,0,0h0s0,0,0,0h0c0,0,.2,0,.2.1h0c0,0,0,0,0,0h0c0,0,0,0,0,0l.3.3h0s0,0,0,0h0s0,0,0,0c0,.1.1.3.2.4h0c0,0,0,.2,0,.3v.5h0c0,.1,0,.2,0,.2h0c0,0,0,.1,0,.1h0s0,0,0,0c0,0,0,0,0,0h0c0,.1,0,.2,0,.2h0s0,0,0,0h0s0,0,0,0c0,0,0,0,0,0l-.2.2s0,0,0,0h0c0,0,0,0,0,0h0c0,.1-.3.2-.4.2h0s0,0,0,0h0s0,0,0,0h-.1c-.1,0-.3,0-.4,0h-.1s0,0,0,0h0s0,0,0,0h0s0,0,0,0h0c0,0-.2-.1-.3-.2h0c0,0,0,0,0,0h0c0,0,0,0,0,0l-.2-.2s0,0,0,0c0,0-.1.1-.2.2h0c0,0,0,0,0,0h0c0,0,0,0,0,0h0c0,0-.1.1-.2.1h0s0,0,0,0h0s0,0,0,0h0s0,0,0,0h-.1c-.1,0-.3,0-.4,0h-.1s0,0,0,0h0s0,0,0,0h0s0,0,0,0h0s-.1,0-.2,0h0c0,0,0,0,0,0h0c0,0,0,0,0,0,0,0,0,0-.1-.1,0,0,0,0-.1-.1,0,0,0,0-.1-.1h0s0,0,0,0h0s0,0,0,0c0,0,0-.2-.1-.3h0c0-.1,0-.2,0-.2h0c0,0,0-.2,0-.2v-.5h0v-.2h0c0,0,0-.2,0-.2h0s0,0,0,0c0,0,0-.1,0-.2,0,0,0,0,0-.1h0c0,0,0-.1.1-.2,0,0,0,0,0,0h0c0,0,0-.1,0-.2,0,0,0,0,.1-.1,0,0,0,0,0,0,0,0-.1,0-.2,0h0c0,0-.1-.1-.2-.1,0,0,0,0-.1,0,0,0-.1,0-.2,0,0,0,0,0-.1,0,0,0-.1,0-.2,0h0c0,0,0,0,0,0h0v-1.2s0,0,.1,0h0c0,0,.1.1.2.1,0,0,0,0,.1,0,0,0,.1,0,.2,0h0c0,0,.1.1.2.1,0,0,0,0,.1,0,0,0,.1,0,.2,0,0,0,0,0,.1,0,0,0,.1,0,.2,0h0c0,0,0,.1.2.1h.1c0,0,0,0,0,0h0c0-.1,0-.2,0-.2h0c0,0,0-.1,0-.1h0s0,0,0,0h0s0,0,0,0c0,0,0-.2,0-.2h0c0,0,0-.2,0-.2,0,0,0,0,0,0l.3-.3s0,0,0,0h0c0,0,0,0,0,0h0c0,0,.2-.1.2-.2h0s0,0,.1,0h0s0,0,0,0c0,0,0,0,0,0h.1ZM40.1,20.7c-1,.1-.9,1.7.3,1.6,1-.1.8-1.7-.3-1.6ZM41,24.3c.7.7,1.9-.4,1.2-1.1s-1.9.4-1.2,1.1ZM38.9,23c-1,0-1,1.8.2,1.6.9-.1.8-1.7-.2-1.6Z"/>
  <path class="st6" d="M17.8,19.7h.6c0,0,.1,0,.2,0h0s.1,0,.2,0h0c0,0,0,0,0,0h0c0,0,0,0,0,0h0c0,0,0,.1,0,.1h.1c0,.1,0,.2,0,.2h0c0,.1,0,.2,0,.2h0s0,0,0,0c0,0,0,.1,0,.2h0c0,.1,0,.2,0,.3h0v.2h0v.2s0,0,.1,0c0,0,0,0,.1,0,0,0,0,0,.2,0,0,0,0,0,.1,0,0,0,0,0,.2,0h0c0,0,0,0,.2-.1,0,0,0,0,.1,0,0,0,0,0,.2,0,0,0,0,0,.1,0,0,0,0,0,.2,0h0c0,0,0,0,.2-.1,0,0,0,0,0,0,0,.3,0,.8,0,1.1,0,0,0,0,0,.1,0,0,0,0-.2,0,0,0,0,0-.1,0,0,0,0,0-.2,0h0c0,0,0,0-.2.1,0,0,0,0-.1,0,0,0,0,0-.2,0,0,0,0,0-.1,0h0s0,0,0,0c0,0,0,0,0,0h0l.3.3s0,0,0,0h0c0,0,0,.2,0,.2,0,.1.2.3.2.5h0v.7h0c0,0,0,.2,0,.2h0c0,0,0,.1,0,.1,0,0,0,0,0,.1h0c0,0,0,.2,0,.2,0,0,0,0,0,.1h0s0,.1,0,.1h0s-.2.3-.2.3h0s0,0,0,0h0c0,0-.2.2-.3.2h0s0,0,0,0h0s0,0,0,0h0s0,0,0,0h0c-.1,0-.3,0-.5,0h0s0,0,0,0h0s0,0,0,0h0s0,0,0,0h0c0,0-.2-.1-.3-.2h0c0,0,0,0,0,0h0c0,0,0,0,0,0l-.2-.2s0,0,0,0c0,0,0,0-.1,0,0,0,0,0-.1.1h0c0,0,0,0,0,0,0,0,0,0-.1,0h-.2c0,0-.1.1-.2.1h0s0,0,0,0h-.1c-.1,0-.3,0-.4,0h-.1s0,0,0,0h0s0,0,0,0h0c0,0-.1,0-.2,0,0,0,0,0-.2,0,0,0,0,0,0,0h0c0,0,0,0,0,0l-.3-.3h0s0,0,0,0h0c0,0,0-.1,0-.2,0,0,0,0,0,0h0c0-.1,0-.2,0-.3h0c0-.1,0-.2,0-.2v-.5h0v-.2h0c0-.1,0-.2,0-.2h0s0,0,0,0c0,0,0-.2.1-.3h0c0,0,0-.2,0-.2,0,0,0,0,0,0l.2-.2h0s0-.1,0-.1h0c.1-.1.3-.2.5-.2h0s0,0,0,0h0c0,0,0-.1,0-.1h0c0,0,0-.2,0-.2h0v-.5h0c0-.1,0-.2,0-.2h0c0,0,0-.1,0-.1h0s0,0,0,0h0s0,0,0,0c0,0,0-.2,0-.2h0c0,0,0-.2,0-.2,0,0,0,0,0,0l.3-.3h0s0,0,0,0h0c0,0,.2-.1.2-.2h0s0,0,.1,0h0s0,0,0,0c0,0,0,0,0,0h.1,0ZM17.8,20.7c-1,.2-.8,1.8.3,1.6,1-.2.8-1.8-.3-1.6ZM16.5,23c-1,.2-.8,1.6.1,1.6,1.1,0,1-1.8-.1-1.6ZM19.2,23c-1.2.2-.7,2,.5,1.5.8-.4.5-1.7-.5-1.5Z"/>
  <path class="st4" d="M39,27c.1,0,.2,0,.3.2,0,0,.1,0,.2.1,0,0,.2,0,.3.1,0,0,.1,0,.2.1.1,0,.2,0,.3.2,0,0,0,0,.1,0,.1,0,.2,0,.3.2,0,0,.1,0,.2.1,0,0,.2,0,.3.1,0,0,0,0,0,0,0,0-.1.4-.2.4h0c0,.3-.2.5-.3.7,0,0,0,0,0,.1,0,0,0,0,0,0,0,0,0,0,0,.1,0,0,0,0,0,0h0c0,0,0,.2,0,.2,0,0,0,0,0,0h0c0,0,0,.2,0,.2h0s0,0,0,0h0s0,0,0,0h0s0,.1,0,.1h0s0,0,0,0h0s0,.1,0,.1h0s0,.1,0,.1h0s0,.1,0,.1h0c0,0,0,.1-.1.2h0c0,0,0,.1-.1.2,0,0,0,0,0,0,0,0-.1,0-.2.2,0,0,0,0,0,0,0,0-.1.1-.2.2,0,0,0,0,0,0l-.8.8s0,0-.1,0c0,0-.1.1-.2.2,0,0,0,0,0,0,0,0-.1,0-.2.2h0c0,0,0,0-.1.1,0,0,0,0,0,0h0c0,0,0,0,0,0h0c0,0,0,.1,0,.1h0c0,0,0,0,0,0h0c0,0,0,0,0,0h0c0,0,0,0,0,0h0c0,0,0,0,0,0h0c0,0,0,0,0,0h0c0,0,0,0,0,0h0c0,0,0,0,0,0h0c0,0,0,0,0,0h0c0,0,0,0,0,0,0,0,0,0-.1,0,0,0,0,0,0,0h0c0,.1-.2.2-.3.2h0c0,0,0-.1,0-.2h0c0,0,0-.1,0-.2h0c0,0,0-.1,0-.2h0c0,0,0-.1,0-.2h0c0,0,0-.1,0-.2h0c0,0,0-.1,0-.2h0c0-.3-.2-.5-.2-.7h0c0,0,0-.1,0-.2h0c0,0,0-.1,0-.2h0c0,0,0-.1,0-.2h0c0,0,0-.1,0-.2h0c0,0,0-.1,0-.2h0c0,0,0-.1,0-.2h0c0,0,0-.2,0-.2,0,0,0,0,0,0,0,0,0,0,.2,0,0,0,0,0,.1,0h0c0,0,0,0,0,0h0c0,0,0,0,0,0h0c0,0,0,0,0,0h0c0,0,0,0,0,0h0c0,0,0,0,0,0h0c0,0,0,0,0,0h0c0,0,0,0,0,0h0c0,0,0,0,0,0,0,0,0,0,.1-.1h0c0,0,0,0,.1-.1,0,0,0,0,0,0,0,0,.1-.1.2-.2,0,0,0,0,0,0,.2-.2.4-.3.5-.5,0,0,0,0,0,0,0,0,.1-.1.2-.2,0,0,0,0,0,0,0,0,0,0,.1-.1,0,0,0,0,0,0h0c0,0,0-.1,0-.2h0c0-.1,0-.2,0-.2,0,0,0,0,0,0h0c0,0,0-.2,0-.2h0s0-.1,0-.1h0s0,0,0,0c0,0,0,0,0,0h0c0,0,0-.2,0-.2h0c0,0,0-.1,0-.2h0c0,0,0-.1,0-.2,0,0,0,0,0,0,0,0,0,0,0-.1,0,0,0-.1,0-.2.1,0,.2-.3.2-.4,0,0,0-.2,0-.2,0,0,0,0,.1,0h0ZM38.3,29s-.2.3-.1.3l1.3.9c0,0,.6-.7.6-.7,0,0-.2-.2-.2-.2,0,0-.3.5-.3.5-.2,0-1.1-.8-1.1-.8h0ZM37.6,30l1.2,1c0,0,.3-.2.2-.3l-1.2-1c-.1,0-.3.2-.3.3ZM36.9,31.5l1.2.3c.2,0,.3-.2.2-.3s-.5-.6-.7-.8c-.2-.2-.4-.5-.6-.1l.7.7c-.3,0-1-.3-1.2-.3,0,0-.2.2-.2.2,0,0,1,1,1.1,1.2.1,0,.4-.1.3-.3,0,0-.7-.7-.6-.7h0Z"/>
  <path class="st4" d="M19.4,26.9c0,0,0,.2,0,.2,0,.2.1.3.2.5,0,0,0,.1,0,.2,0,0,0,0,0,.1,0,0,0,0,0,0h0c0,0,0,.1,0,.2h0c0,0,0,.1,0,.2h0c0,0,0,.2,0,.2h0s0,0,0,0h0s0,0,0,0h0s0,0,0,0h0s0,.1,0,.1h0s0,0,0,0h0s0,.1,0,.1c0,0,0,0,0,0h0c0,.2,0,.2.1.2h0c0,0,0,.2.2.2,0,0,0,0,0,0,0,.1.2.2.3.3,0,0,.2.2.3.3,0,.1.2.2.3.3,0,0,0,0,0,0,0,0,0,.1.2.2h0c0,0,0,0,.1.1h.1c0,0,0,0,0,0h0c0,0,0,0,0,0h0c0,0,0,0,0,0h0c0,0,0,0,0,0h0c0,0,0,0,0,0h0c0,0,0,0,0,0h0c0,0,0,0,0,0h0c0,0,0,0,0,0h0c0,0,0,0,0,0,0,0,0,0,.1,0,0,0,0,0,0,0h0c0,.3-.2.5-.2.7h0c0,0,0,.1,0,.2h0c0,0,0,.1,0,.2h0c0,0,0,.1,0,.2h0c0,0,0,.1,0,.2h0c0,0,0,.1,0,.2h0c0,0,0,.1,0,.2h0c0,0,0,.1,0,.2h0c0,0,0,.1,0,.2h0c0,0,0,.1,0,.2h0c0,0,0,.1,0,.2h0c0,0,0,.1,0,.2h0c0,.2,0,.2,0,.3,0,0-.2,0-.2,0,0,0,0,0-.1,0,0,0-.1,0-.2,0h0c0,0,0,0,0,0h0c0,0,0,0,0,0h0c0,0,0,0,0,0h0c0,0,0,0,0,0h0c0,0,0,0,0,0h0c0,0,0,0,0,0h0c0,0,0,0,0,0h0c0,0,0,0,0,0h0c0,0,0,0,0,0h0c0,0,0,0,0,0h0c0,0,0,0,0,0h0c0,0,0-.1,0-.1h0c0,0,0-.1,0-.1,0,0,0,0-.1-.1h0c0,0,0-.1-.2-.2,0,0,0,0,0,0,0,0-.2-.2-.2-.2,0,0-.2-.1-.2-.2l-.2-.2s0-.1-.2-.2c0,0-.2-.2-.3-.3,0,0,0,0,0,0,0,0,0-.1-.2-.2,0,0,0,0,0,0,0,0,0,0-.1-.1,0,0,0,0,0,0h0c0,0,0-.1,0-.2h0c0-.1,0-.2,0-.2h0s0-.1,0-.1h0s0-.1,0-.1h0s0,0,0,0h0s0,0,0,0h0s0,0,0,0h0s0,0,0,0h0s0,0,0,0h0s0,0,0,0h0s0,0,0,0c0,0,0,0,0,0h0c0,0,0-.1,0-.2h0c0,0,0-.2,0-.2h0c-.1-.3-.2-.5-.3-.7h0c0,0,0-.2,0-.2h0c0,0,0-.1,0-.2h0c0,0,0-.2,0-.2,0,0,0,0,0,0,0,0,.2,0,.2-.1.1,0,.2,0,.3-.2,0,0,0,0,.1,0,.1,0,.2,0,.3-.2,0,0,0,0,.1,0,.1,0,.2,0,.3-.2,0,0,.2,0,.2-.1,0,0,.2,0,.3-.1s.2,0,.2-.1c0,0,.1,0,.2,0s0,0,0,0h0ZM19.7,28.6s0,0-.1,0c-.2,0-1.6.4-1.6.4,0,0,0,.2.1.3.1,0,.3,0,.4,0s.3.4.3.4c0,.1-.2.2-.2.3s.2.3.2.2l1-1.3c0,0,0-.3-.1-.3h0ZM19.1,30.6s0,.1,0,.2c0,0,.4.5.5.6s0,0,.2,0c.4-.2-.3-.5-.2-.6.3-.3.6-.5.9-.7,0,0,.1,0,0-.2,0,0-.2-.2-.2-.2,0,0-1.2,1-1.2,1ZM21.2,30.5c-.1,0-1,1-1.2,1.1,0,0,.2.3.3.2l1.1-1.1c0,0-.2-.3-.2-.3h0ZM22.2,31.8c0,0,.3,0,.2-.2-.3-.6-1.2-.5-1.1.2,0,.2.3.4.2.6-.1.2-.4,0-.4-.2,0-.1,0-.2-.2-.1-.3,0,.1.6.3.7.4.2.9-.2.7-.6,0-.1-.4-.6,0-.6.2,0,.3.3.3.3h0Z"/>
  <path class="st6" d="M40.9,9.5h.2c0,0,.2,0,.2,0h0c0,0,0,0,0,0h0c0,.2,0,.4,0,.5h0c0,0,0,.2,0,.2h0c0,0,0,.1,0,.2h-.1c0,0-.1.1-.2.2h0c0,0,0,0,0,0,0,0,0,0,0,.1h0c0,0,0,.2,0,.2,0,0,0,0,0,.1,0,0,0,0,0,.2h0c0,0,0,.2,0,.2,0,0,0,0,0,.1,0,0,0,0,0,.2,0,0,0,0,0,.1,0,0,0,0,0,.2h0c0,0,0,.2,0,.2,0,0,0,0,0,.1,0,0,0,0,0,.2,0,0,0,0,0,.1,0,0,0,0,0,.2h0c0,0,0,.2,0,.2,0,0,0,0,0,.1,0,.1.2.3,0,.5h0c0,0-.1.1-.2.2s0,0-.1,0c0,0,0,0-.2,0h0c0,0,0,0-.2.1,0,0,0,0-.1,0,0,0,0,0-.2,0,0,0,0,0-.1,0,0,0,0,0,0,0h0c0,0,0-.2,0-.2h0c0,0,0-.2,0-.2,0,0,0,0,0-.1,0,0,0,0,0-.2,0,0,0,0,0-.1,0,0,0,0,0-.2h0c0,0,0-.2,0-.2,0,0,0,0,0-.1,0,0,0,0,0-.2,0,0,0,0,0-.1,0-.1,0,0,0-.1h0c0,0,0,0,.2-.1,0,0,0,0,.1,0,0,0,.1,0,.2,0h0c0,0,0-.2,0-.2,0,0,0,0,0-.2,0,0,0,0,0-.1,0,0,0,0,0,0h0c0,0,0,0-.2.1,0,0,0,0-.1,0,0,0-.1,0-.2,0,0,0-.1,0-.2,0h0c0,0,0-.1,0-.2,0,0,0,0,0-.2h0c0,0,0-.2,0-.2,0-.1,0-.2-.2,0,0,0,0,0-.2,0,0,0,0,0-.1,0h0c0,0,0,0,0,.2,0,0,0,0,0,.2h0c0,0,0,.2,0,.2,0,0,0,0,0,.1,0,0,0,0,0,0h0c0,0,0,0,0,0,0,0,0,0-.1,0,0,0,0,0-.2,0h0c0,0-.1,0-.2.1,0,0,0,.1,0,.2,0,0,0,0,0,.2h0c0,0,0,.1,0,.2h0s0,0,0,0c0,0,.1,0,.2,0s0,0,.1,0c0,0,0,0,.2,0h0c0,0,0,0,0,0h0c0,0,0,.1,0,.2,0,0,0,0,0,.2,0,0,0,0,0,.1,0,0,0,0,0,.2h0c0,0,0,.2,0,.2,0,0,0,0,0,.1,0,0,0,0,0,.2,0,0,0,0,0,.1,0,0,0,0,0,.2h0c0,0,0,.2,0,.2h0c0,.1,0,.1,0,.1,0,0,0,0-.1,0,0,0,0,0-.2,0h0c0,0,0,0-.2.1,0,0,0,0-.1,0,0,0,0,0-.2,0,0,0,0,0-.1,0,0,0,0,0-.2,0h0c0,0-.1,0-.2,0h0c0,0,0,0,0,0h0c0-.1,0-.2,0-.2,0,0,0,0,0-.2,0,0,0,0,0-.1,0,0,0,0,0-.2h0c0,0,0-.2,0-.2,0,0,0,0,0-.1,0,0,0,0,0-.2,0,0,0,0,0-.1,0,0,0,0,0-.2h0c0,0,0-.2,0-.2,0,0,0,0,0-.1,0,0,0,0,0-.2,0,0,0,0,0-.1,0,0,0,0,0-.2h0c0,0,0-.2,0-.2,0,0,0,0,0-.1,0,0,0-.1,0-.2h0s0,0,0,0c0,0-.1,0-.2,0s0,0-.1,0c0,0,0,0,0,0,0,0,0,0-.1,0,0,0,0,0-.2,0h0c0,0,0,0-.2.1,0,0,0,0-.1,0,0,0,0,0-.2,0h0c0,0,0,0,0,0-.5,0-1.5,0-2,0,0,0,0,0,0,0,0,0,0,0,.2,0,0,0,0,0,.1,0,0,0,0,0,.2,0h0c0,0,0,0,.2-.1,0,0,0,0,.1,0,0,0,0,0,.2,0h0c0,0,0,0,.2-.1,0,0,0,0,.1,0,0,0,0,0,.2,0,0,0,0,0,.1,0,0,0,0,0,.2,0h0c0,0,0,0,.2-.1,0,0,0,0,.1,0,0,0,0,0,.2,0h0c0,0,0,0,.2-.1,0,0,0,0,.1,0,0,0,0,0,.2,0h0c0,0,0,0,.2-.1,0,0,0,0,.1,0,0,0,0,0,.2,0,0,0,0,0,.1,0,0,0,0,0,0,0,0,0,0,0,.1,0,0,0,0,0,.2,0,0,0,0,0,.1,0,0,0,0,0,.2,0h0c0,0,0,0,.2-.1,0,0,0,0,.1,0,0,0,0,0,.2,0h0c0,0,0,0,.2-.1,0,0,0,0,.1,0,0,0,0,0,.2,0,0,0,0,0,.1,0,0,0,0,0,0,0,0,0,0,0,.1,0,0,0,0,0,.2,0,0,0,0,0,.1,0,0,0,0,0,.2,0h0c0,0,0,0,.2-.1,0,0,0,0,.1,0,0,0,0,0,.2,0h0c0-.1.2-.2.3-.2h0Z"/>
  <path class="st4" d="M17.1,9.5h.2c0,0,.2,0,.3,0,0,0,0,0,.1,0,0,0,.1,0,.2,0h0c0,0,.1.1.2.1,0,0,0,0,.1,0,0,0,.1,0,.2,0,0,0,0,0,.1,0,0,0,0,0,0,0,0,0,0,0,.1,0,0,0,.1,0,.2,0,0,0,0,0,.1,0,0,0,.1,0,.2,0h0c0,0,.1.1.2.1,0,0,0,0,.1,0,0,0,.1,0,.2,0h0c0,0,.1.1.2.1,0,0,0,0,.1,0,0,0,.1,0,.2,0,0,0,0,0,.1,0,0,0,0,0,0,0,0,0,0,0,.1,0,0,0,.1,0,.2,0,0,0,0,0,.1,0,0,0,.1,0,.2,0h0c0,0,.1.1.2.1,0,0,0,0,.1,0,0,0,.1,0,.2,0h0c0,0,.1.1.2.1,0,0,0,0,.1,0,0,0,.1,0,.2,0h0c0,0,.1.1.2.1,0,0,0,0,.1,0,0,0,.1,0,.2,0,0,0,0,0,.1,0,0,0,.1,0,.2,0h0c0,0,.1.1.2.1,0,0,0,0,.1,0,0,0,.1,0,.2,0h0c0,0,.1.1.2.1,0,0,0,0,.1,0,0,0,.1,0,.2,0h0c0,0,.1.1.2.1h0c0,0-2.1,0-2.1,0h0c0,0,0,0-.1,0,0,0-.1,0-.2,0h0c0,0-.1-.1-.2-.1,0,0,0,0-.1,0,0,0,0,0,0,0,0,0,0,0-.1,0,0,0-.1,0-.2,0h0c0,0,0-.1-.2-.1h0s0,0,0,0c0,0,0,0,0,0,0,0,0,0,0,.1,0,0,0,.1,0,.2,0,0,0,0,0,.1,0,0,0,.1,0,.2h0c0,0,0,.2,0,.2,0,0,0,0,0,.1,0,0,0,.1,0,.2,0,0,0,0,0,.1,0,0,0,.1,0,.2h0c0,0,0,.2,0,.2,0,0,0,0,0,.1,0,0,0,.1,0,.2,0,0,0,0,0,.1,0,0,0,.1,0,.2h0c0,0,0,.2,0,.2,0,0,0,0,0,.1,0,0,0,0,0,0h0c0,0,0,0,0,0h0c0,0-.1,0-.2,0,0,0,0,0-.2,0,0,0-.1,0-.2,0h0c0,0-.1-.1-.2-.1,0,0,0,0-.1,0,0,0-.1,0-.2,0,0,0,0,0-.1,0s-.1,0-.2,0h0c0,0,0,0,0-.1,0,0,0,0,0-.1,0,0,0-.1,0-.2h0c0,0,0-.2,0-.2,0,0,0,0,0-.1,0,0,0-.1,0-.2,0,0,0,0,0-.1,0,0,0-.1,0-.2h0c0,0,0-.2,0-.2,0,0,0,0,0-.1,0,0,0-.1,0-.2,0,0,0-.1.1,0h0c0,0,0,0,.1,0,0,0,.1,0,.2,0,0,0,0,0,.1,0s0,0,.2,0h0s0,0,0,0c0,0,0-.1,0-.2h0c0-.1,0-.2,0-.2,0,0,0,0,0,0,0,0-.1,0-.2,0,0,0,0,0-.1,0,0,0-.1,0-.2,0,0,0,0,0-.1,0h0c0,0,0-.2,0-.2h0c0,0,0-.2,0-.2,0,0,0,0,0-.1,0,0,0-.1,0-.2,0,0,0,0,0,0,0,0,0,0,0,0,0,0,0,0,0,0h0c0,0,0-.1-.2-.1h-.1c0,0,0,0,0,0,0,0,0,.1,0,.2h0c0,0,0,.2,0,.2,0,0,0,0,0,.1,0,0,0,0,0,0h0s0,0,0,0c0,0,0,0-.1,0,0,0-.1,0-.2,0h0c0,0-.1-.1-.2-.1,0,0,0,0,0,0,0,0,0,0-.1.2s0,.1,0,.2c0,0,0,0,0,.1h0s0,0,0,0c0,0,.1,0,.2,0h0c0,0,.1.1.2.1,0,0,0,0,.1,0h0c0,0,0,.1,0,.2,0,0,0,.1,0,.2,0,0,0,0,0,.1,0,0,0,.1,0,.2h0c0,0,0,.2,0,.2,0,0,0,0,0,.1,0,0,0,.1,0,.2,0,0,0,0,0,.1,0,0,0,.1,0,.2h0c0,0,0,.2,0,.2h0c0,.1-.1,0-.2,0h0c0,0-.1-.1-.2-.1,0,0,0,0-.1,0,0,0-.1,0-.2,0,0,0,0,0-.1,0,0,0-.1,0-.2,0h0c0,0-.1-.1-.2-.1h0c0-.1,0-.2,0-.3,0,0,0,0,0-.2s0-.1,0-.2h0c0,0,0-.2,0-.2,0,0,0,0,0-.1,0,0,0-.1,0-.2,0,0,0,0,0-.1,0,0,0-.1,0-.2h0c0,0,0-.2,0-.2,0,0,0,0,0-.1,0,0,0-.1,0-.2,0,0,0,0,0-.1,0,0,0-.1,0-.2h0c0,0,0-.2,0-.2,0,0,0,0,0-.1,0,0,0-.1,0-.2,0,0,0,0,0-.1,0,0,0-.1,0-.2h0c0,0,0-.1,0-.1h0s0,0-.1,0c0,0-.1,0-.2,0h0c0,0,0-.1,0-.2h0c0,0,0-.1,0-.2h0v-.3h0c0,0,0-.2,0-.2h0c0,0,0,0,0-.1h0c0,0,.2-.1.2-.1h0Z"/>
  <path class="st4" d="M26.4,5.5h0s0,0,0,0c0,0,0,.2,0,.2,0,0,.1.2.2.2h0c0,0,0,.1.2.1h0s0,0,0,0h0s0,0,0,0c0,0,.2,0,.3,0h.2s0,0,0,0h0s0,0,0,0h0c0,0,0,0,0,0,0,0,.1-.1.2-.2h0s0,0,0,0h0s0,0,0,0h0c0,0,0,.1.1.2,0,0,0,0,0,0h0c0,0,0,0,0,0h0c0,0,0,0,0,0h0s0,0,0,0h0s0,0,0,0c0,0,.2,0,.3,0h.1c.1,0,.2,0,.2-.1h0c0,0,0,0,0,0,0,0,0,0,.2-.2,0,0,0,0,0,0,0,0,0,0,.1,0h0s0,.1,0,.1c0,0,0,0,.1.1h0c0,0,0,0,0,0,0,0,0,0,0,0,0,0,.1,0,.2,0s.2,0,.3,0h.1s0,0,.1,0c0,0,.1,0,.2,0h0c0-.1,0-.2.2-.2h0c0-.1,0-.1,0-.2,0,0,0-.1,0-.2,0,0,.1.1.2.1h0s0,.1,0,.1h0s0,0,0,0h0s0,.1,0,.1c0,0,0,0,0,0h0c0,0,0,.2,0,.2h0c0,.2,0,.3.1.4h0c0,0,0,.2,0,.2,0,0,0,.1,0,.2h0v.2h0c0,.1-.3,0-.4,0,0,0,0,.3,0,.3,0,0,.4,0,.4,0h0c0,0,0,.2,0,.2,0,0,0,.1,0,.2h0c0,0-.2.2-.2.2,0,0,0,0-.1,0h0c0,0,0,0-.2,0h-.3c0,0-.2,0-.2,0h0c0,0,0,0,0,0l-.2-.2h0c0,0,0-.2,0-.2h0s0,0,0,0h0c0-.1.4-.1.4-.1v-.3s-.3,0-.4,0c0,0,0-.4,0-.4h-.3c0,0,0,.3,0,.4,0,0-.3,0-.4,0,0,0,0,.3,0,.3,0,0,.4,0,.4,0h0c0,.1,0,.2,0,.2h0c0,0,0,.1,0,.2h0s-.2.2-.2.2h0c0,0-.2.1-.2.1h-.3s0,0-.1,0c0,0,0,0-.2,0h0l-.2-.2h0s0,0,0,0c0,0,0-.1,0-.2h0v-.2s.3,0,.4,0c0,0,0-.3,0-.3,0,0-.3,0-.4,0,0,0,0-.4,0-.4s-.2,0-.3,0v.4h-.4v.3h.4v.2h0c0,0,0,.2,0,.2h0c0,0,0,.1,0,.2h0c0,0-.1.1-.2.2h0s0,0,0,0h-.4s-.1,0-.2,0h0c0,0,0,0,0,0h-.1c0-.1,0-.2,0-.2,0,0,0-.1,0-.2,0,0,0,0,0-.1h0c0-.1.4,0,.4-.1v-.3h-.4v-.4h-.3v.4s-.3,0-.4,0c0,0,0,.3,0,.3,0,0,.3,0,.4,0h0c0,.1,0,.2,0,.2h0c0,.1,0,.2,0,.2h0s0,.1,0,.1c0,0,0,0,0,0h0c0,0-.1.1-.2.1h0s0,0,0,0h-.4s-.1,0-.2,0h0c0,0,0-.1,0-.2h0c0,0,0-.2,0-.2h0v-.2h0c0,0,.4,0,.4,0v-.3h-.4c0,0,0-.2,0-.2h0c0,0,0-.1,0-.1h0s0,0,0,0c0,0,0-.2,0-.2h0c0,0,0-.2,0-.2,0,0,0,0,0-.2,0,0,0-.1,0-.2h0c0,0,0-.2,0-.2h0s0,0,0,0h0s0-.1,0-.1h0s0-.1,0-.1c0,0,0,0,0,0,0,0,0,0,0,0h0Z"/>
  <path class="st4" d="M31,7.9h0c0,.2.1.2.2.3,0,0,0,0,0,0h0c0,.1.2.1.3.2h0s0,0,0,0c0,0,.2,0,.2,0h.2s0,0,0,0h0s0,0,.2,0h0c0,0,0,0,0,0,0,0,0,0,.1-.1,0,0,0,0,0,0h0s0,0,0,.1c0,0,0,.2,0,.2v.2h0v.2h0v.2h0v.2h0c0,.1,0,.2,0,.2h0c0,0,0,.1,0,.1h0c0,0,0,.1,0,.1,0,.2-.1.4-.2.6h0c0,.1,0,.2,0,.2h0c0,0,0,0,0,0h0c0,0,0,0,0,0h-.1v-.2h0c0,0,0-.2,0-.2v-.2c0,0,.4,0,.4,0,0,0,0-.2,0-.3,0,0-.3,0-.4,0,0,0,0-.4,0-.4h-.3s0,.3,0,.4h-.4c0,0,0,.3,0,.3,0,0,.3,0,.4,0v.2c0,0,0,.2,0,.2l-.2.2s-.2,0-.2,0h-.4s0,0,0,0h0c0,0,0,0,0,0l-.2-.2h0c0,0,0-.2,0-.2h0s0,0,0,0v-.2h.4c0,0,0-.2,0-.3,0,0-.3,0-.4,0,0,0,0-.4,0-.4h-.3c0,0,0,.3,0,.4,0,0-.3,0-.4,0,0,0,0,.3,0,.3,0,0,.4,0,.4,0h0c0,0,0,.2,0,.2,0,0,0,.1,0,.2h0c0,0,0,.1,0,.1h0c0,0,0,0,0,0,0,0-.1,0-.2.1,0,0,0,0-.1,0h-.4s-.1,0-.2,0l-.2-.2s0-.1,0-.2h0v-.2h0c0-.1.4,0,.4,0,0,0,0-.2,0-.3,0,0-.3,0-.4,0,0,0,0-.4,0-.4h-.3s0,.3,0,.4h-.4c0,0,0,.3,0,.3,0,0,.3,0,.4,0v.2s0,0,0,.1h0c0,.1,0,.2,0,.2,0,0,0,0,0,0h0c0,0,0,0,0,0h0c0,0,0,0-.1,0h-.4s0,0,0,0h0c0,0,0,0,0,0h-.1c0-.1,0-.3-.1-.4h0v-.2h.4c0,0,0-.2,0-.3,0,0-.3,0-.4,0,0,0,0-.4,0-.4h-.3c0,0,0,.3,0,.4,0,0-.3,0-.4,0,0,0,0,.3,0,.3,0,0,.4,0,.4,0v.2h0c0,.1,0,.3,0,.3,0,0,0,0,0,0h0c0,0,0,0,0,0,0,0,0,0,0,0,0,0,0,0,0,0h0c0-.1,0-.2,0-.2h0c0,0,0-.2,0-.2h0s0,0,0,0h0s0,0,0,0h0s0,0,0,0h0s0,0,0,0h0c0,0,0-.1,0-.1h0c0,0,0-.1,0-.1h0c0,0,0-.1,0-.1h0c0,0,0-.1,0-.1h0c0,0,0-.2,0-.2h0c0,0,0-.2,0-.2h0c0-.1,0-.2,0-.2v-.4s0,0,0,0c0,0,.1.2.2.2,0,0,0,0,0,0,0,0,0,0,0,0,0,0,0,0,.1,0h0s0,0,0,0c0,0,.2,0,.3,0h.2s0,0,0,0h0c0,0,.2,0,.2-.1h0c0,0,0-.1,0-.2h0c0-.2,0-.2.1-.1h0s0,.1,0,.1c0,0,0,0,0,0h0c0,0,0,0,0,0,0,0,0,0,.2,0,0,0,0,0,.1,0h0s0,0,0,0c0,0,.2,0,.3,0h.2s0,0,0,0h0c0,0,.2,0,.2-.2,0,0,.2-.2.2-.2h0c0,0,0,0,0,0h0s0,0,0,0c0,0,0,0,0,0,0,0,0,0,.1.1h0c0,0,0,0,.2.1,0,0,.1,0,.2,0h0s0,0,0,0c0,0,.2,0,.3,0h.1s0,0,0,0h0c0,0,0,0,.2,0h0c0,0,0,0,0,0,0,0,.1-.1.2-.2h0s0,0,0,0c0,0,0,0,0,0,0,0,0,0,0,0h.1Z"/>
  <path class="st6" d="M50.4,25c0,0,.1,0,.2,0h.2s0,0,0,0h0s0,0,0,0h0s0,0,0,0c0,0,.1,0,.2,0h0c0,0,0,0,0,0l.2.2h0s0,0,0,0c0,0,.1.3.1.4h0v.7h0c0,0,0,.2,0,.2h0c0,0,0,.1,0,.1,0,0,0,.2,0,.2h0c0,0-.2.3-.2.3h0c-.1.1-.3.2-.4.2,0,0,0,0,0,0,0,0,0,0,0,0s0,0,0,0l.2.2h0s0,.1,0,.1h0s0,.1,0,.1h0s0,.1,0,.1c0,0,0,0,0,0h0c0,.1,0,.2,0,.2h0c.1.2.2.3.4.4.1,0,.2,0,.3,0h0s0,0,0,0v.6s0,0,0,0h0s0,0,0,0h0s0,0,0,0h0c0,0-.2,0-.3,0h0c0,0-.3-.1-.3-.2h0c0,0,0,0,0,0l-.2-.2s0,0,0,0h0c0-.1,0-.2,0-.2h0s0,0,0,0c0,0,0,0,0,0h0c0,0,0-.2,0-.2h0s0-.1,0-.1h0s0,0,0,0c0,0,0,0,0,0h0c0,0,0-.2,0-.2h0s0-.1,0-.1c0,0,0,0,0,0h0c0,0-.1,0-.2,0,0,0-.3,0-.3,0,0,0,0,.8,0,.9,0,0,0,0,0,.1,0,0,0,.1,0,.2,0,0,0,0,0,0h.1s0,0,0,0h.1s0,0,.1,0c0,0,0,.4,0,.6h-2.1c0-.1,0-.4,0-.5,0,0,0,0,0,0h0s0,0,0,0h0c.1,0,.1,0,.2-.2,0,0,0,0,0-.1,0-.9,0-2.1,0-3s0-.2,0-.2h0c0,0,0-.1,0-.1,0,0,0,0,0,0h0s0,0,0,0h0s0,0,0,0c0-.1,0-.4,0-.5h2.3,0ZM49.5,27.3h.8s.3,0,.3-.1c.4-.2.4-.9.2-1.2,0-.1-.4-.3-.5-.3h-.8s0,1.6,0,1.6Z"/>
  <path class="st6" d="M58.3,24.9c0,0,.1,0,.2,0h.2s0,0,0,0h0s0,0,0,0h0s0,0,0,0h0c0,0,.2.1.3.2h0c0,0,0,0,0,0h0c0,0,0,0,0,0l.3.3h0s0,.1,0,.1c0,0,0,0,0,0,0,0,0,.2.1.2,0,0,0,.2,0,.3h0c0,.1,0,.2,0,.2h0c0,0,0,.2,0,.2h0c0,.2,0,.3,0,.3,0,.2,0,.5,0,.7h0v.3h0c0,.1,0,.2,0,.2h0c0,0,0,.1,0,.1,0,0,0,0,0,.1h0c0,.2-.1.4-.2.4h0c0,0,0,.2,0,.2h0s-.3.3-.3.3h-.1c0,0,0,0,0,0h0c0,.1-.2.2-.3.2h0s0,0,0,0h0s0,0,0,0h0s0,0,0,0h0s0,0,0,0h-.1c-.2,0-.3,0-.5,0,0,0-.1,0-.2,0h-.2s0,0,0,0h0c0,0-.2,0-.2,0h-.1c0,0,0,0,0,0,0,0,0,0-.1,0h0c0,0,0,0,0,0,0,0,0,0-.1-.1,0,0,0,0,0,0,0,0,0-.1-.1-.1h0c0,0,0-.2-.1-.2,0,0,0-.2-.1-.3h0c0,0,0-.2,0-.2h0s0,0,0,0h0c0,0,0-.1,0-.1h0c0,0,0-.2,0-.2h0c0-.2,0-.3,0-.3,0-.2,0-.5,0-.7h0v-.2h0v-.2h0c0-.1,0-.2,0-.2h0c0,0,0-.1,0-.2h0c0-.1,0-.2,0-.2,0,0,0,0,0-.1h0s0,0,0,0h0s0-.1,0-.1c0,0,0,0,0,0l.2-.2s0,0,0,0h0c0,0,0,0,0,0h0c0,0,0,0,0,0h0c0-.1.2-.2.3-.2h0s0,0,0,0h0s0,0,0,0h0s0,0,0,0c0,0,.1,0,.1,0h.5ZM58,25.7c-1.8.1-1.7,4.2.4,3.6,1.4-.4,1.3-3.7-.4-3.6Z"/>
  <path class="st4" d="M28.9,1h.5s0,.6,0,.7c0,0,0,0,0,0,.2,0,.4,0,.6,0v.5c-.2,0-.4,0-.6,0,0,0,0,0,0,0,0,.2,0,.5,0,.7,0,0,.1.1.2.2,0,0,0,0,0,0h0v.2h0c0,.1,0,.2,0,.2,0,0,0,0,0,0,0,0,.2,0,.2,0,0,0,0,0,.1,0,0,0,.1,0,.2,0h0c0,0,0,0,0,0h0c0,0,0,0,0,0,0,0,0,0,.1,0h0c0,0,0,0,0,0h0c0,0,0,0,0,0h0c0,0,0,0,0,0h0c0,0,0,0,0,0h0c0,0,0,.1,0,.1h0c0,0,0,0,0,0,0,0,.1.1.2.2,0,0,0,0,0,0h-.2s0,.3,0,.3c0,0,.3,0,.3,0s0,0,0,.1c0,0,0,0,0,.1v.2c-.1,0-.2,0-.2,0h0c0,0,0,0,0,0h0c0,0,0,0-.1,0h-.4s-.1,0-.2,0l-.2-.2h0s0,0,0,0h0s0,0,0,0h0s0,0,0,0h0c0-.1.4,0,.4-.2v-.3c0,0-.3,0-.4,0,0,0,0-.4,0-.4h-.3c0,0,0,.3,0,.4-.2,0-.4-.1-.4.2s.2.1.4.2h0c0,0,0,.2,0,.2,0,0,0,.1,0,.2h0c0,0,0,.2,0,.2,0,0,0,0,0,0h0c0,0,0,0,0,0h0s0,0,0,0h-.3c0,0-.2,0-.3,0l-.2-.2s0-.1,0-.2h0v-.2h0c0,0,.4,0,.4,0v-.3c0,0-.3,0-.4,0,0,0,0-.4,0-.4h-.3s0,.3,0,.4h-.4c0,.4,0,.3.3.3,0,0,0,0,0,.1h0c0,0,0,.1,0,.1h0s-.1.2-.1.2c0,0,0,0,0,0h-.2c0,.1,0,.1-.1.2h-.4s-.1,0-.2,0l-.2-.2h0c0,0,0-.2,0-.2h0s0,0,0,0h0c0-.1.4,0,.4-.2v-.3c0,0-.1,0-.2,0h0c0,0,0-.1,0-.1,0,0,0,0,.1-.1h.1c0,0,0,0,0,0h0c0,0,0,0,0,0h0c0,0,0,0,0,0h0c0,0,0,0,0,0h0c0,0,0,0,0,0h0c0,0,0,0,0,0h0c0,0,0,0,0,0,0,0,0,0,.1,0,0,0,0,0,0,0h0c0-.1.2-.1.3-.2,0,0,0,0,.2,0h0v-.2h0v-.2h0c0-.1,0-.2,0-.2h0c0,0,0-.2,0-.2h0s0,0,0,0c0,0,0-.6,0-.7,0,0,0,0,0,0h-.6v-.5h.7v-.7h0Z"/>
  <path class="st6" d="M22.1,7.1s0,.3,0,.4c0,0,.2,0,.3,0,0,0,0-.3,0-.4h.3s0,.3,0,.4c0,0,.3,0,.3,0,0,0,0-.4,0-.4h.3v4s0,0,0,.1v.3h0v.2h0v.2h0c0,0,0,.2,0,.2,0,0,0,0,0,.1h0c0,.1,0,.2,0,.3h0c0,0,0,.2,0,.2h0c0,0,0,.1,0,.1h0s0,0,0,0c0,0,0,0-.1,0,0,0,0,0,0,0h0c0,0-.1-.1-.2-.1h0c0,0,0,0,0,0,0,0,0,0-.1,0,0,0,0,0,0,0h0c0,0-.1-.1-.2-.1h0c0,0,0,0,0,0h0c0,0,0,0,0,0h0c0,0,0,0,0,0h0c0,0,0-.1,0-.1l-.2-.2s0,0,0,0h0c0,0,0-.2,0-.2h0c0,0,0-.1,0-.2,0,0,0,0,0,0h0c0,0,0-.2,0-.2h0c0,0,0-.1,0-.1h0c0,0,0-.2,0-.2h0c0-.2,0-.3,0-.3,0-1.1,0-2.3,0-3.4h.4ZM22.7,8h-.4v.4c-.3,0-.4,0-.4.3h.4v.9h.4v-.9h.4v-.3h-.4v-.4Z"/>
  <path class="st6" d="M34.9,7.1h.3c0,0,0,.4,0,.4.3.1.2-.2.2-.4h.3v.4c0,0,.2,0,.2,0,0,0,0-.3,0-.4h.3c0,1.1,0,2.3,0,3.4v.2h0v.2h0c0,.1,0,.2,0,.2,0,0,0,.2,0,.3h0c0,0,0,.2,0,.2h0c0,0,0,.1,0,.1l-.3.3s0,0,0,0h0c0,0,0,0,0,0h0c0,0,0,0,0,0h0c0,0,0,0,0,0h0c0,0,0,0,0,0,0,0,0,0-.1,0,0,0,0,0,0,0h0c0,0,0,0-.2.1h0c0,0,0,0,0,0,0,0,0,0-.1,0,0,0,0,0,0,0h0c0,0,0-.2,0-.2h0s0,0,0,0c0-.1.1-.2.2-.4h0c0-.1,0-.2,0-.2h0v-.2h0v-.2c0,0,0-.2,0-.3v-4.1h0ZM35.9,8h-.4v.4h-.4v.3h.4v.9h.4v-.9h.4v-.3h-.4v-.4Z"/>
  <path class="st4" d="M26.6,10.3h0c0,.1.1.2.2.2h0c0,0,0,0,.2,0,0,0,0,0,.1,0h0s0,0,0,0c0,0,.2,0,.3,0h.2s0,0,0,0h0s0,0,.2,0h0c0,0,0-.2.1-.2h0c0-.1,0-.1,0,0h0c0,.1.1.2.2.3h0c0,0,.1.1.2.1h0s0,0,0,0c0,0,.2,0,.3,0h.2c.1,0,.2,0,.2-.1h0c0,0,0,0,0,0,0,0,0,0,.2-.2h0c0,0,0-.2.2,0h0c0,.1.1.2.2.2h0c0,0,0,0,.2,0,0,0,0,0,.1,0h0s0,0,0,0c0,0,.2,0,.3,0h.2s0,0,0,0h0s0,0,.2,0h0c0,0,0-.2.1-.2h0c0-.1,0-.1,0,0h0c0,.1.1.2.2.3h0c0,0,0,.1,0,.2h0c0,0,0,.2,0,.2h0c0,.1,0,.2,0,.3h0c0,0,0,.2,0,.2,0,0,0,0,0,0h0c0,0-.1.1-.2.1h-4.6c0,0,0,0-.2,0h0l-.2-.2h0s0,0,0,0c0,0,0-.2-.1-.3h0c0,0,0-.2,0-.2h0v-.2h0c0,0,0,0,0,0,0,0,0,0,.2-.2,0,0,0,0,0,0,0,0,0,0,.2,0h0Z"/>
  <path class="st6" d="M53.1,25.6s0,0,0,0c0-.1,0-.4,0-.5h1.9c0,.1,0,.4,0,.5,0,0,0,0,0,0h0s0,0,0,0h0s0,0,0,0c0,0-.1,0-.1,0h0c0,0,0,.2,0,.2,0,1,0,2.2,0,3.2h0c0,.3,0,.2.2.2h0s0,0,0,0h0s0,0,0,0c0,.1,0,.4,0,.5h-1.9c0-.1,0-.4,0-.5,0,0,0,0,0,0h0s0,0,0,0h0s0,0,0,0h0c0-.1,0-.1,0-.2,0,0,0,0,0-.1,0-1,0-2.1,0-3,0,0,0,0,0-.1,0-.2,0-.1-.2-.2h0s0,0,0,0h0s0,0,0,0Z"/>
  <path class="st6" d="M29.7,11.9h1.6s0,0,0,0h0v.2h0c0,.1,0,.2,0,.3h0c0,0,0,.2,0,.2,0,0,0,0,0,.1h0s0,.1,0,.1c0,0,0,0,0,0,0,0,.1.1.2.2,0,0,0,0,0,0,0,0-.1,0-.2,0-.4,0-1.1,0-1.6,0,0,0-.1,0-.2,0h0s0-.1,0-.1h0c0,0,0-.1,0-.2,0,0,0,0,0,0h0c0,0,0-.2,0-.2h0c0-.1,0-.2,0-.2h0c0,0,0-.2,0-.2v-.3h0Z"/>
  <path class="st6" d="M27,12s0-.2,0-.2c0,0,1.4,0,1.6,0v.2s0,0,0,.1h0c0,.1,0,.2,0,.2h0c0,0,0,.1,0,.1h0c0,0,0,.1,0,.1,0,0,0,0,0,0h0c0,0,0,.1,0,.2h0c0,0,0,.2,0,.2h0s-.2.2-.2.2h-1.7c0-.1.2-.2.3-.3h0s0,0,0,0h0s0,0,0,0c0,0,0-.1,0-.2h0c0,0,0-.2,0-.2h0s0,0,0,0h0c0,0,0-.1,0-.2h0Z"/>
  <path class="st2" d="M34.5,12.8s0,0,0,0h0s0,0,0,0h0s0,0,0,0c0,0,0,0,0,0Z"/>
  <path class="st4" d="M29.1,20.2c1.1,0,1.5-1.7,1.9-2.5.5-1,1-1.6,1.9-2.1.8-.5,1.7-1,2.5-1.5-.1,1.6-2,2-2.3,3.4l2.3-1.5c0,.6-.4,1.1-.9,1.5-.5.5-1.3.9-1.5,1.6l2.3-1.3c0,.5-.4,1-.8,1.3-.5.5-1.3.8-1.5,1.5l2.2-1c0,.5-.4.9-.8,1.2-.5.4-1.2.6-1.4,1.2l2.2-.7c-.1.4-.5.7-.9,1-.5.3-1.1.4-1.4.9l2.2-.3c0,0,0,.2,0,.2-.3.5-1.1.6-1.6.8-.2,0-.5.2-.6.4h2.1c0,.4-.6.6-1,.6-.4,0-.9,0-1.2.4l1.8.4c-.1.3-.5.4-.8.4-.5,0-1.2-.3-1.6,0l1.2.7s0,0,0,0c0,0-.3.1-.4.1-.8.1-1.3-.5-2.1-.5,0,0,0,.1,0,.2.2.2.4.4.6.6,0,0,.2.2.1.2-.5.1-1-.1-1.4-.5s-.8-.9-1.4-.9c-.6,0-1.2.9-1.7,1.2-.3.2-.7.3-1,.1l.9-.9c-.9-.2-1.7.9-2.5.3l1.2-.7c-.7-.4-1.9.4-2.5-.4l1.8-.4c-.6-.6-1.9,0-2.2-1h2.1c0-.2-.2-.3-.4-.3-.5-.2-1.6-.3-1.8-1,0,0,0-.1,0,0l2.2.3c-.3-.5-1-.6-1.5-.9-.3-.2-.7-.5-.7-.9l2.2.6c-.2-.5-.9-.8-1.4-1.1-.4-.3-.8-.7-.9-1.2l2.2,1c-.2-.8-1-1.1-1.6-1.6-.3-.3-.6-.7-.6-1.2l2.2,1.3c0-.4-.3-.7-.6-1-.7-.6-1.6-1.1-1.7-2.2l2.3,1.5c.1,0,0-.3,0-.3-.2-.7-1.2-1.3-1.7-1.9-.3-.4-.5-.8-.6-1.2l2.4,1.5c.9.6,1.4,1.1,1.9,2.1.4.8.8,2.5,1.8,2.5h0ZM29,21h-3.1v4.1h3.1v-4.1ZM32.4,21h-3.1v4.1h3.1v-4.1Z"/>
  <path class="st0" d="M27.3,32.5c0,0,0-.3,0-.4.2,0,.5,0,.4.2,0,.2-.4.2-.4.1Z"/>
  <path class="st7" d="M29.2,32.4c0,.2.1.4.2.5h-.4c0-.2,0-.3.2-.5h0Z"/>
  <path class="st3" d="M29.2,32.4h0s0,0,0,0c0,0,0,0,0,0h0Z"/>
  <path class="st8" d="M19.4,29l-.4.5s-.2-.3-.2-.3c0,0,.6-.2.6-.2Z"/>
  <path class="st5" d="M28.5,24.1s-.4,0-.4,0c0,0,0-.4-.2-.4-.2,0-.7,0-1,0,0,0,0,.4-.2.4s-.4,0-.4,0l.8-2.2c.2,0,.5,0,.5,0,.2.7.6,1.4.8,2,0,0,0,0,0,.1h0ZM27.1,23.3h.7c0-.1-.3-.9-.3-.9,0,0,0,0,0,0-.1.3-.2.6-.3.9h0Z"/>
  <path class="st5" d="M31.5,23.7c0,0,.3,0,.4,0,0,0,0,.3,0,.4,0,0-.7,0-.8,0-.1,0-.1-.2,0-.3,0,0,.2-.2.2-.3.2-.3.3-.7.1-1-.2-.4-.8-.4-1,0-.2.3,0,.7.1,1,0,0,.2.2.2.2,0,.1,0,.3,0,.3-.2,0-.6,0-.8,0-.1,0-.1,0-.1-.2,0-.3.2-.2.5-.2l-.2-.3c-.5-.9.4-2,1.4-1.5s.7,1.3.2,1.8h0Z"/>
</svg>