<?xml version="1.0" encoding="UTF-8"?>
<svg id="Camada_1" xmlns="http://www.w3.org/2000/svg" version="1.1" viewBox="0 0 85 36">
  <!-- Generator: Adobe Illustrator 29.3.1, SVG Export Plug-In . SVG Version: 2.1.0 Build 151)  -->
  <defs>
    <style>
      .st0 {
        fill: #f09220;
        fill-rule: evenodd;
      }

      .st1 {
        fill: #25306c;
      }
    </style>
  </defs>
  <path class="st1" d="M41,15.5h-5.6v6h-2.4V7.6h8.9v2h-6.4v4.3h5.6v1.7h0ZM57.6,13.7h2.4c.8,0,1.3-.2,1.8-.5s.6-1,.6-1.7-.2-1.4-.6-1.7-1-.5-1.8-.5h-2.4v4.4ZM57.6,15v4.8h2.7c.8,0,1.4-.2,1.8-.6.4-.4.6-1.1.6-1.8,0-1.5-.7-2.4-2.2-2.4,0,0-2.9,0-2.9,0ZM55.2,21.5V7.6h4.8c1.6,0,2.8.3,3.6.9.8.6,1.2,1.6,1.2,2.8s-.2,1.2-.5,1.7-.9.9-1.5,1.2c.8.2,1.3.6,1.7,1.2.4.6.6,1.2.6,2,0,1.3-.4,2.3-1.3,3-.8.7-2,1.1-3.6,1.1h-5.1,0ZM63.3,27c0,.2,0,.4.1.5,0,.1.2.2.4.2s.3,0,.4-.2c0-.1.1-.3.1-.6s0-.4-.1-.5c0-.1-.2-.2-.4-.2s-.3,0-.4.2c0,.1-.1.3-.1.6ZM62.8,26.9c0-.2,0-.4.1-.6,0-.2.2-.3.4-.4s.3-.1.5-.1c.3,0,.5,0,.7.3s.3.4.3.8h0c0,.3,0,.5-.1.7,0,.2-.2.3-.4.4s-.3.1-.5.1c-.3,0-.6-.1-.8-.3-.2-.2-.3-.5-.3-.8h0s0,0,0,0ZM60.9,27c0,.2,0,.4.1.5,0,.1.2.2.4.2s.3,0,.4-.3v-.9c0-.2-.2-.3-.4-.3s-.3,0-.4.2c0,.1-.1.3-.1.6ZM60.4,26.9c0-.3,0-.6.2-.8s.4-.3.6-.3.4,0,.6.3v-1.1h.5v3.2h-.5v-.2c-.2.2-.4.3-.6.3s-.5-.1-.6-.3-.2-.5-.2-.9h0ZM58.9,28.1h-.5v-3.2h.5v3.2ZM56.9,27.7c0,0,.2,0,.3,0,0,0,.2-.1.2-.2v-.4h-.3c-.2,0-.3,0-.4,0,0,0-.1.2-.1.3s0,.2,0,.2.2,0,.3,0h0ZM57.4,28.1s0-.1,0-.2c-.2.2-.3.3-.6.3s-.4,0-.5-.2-.2-.3-.2-.5,0-.4.3-.5c.2-.1.4-.2.8-.2h.3c0-.3,0-.3,0-.4s-.2-.1-.3-.1-.2,0-.3,0-.1.1-.1.2h-.5c0-.1,0-.2.1-.3,0-.1.2-.2.3-.3.1,0,.3,0,.5,0,.3,0,.5,0,.6.2s.2.3.2.6v1c0,.2,0,.4,0,.5h0s-.5,0-.5,0h0ZM55.9,26.3c0,0-.1,0-.2,0-.2,0-.4,0-.5.3v1.5h-.5v-2.2h.5v.3c.1-.2.3-.3.5-.3s.1,0,.2,0v.5h0ZM53.4,26.2c-.1,0-.3,0-.3.1,0,0-.1.2-.2.4h.9c0-.2,0-.3-.1-.4s-.2-.1-.3-.1ZM53.4,28.1c-.3,0-.6,0-.8-.3s-.3-.5-.3-.8h0c0-.3,0-.5.1-.7s.2-.3.4-.4c.2,0,.3-.1.5-.1.3,0,.5,0,.7.3s.3.5.3.8v.2h-1.5c0,.2,0,.3.2.4s.2.2.4.2.4,0,.6-.3l.3.3c0,.1-.2.2-.4.3-.2,0-.3.1-.5.1h0ZM50.5,27c0,.2,0,.4.1.5,0,.1.2.2.4.2s.3,0,.4-.3v-.9c0-.2-.2-.3-.4-.3s-.3,0-.4.2c0,.1-.1.3-.1.6ZM50,26.9c0-.3,0-.6.2-.8s.4-.3.6-.3.4,0,.6.3v-1.1h.5v3.2h-.5v-.2c-.2.2-.4.3-.6.3s-.5-.1-.6-.3-.2-.5-.2-.9h0ZM48.7,26.2c-.1,0-.3,0-.3.1,0,0-.1.2-.2.4h.9c0-.2,0-.3-.1-.4s-.2-.1-.3-.1ZM48.8,28.1c-.3,0-.6,0-.8-.3s-.3-.5-.3-.8h0c0-.3,0-.5.1-.7s.2-.3.4-.4c.2,0,.3-.1.5-.1.3,0,.5,0,.7.3s.3.5.3.8v.2h-1.5c0,.2,0,.3.2.4s.2.2.4.2.4,0,.6-.3l.3.3c0,.1-.2.2-.4.3-.2,0-.3.1-.5.1h0ZM47.3,26.8h-1.2v1.3h-.5v-3h1.9v.4h-1.4v.9h1.2v.4ZM43.1,26.2c-.1,0-.3,0-.3.1,0,0-.1.2-.2.4h.9c0-.2,0-.3-.1-.4s-.2-.1-.3-.1ZM43.2,28.1c-.3,0-.6,0-.8-.3s-.3-.5-.3-.8h0c0-.3,0-.5.1-.7s.2-.3.4-.4c.2,0,.3-.1.5-.1.3,0,.5,0,.7.3s.3.5.3.8v.2h-1.5c0,.2,0,.3.2.4s.2.2.4.2.4,0,.6-.3l.3.3c0,.1-.2.2-.4.3-.2,0-.3.1-.5.1h0ZM40.2,27c0,.2,0,.4.1.5,0,.1.2.2.4.2s.3,0,.4-.3v-.9c0-.2-.2-.3-.4-.3s-.3,0-.4.2c0,.1-.1.3-.1.6ZM39.7,26.9c0-.3,0-.6.2-.8s.4-.3.6-.3.4,0,.6.3v-1.1h.5v3.2h-.5v-.2c-.2.2-.4.3-.6.3s-.5-.1-.6-.3-.2-.5-.2-.9h0ZM38.3,27.7c0,0,.2,0,.3,0,0,0,.2-.1.2-.2v-.4h-.3c-.2,0-.3,0-.4,0,0,0-.1.2-.1.3s0,.2,0,.2.2,0,.3,0h0ZM38.9,28.1s0-.1,0-.2c-.2.2-.3.3-.6.3s-.4,0-.5-.2-.2-.3-.2-.5,0-.4.3-.5c.2-.1.4-.2.8-.2h.3c0-.3,0-.3,0-.4s-.2-.1-.3-.1-.2,0-.3,0-.1.1-.1.2h-.5c0-.1,0-.2.1-.3,0-.1.2-.2.3-.3.1,0,.3,0,.5,0,.3,0,.5,0,.6.2s.2.3.2.6v1c0,.2,0,.4,0,.5h0s-.5,0-.5,0h0ZM35.6,27c0,.2,0,.4.1.5,0,.1.2.2.4.2s.3,0,.4-.3v-.9c0-.2-.2-.3-.4-.3s-.3,0-.4.2c0,.1-.1.3-.1.6ZM35.1,26.9c0-.3,0-.6.2-.8s.4-.3.6-.3.4,0,.6.3v-1.1h.5v3.2h-.5v-.2c-.2.2-.4.3-.6.3s-.5-.1-.6-.3-.2-.5-.2-.9h0ZM34.1,25.3c0,0,0-.1,0-.2,0,0,.1,0,.2,0s.2,0,.2,0c0,0,0,.1,0,.2s0,.1,0,.2c0,0-.1,0-.2,0s-.2,0-.2,0,0-.1,0-.2ZM34.6,28.1h-.5v-2.2h.5s0,2.2,0,2.2ZM33.2,27.5c0,0,0-.2-.1-.2,0,0-.2,0-.4-.1-.2,0-.3,0-.4-.1-.3-.1-.4-.3-.4-.5s0-.3.2-.5.4-.2.6-.2.5,0,.6.2c.2.1.3.3.3.5h-.5c0,0,0-.2-.1-.2s-.2,0-.3,0-.2,0-.3,0c0,0-.1.1-.1.2s0,.1,0,.2c0,0,.2,0,.4.1s.3,0,.5.2.2.1.3.2,0,.2,0,.3c0,.2,0,.4-.3.5-.2.1-.4.2-.7.2s-.3,0-.5,0-.3-.2-.3-.3c0-.1-.1-.2-.1-.4h.5c0,.1,0,.2.1.3,0,0,.2,0,.3,0s.2,0,.3,0c0,0,0-.1,0-.2h0ZM31.6,26.3c0,0-.1,0-.2,0-.2,0-.4,0-.5.3v1.5h-.5v-2.2h.5v.3c.1-.2.3-.3.5-.3s.1,0,.2,0v.5h0ZM29.1,26.2c-.1,0-.3,0-.3.1,0,0-.1.2-.2.4h.9c0-.2,0-.3-.1-.4s-.2-.1-.3-.1ZM29.1,28.1c-.3,0-.6,0-.8-.3s-.3-.5-.3-.8h0c0-.3,0-.5.1-.7,0-.2.2-.3.4-.4.2,0,.3-.1.5-.1.3,0,.5,0,.7.3.2.2.3.5.3.8v.2h-1.5c0,.2,0,.3.2.4s.2.2.4.2.4,0,.6-.3l.3.3c0,.1-.2.2-.4.3-.2,0-.3.1-.5.1h0ZM26.9,27.4l.5-1.6h.5l-.8,2.2h-.4l-.8-2.2h.5l.5,1.6ZM25,25.3c0,0,0-.1,0-.2,0,0,.1,0,.2,0s.2,0,.2,0c0,0,0,.1,0,.2s0,.1,0,.2c0,0-.1,0-.2,0s-.2,0-.2,0c0,0,0-.1,0-.2ZM25.6,28.1h-.5v-2.2h.5s0,2.2,0,2.2ZM23.1,25.8v.3c.2-.2.4-.3.7-.3.5,0,.7.3.7.8v1.5h-.5v-1.4c0-.1,0-.3,0-.3,0,0-.2,0-.3,0-.2,0-.3,0-.4.3v1.6h-.5v-2.2h.5,0ZM22.2,25.1v2c0,.3,0,.6-.3.8s-.5.3-.8.3-.6,0-.8-.3c-.2-.2-.3-.4-.3-.8v-2h.5v2c0,.2,0,.3.2.5s.3.2.4.2c.4,0,.6-.2.6-.6v-2h.5ZM63.6,32.9c.1,0,.2,0,.3,0s.2-.1.2-.2v-.5h-.3c-.2,0-.4,0-.5.1-.1,0-.2.2-.2.3s0,.2.1.3.2,0,.3,0h0ZM64.3,33.3s0-.1,0-.3c-.2.2-.4.3-.7.3s-.5,0-.7-.2c-.2-.2-.3-.3-.3-.6s.1-.5.3-.7c.2-.2.5-.2.9-.2h.4v-.2c0-.1,0-.3-.1-.3,0,0-.2-.1-.3-.1s-.3,0-.3,0c0,0-.1.2-.1.3h-.6c0-.1,0-.3.1-.4,0-.1.2-.2.4-.3.2,0,.3-.1.6-.1.3,0,.6,0,.7.2.2.2.3.4.3.7v1.2c0,.2,0,.4,0,.6h0s-.6,0-.6,0h0ZM61.4,30c0,0,0-.2,0-.2,0,0,.1,0,.3,0s.2,0,.3,0c0,0,0,.1,0,.2s0,.2,0,.2-.1,0-.3,0-.2,0-.3,0c0,0,0-.1,0-.2ZM62,33.3h-.6v-2.7h.6v2.7ZM59.2,31c.2-.2.4-.3.7-.3.6,0,.9.3.9,1v1.7h-.6v-1.7c0-.2,0-.3-.1-.4s-.2-.1-.3-.1c-.2,0-.4.1-.5.3v1.9h-.6v-3.8h.6v1.4ZM56.8,32.9c.1,0,.2,0,.3,0s.2-.1.2-.2v-.5h-.3c-.2,0-.4,0-.5.1-.1,0-.2.2-.2.3s0,.2.1.3.2,0,.3,0h0ZM57.5,33.3s0-.1,0-.3c-.2.2-.4.3-.7.3s-.5,0-.7-.2c-.2-.2-.3-.3-.3-.6s.1-.5.3-.7c.2-.2.5-.2.9-.2h.4v-.2c0-.1,0-.3-.1-.3,0,0-.2-.1-.3-.1s-.3,0-.3,0c0,0-.1.2-.1.3h-.6c0-.1,0-.3.1-.4,0-.1.2-.2.4-.3.2,0,.3-.1.6-.1.3,0,.6,0,.7.2.2.2.3.4.3.7v1.2c0,.2,0,.4,0,.6h0s-.6,0-.6,0h0ZM53.4,31.3h.6c.2,0,.3,0,.5-.1s.2-.2.2-.4,0-.3-.2-.4-.3-.1-.5-.1h-.6v1h0ZM53.4,31.7v1.1h.7c.2,0,.3,0,.5-.1.1,0,.2-.2.2-.4,0-.4-.2-.6-.6-.6h-.7ZM52.8,33.3v-3.6h1.2c.4,0,.7,0,.9.2.2.2.3.4.3.7s0,.3-.1.4c0,.1-.2.2-.4.3.2,0,.3.2.4.3.1.1.2.3.2.5,0,.3-.1.6-.3.8-.2.2-.5.3-.9.3h-1.3,0ZM49.7,32.9c.1,0,.2,0,.3,0s.2-.1.2-.2v-.5h-.3c-.2,0-.4,0-.5.1-.1,0-.2.2-.2.3s0,.2.1.3.2,0,.3,0h0ZM50.3,33.3s0-.1,0-.3c-.2.2-.4.3-.7.3s-.5,0-.7-.2c-.2-.2-.3-.3-.3-.6s.1-.5.3-.7c.2-.2.5-.2.9-.2h.4v-.2c0-.1,0-.3-.1-.3,0,0-.2-.1-.3-.1s-.3,0-.3,0c0,0-.1.2-.1.3h-.6c0-.1,0-.3.1-.4,0-.1.2-.2.4-.3.2,0,.3-.1.6-.1.3,0,.6,0,.7.2.2.2.3.4.3.7v1.2c0,.2,0,.4,0,.6h0s-.6,0-.6,0h0ZM46.4,32c0,.3,0,.5.2.6.1.2.3.2.4.2s.4-.1.5-.3v-1.1c-.1-.2-.3-.3-.5-.3s-.3,0-.4.2c-.1.2-.2.4-.2.7ZM45.8,32c0-.4,0-.7.3-1,.2-.3.4-.4.8-.4s.5,0,.7.3v-1.4h.6v3.8h-.5v-.3c-.2.2-.4.3-.8.3s-.6-.1-.8-.4c-.2-.3-.3-.6-.3-1ZM42.3,32c0,.3,0,.5.2.6.1.2.3.2.5.2s.4,0,.5-.2c.1-.2.2-.4.2-.7s0-.5-.2-.6c-.1-.2-.3-.2-.5-.2s-.3,0-.5.2-.2.4-.2.7h0ZM41.7,32c0-.3,0-.5.2-.7,0-.2.3-.4.4-.5s.4-.2.6-.2c.4,0,.7.1.9.3.2.2.3.5.4.9h0c0,.4,0,.6-.2.8,0,.2-.2.4-.4.5-.2.1-.4.2-.7.2-.4,0-.7-.1-.9-.4s-.3-.6-.3-1h0s0,0,0,0ZM40.3,32.6l.6-1.9h.6l-.9,2.7h-.5l-.9-2.7h.6s.6,1.9.6,1.9ZM37.6,32.9c.1,0,.2,0,.3,0s.2-.1.2-.2v-.5h-.3c-.2,0-.4,0-.5.1-.1,0-.2.2-.2.3s0,.2.1.3.2,0,.3,0h0ZM38.2,33.3s0-.1,0-.3c-.2.2-.4.3-.7.3s-.5,0-.7-.2c-.2-.2-.3-.3-.3-.6s.1-.5.3-.7c.2-.2.5-.2.9-.2h.4v-.2c0-.1,0-.3-.1-.3,0,0-.2-.1-.3-.1s-.3,0-.3,0c0,0-.1.2-.1.3h-.6c0-.1,0-.3.1-.4,0-.1.2-.2.4-.3.2,0,.3-.1.6-.1.3,0,.6,0,.7.2.2.2.3.4.3.7v1.2c0,.2,0,.4,0,.6h0s-.6,0-.6,0h0ZM35.1,32.9c.2,0,.3,0,.4-.1s.2-.2.2-.3h.6c0,.2,0,.3-.2.5,0,.1-.2.3-.4.3-.2,0-.3.1-.5.1-.4,0-.7-.1-.9-.4s-.3-.6-.3-1h0c0-.5.1-.8.3-1,.2-.2.5-.4.9-.4s.6,0,.8.3.3.4.3.7h-.6c0-.2,0-.3-.2-.4s-.2-.2-.4-.2-.3,0-.4.2c-.1.1-.2.3-.2.6h0c0,.4,0,.6.2.7.1.1.3.2.4.2h0ZM31.8,30.7v.3c.2-.2.5-.4.8-.4.6,0,.8.3.9.9v1.8h-.6v-1.7c0-.2,0-.3-.1-.4s-.2-.1-.4-.1c-.2,0-.4.1-.5.3v1.9h-.6v-2.7h.6,0ZM30.3,30.2h0s-.5,0-.5,0l-.4-.4-.4.4h-.5s.7-.7.7-.7h.3l.7.7h0ZM28.8,32c0,.3,0,.5.2.6.1.2.3.2.5.2s.4,0,.5-.2c.1-.2.2-.4.2-.7s0-.5-.2-.6c-.1-.2-.3-.2-.5-.2s-.3,0-.5.2-.2.4-.2.7h0ZM28.2,32c0-.3,0-.5.2-.7,0-.2.3-.4.4-.5.2-.1.4-.2.6-.2.4,0,.7.1.9.3s.3.5.4.9h0c0,.4,0,.6-.2.8,0,.2-.2.4-.4.5-.2.1-.4.2-.7.2-.4,0-.7-.1-.9-.4-.2-.3-.3-.6-.3-1h0s0,0,0,0ZM26.8,32.9c.2,0,.3,0,.4-.1s.2-.2.2-.3h.6c0,.2,0,.3-.2.5,0,.1-.2.3-.4.3-.2,0-.3.1-.5.1-.4,0-.7-.1-.9-.4s-.3-.6-.3-1h0c0-.5.1-.8.3-1s.5-.4.9-.4.6,0,.8.3.3.4.3.7h-.6c0-.2,0-.3-.2-.4s-.2-.2-.4-.2-.3,0-.4.2c-.1.1-.2.3-.2.6h0c0,.4,0,.6.2.7.1.1.3.2.4.2h0ZM24.1,31.1c-.2,0-.3,0-.4.2s-.2.3-.2.5h1.1c0-.2,0-.4-.2-.5,0,0-.2-.2-.4-.2h0ZM24.2,33.4c-.4,0-.7-.1-.9-.4-.2-.2-.3-.6-.3-.9h0c0-.3,0-.6.2-.8s.3-.4.4-.5c.2-.1.4-.2.6-.2.4,0,.6.1.8.3s.3.6.3,1v.2h-1.7c0,.2,0,.4.2.5.1.1.3.2.5.2s.5-.1.7-.3l.3.3c-.1.2-.3.3-.4.4-.2,0-.4.1-.6.1h0ZM20.5,31.5h.6c.2,0,.4,0,.5-.2s.2-.3.2-.4,0-.3-.2-.4c-.1-.1-.3-.2-.5-.2h-.7v1.2h0ZM21.2,32h-.7v1.4h-.6v-3.6h1.3c.4,0,.7,0,1,.3.2.2.3.5.3.8s0,.4-.2.6-.3.3-.5.4l.8,1.5h0s-.7,0-.7,0c0,0-.7-1.4-.7-1.4ZM30.3,7.6v9.3c0,1.5-.5,2.7-1.4,3.5-.9.9-2.2,1.3-3.8,1.3s-2.9-.4-3.8-1.3-1.4-2-1.4-3.6V7.6h2.4v9.6c0,.9.2,1.6.7,2.1.5.5,1.2.7,2.1.7,1.9,0,2.8-1,2.8-2.9V7.6h2.4Z"/>
  <path class="st0" d="M46,16.7c.7.2,2.2.1,3.4,0,.6-.1,1.7-.2,1.6-1,0-.4,0-.8-.1-1,0-.2,0-.2.2-.3.4-.2.3-.8,0-.9.3-.3.3-.6,0-.8-.3-.3,0-.4.2-.7.8-.7.2-.9-.7-1.7-.6-.6-.9-1.1-.8-2.1.2-2.1-.8-3.2-2.8-3.9-2.3-.8-5-.3-6.9,1.6,0,0,0,0,0,0,.3-.4.6-.8.9-1.2,1.8-1.8,4.2-2.3,6.5-1.7,2.5.7,4.2,2.4,3.8,5.1-.1.8,0,1.2.4,1.5.5.4,1.8.6,1.8,1.5s-.3.9-.6,1.1c-.2.2-.2.2,0,.4.5.3.4.9,0,1.3.6.5.4,1.1-.1,1.3-.2,0-.4,0-.3.3.3,1,.2,1.5-.5,1.7-.6.2-1.6,0-2.3,0-.2,0-.3,0-.3.2,0,.2.1.9.2,1.2.8,2.9,3.5,4.9,6.6,4.8-.5.1-1,.2-1.5.2-3.4,0-6.2-2.5-6.6-5.8,0-.2,0-.6-.2-.7,0,0-.1,0-.3,0-.4,0-1-.2-1.4-.3"/>
</svg>