<?xml version="1.0" encoding="UTF-8"?>
<svg id="Camada_1" xmlns="http://www.w3.org/2000/svg" version="1.1" xmlns:xlink="http://www.w3.org/1999/xlink" viewBox="0 0 85 36">
  <!-- Generator: Adobe Illustrator 29.3.1, SVG Export Plug-In . SVG Version: 2.1.0 Build 151)  -->
  <defs>
    <style>
      .st0 {
        fill: url(#Gradiente_sem_nome_2);
      }

      .st1 {
        fill: url(#Gradiente_sem_nome);
      }

      .st2 {
        fill: #00482e;
        isolation: isolate;
        opacity: .3;
      }

      .st3 {
        fill: #525754;
      }

      .st4 {
        fill: url(#Gradiente_sem_nome_3);
      }
    </style>
    <linearGradient id="Gradiente_sem_nome" data-name="Gradiente sem nome" x1="57.8" y1="31.1" x2="62.5" y2="31.1" gradientTransform="translate(0 38.3) scale(1 -1)" gradientUnits="userSpaceOnUse">
      <stop offset="0" stop-color="#1fb58c"/>
      <stop offset="0" stop-color="#22b58d"/>
      <stop offset=".4" stop-color="#8fd3b5"/>
      <stop offset=".5" stop-color="#bbdfc6"/>
      <stop offset=".8" stop-color="#dceee4"/>
      <stop offset="1" stop-color="#f9fcff"/>
    </linearGradient>
    <linearGradient id="Gradiente_sem_nome_2" data-name="Gradiente sem nome 2" x1="58.9" y1="31.1" x2="62.9" y2="31.1" gradientTransform="translate(0 38.3) scale(1 -1)" gradientUnits="userSpaceOnUse">
      <stop offset="0" stop-color="#1fb58c"/>
      <stop offset=".1" stop-color="#22b58d"/>
      <stop offset=".5" stop-color="#8fd3b5"/>
      <stop offset=".6" stop-color="#bbdfc6"/>
      <stop offset=".8" stop-color="#dceee4"/>
      <stop offset="1" stop-color="#f9fcff"/>
    </linearGradient>
    <linearGradient id="Gradiente_sem_nome_3" data-name="Gradiente sem nome 3" x1="57.7" y1="31" x2="62.7" y2="31" gradientTransform="translate(0 38.3) scale(1 -1)" gradientUnits="userSpaceOnUse">
      <stop offset="0" stop-color="#005c57"/>
      <stop offset=".5" stop-color="#007d53"/>
      <stop offset=".9" stop-color="#009e4f"/>
      <stop offset="1" stop-color="#00ab4e"/>
    </linearGradient>
  </defs>
  <g>
    <g>
      <path class="st3" d="M17.9,5.2h-1.5c-.3,0-.5.1-.7.3s-.3.4-.3.7v13.3s0,0,0,0h1.5c.3,0,.6-.1.8-.4.1-.2.2-.4.2-.6V5.2s0,0,0,0h0Z"/>
      <path class="st3" d="M32.6,5.2h-11.7c-.3,0-.5.1-.7.3s-.3.4-.3.7v1.5s0,0,0,0h5v11.7s0,0,0,0h1.5c.3,0,.6-.1.8-.4.1-.2.2-.4.2-.6V7.7h4.1c.2,0,.5,0,.7-.2.2-.2.3-.4.3-.7v-1.5s0,0,0,0h0Z"/>
      <path class="st3" d="M43.9,17.6c-.5-.6-1.3-.9-2.1-.6-.6.2-1.1.3-1.8.3-2.7,0-4.8-2.2-4.8-4.9s2.2-4.9,4.8-4.9,1.2.1,1.7.3c.7.3,1.6,0,2-.6l.5-.6c-1.2-.9-2.6-1.4-4.2-1.4-3.9,0-7.1,3.2-7.1,7.2s3.2,7.2,7.1,7.2,3.1-.5,4.3-1.5l-.4-.6h0Z"/>
    </g>
    <g>
      <path class="st3" d="M56.9,13.1c-.3-.5-.8-.9-1.3-1.2-.2-.1-.5-.2-.7-.3.5-.3.9-.6,1.2-1,.3-.5.5-1,.5-1.7,0-1.2-.3-2.1-.9-2.7-.6-.6-1.6-.9-2.9-.9h-5.1c-.3,0-.7.1-.9.3-.2.2-.3.5-.3.9v9.1h1.3c.7,0,1.3-.6,1.3-1.3v-1.1h3.5c.3,0,.6,0,.9.1.3,0,.6.2.9.5.2.3.4.7.4,1.3s-.2,1.2-.6,1.5-.9.5-1.5.5h-5.2c-.6,0-1.1.5-1.1,1.1v1.2h6.3c.5,0,1,0,1.6-.2s1.1-.3,1.5-.6c.5-.3.8-.8,1.2-1.3.3-.6.4-1.3.4-2.2s-.2-1.5-.5-2h0ZM53.6,10.3c-.3.3-.7.4-1.1.4h-3.4v-3.2h3.3c.5,0,.8.1,1.2.4.3.3.4.7.4,1.3s-.2.9-.5,1.1h0Z"/>
      <path class="st3" d="M61,19.5h-1.6s0,0,0,0v-8.4c0-.3,0-.5.3-.7s.4-.3.7-.3h1.6s0,0,0,0v8.4c0,.2,0,.5-.2.6-.2.2-.4.3-.7.3Z"/>
      <path class="st3" d="M73.7,10.6l-.7.7c-.6.6-.8,1.4-.6,2.1,0,.2,0,.4,0,.6,0,1.8-1.4,3.3-3.1,3.3s-3.1-1.5-3.1-3.3,1.4-3.3,3.1-3.3.5,0,.7,0c.8.2,1.6,0,2.2-.6l.6-.6c-.9-.8-2.1-1.3-3.4-1.3-3,0-5.5,2.6-5.5,5.7s2.5,5.7,5.5,5.7,5.5-2.5,5.5-5.7-.4-2.5-1.1-3.4h0Z"/>
      <path class="st1" d="M60.7,4.8c-1,0-1.8.8-1.8,1.8v2.9h.2c.3-.5.8-.6,1.2-.6h.8c1,0,1.8-.8,1.8-1.8v-2.3h-2.2Z"/>
      <path class="st0" d="M58.9,9.6h.2c.3-.5.8-.6,1.2-.6h.8c1,0,1.8-.8,1.8-1.8v-2.3c-2,.8-3.6,2.8-4,4.7h0Z"/>
      <g>
        <path class="st4" d="M60.8,4.9c-1.1,0-1.9.8-1.9,1.8v2.9h.2c.4-.5.8-.6,1.3-.6h.9c1.1,0,1.9-.8,1.9-1.8v-2.3h-2.4Z"/>
        <path class="st2" d="M58.9,9.6h.2c.4-.5.8-.7,1.3-.7h.9c1.1,0,1.9-.8,1.9-1.9v-2.1c-2.1.8-3.8,2.7-4.3,4.7h0Z"/>
      </g>
    </g>
  </g>
  <g>
    <path class="st3" d="M15.8,23.3v3.1h-.4v-3.1h.4Z"/>
    <path class="st3" d="M16.6,26.4v-3.1h.4l1.5,2.4h0c0,0,0-2.4,0-2.4h.4v3.1h-.4l-1.5-2.4h0c0,0,0,2.4,0,2.4h-.4,0Z"/>
    <path class="st3" d="M20.7,26.4c-.2,0-.3,0-.4,0-.1,0-.3,0-.4-.1-.1,0-.2-.1-.3-.2l.3-.3c.1.1.2.2.4.2s.3,0,.5,0c.2,0,.4,0,.5-.1.1,0,.2-.2.2-.4h0c0-.1,0-.2,0-.3,0,0-.2-.1-.2-.1,0,0-.2,0-.3,0-.1,0-.2,0-.3,0-.1,0-.2,0-.3-.1,0,0-.2-.1-.2-.2s0-.2,0-.4h0c0-.3,0-.5.3-.7.2-.2.5-.2.8-.2s.3,0,.5,0,.3.1.5.2l-.2.4c-.1,0-.2-.1-.3-.2-.1,0-.2,0-.3,0-.2,0-.4,0-.5.1s-.2.2-.2.4h0c0,.1,0,.2,0,.3,0,0,.2.1.3.1.1,0,.2,0,.4,0,.1,0,.2,0,.3,0s.2,0,.3.1.2.1.2.2,0,.2,0,.4h0c0,.3,0,.5-.3.7s-.5.2-.8.2h0Z"/>
    <path class="st3" d="M22,23.7v-.4h2.2v.4h-2.2ZM22.9,26.4v-2.9h.4v2.9h-.4Z"/>
    <path class="st3" d="M25.1,23.3v3.1h-.4v-3.1h.4Z"/>
    <path class="st3" d="M25.7,23.7v-.4h2.2v.4h-2.2ZM26.6,26.4v-2.9h.4v2.9h-.4Z"/>
    <path class="st3" d="M29.4,26.4c-.3,0-.6-.1-.8-.3s-.3-.5-.3-.9v-2h.4v2c0,.2,0,.4.2.5.1.1.3.2.5.2s.4,0,.5-.2.2-.3.2-.5v-2h.4v2c0,.4,0,.6-.3.9s-.5.3-.8.3h0Z"/>
    <path class="st3" d="M30.8,23.7v-.4h2.2v.4h-2.2ZM31.7,26.4v-2.9h.4v2.9h-.4Z"/>
    <path class="st3" d="M34.4,26.4c-.2,0-.4,0-.6-.1s-.3-.2-.4-.4-.1-.4-.1-.6v-.9c0-.2,0-.4.1-.6s.2-.3.4-.4c.2-.1.4-.1.6-.1s.4,0,.6.1c.2,0,.3.2.4.4s.1.4.1.6v.9c0,.2,0,.4-.1.6,0,.2-.2.3-.4.4-.2,0-.4.1-.6.1ZM34.4,26c.2,0,.3,0,.5-.2s.2-.3.2-.5v-.9c0-.2,0-.4-.2-.5s-.3-.2-.5-.2-.3,0-.5.2-.2.3-.2.5v.9c0,.2,0,.4.2.5s.3.2.5.2Z"/>
    <path class="st3" d="M37.1,23.7v-.4h2.2v.4h-2.2ZM37.9,26.4v-2.9h.4v2.9h-.4Z"/>
    <path class="st3" d="M39.7,26.4v-3.1h.4v3.1h-.4ZM40,23.7v-.4h1.8v.4h-1.8ZM40,25.1v-.4h1.6v.4h-1.6ZM40,26.4v-.4h1.8v.4h-1.8Z"/>
    <path class="st3" d="M43.4,26.4c-.2,0-.4,0-.6-.1-.2-.1-.3-.2-.4-.4,0-.2-.1-.4-.1-.6v-.9c0-.2,0-.4.1-.6s.2-.3.4-.4c.2-.1.3-.1.6-.1s.3,0,.5.1.3.2.4.3c0,.1.2.3.2.5h-.4c0-.1,0-.2-.1-.3,0,0-.1-.1-.2-.2,0,0-.2,0-.3,0-.2,0-.3,0-.5.2-.1.1-.2.3-.2.5v.9c0,.2,0,.4.2.5.1.1.3.2.5.2s.3,0,.4-.1c.1,0,.2-.2.2-.4h.4c0,.2,0,.4-.2.5,0,.1-.2.2-.4.3s-.3.1-.5.1h0Z"/>
    <path class="st3" d="M45.1,26.4v-3.1h.4l1.5,2.4h0c0,0,0-2.4,0-2.4h.4v3.1h-.4l-1.5-2.4h0c0,0,0,2.4,0,2.4h-.4,0Z"/>
    <path class="st3" d="M49.3,26.4c-.2,0-.4,0-.6-.1s-.3-.2-.4-.4-.1-.4-.1-.6v-.9c0-.2,0-.4.1-.6s.2-.3.4-.4c.2-.1.4-.1.6-.1s.4,0,.6.1c.2,0,.3.2.4.4s.1.4.1.6v.9c0,.2,0,.4-.1.6,0,.2-.2.3-.4.4-.2,0-.4.1-.6.1ZM49.3,26c.2,0,.3,0,.5-.2s.2-.3.2-.5v-.9c0-.2,0-.4-.2-.5s-.3-.2-.5-.2-.3,0-.5.2-.2.3-.2.5v.9c0,.2,0,.4.2.5s.3.2.5.2Z"/>
    <path class="st3" d="M51.1,26.4v-3.1h.4v3.1h-.4ZM51.3,26.4v-.4h1.8v.4h-1.8Z"/>
    <path class="st3" d="M54.6,26.4c-.2,0-.4,0-.6-.1-.2,0-.3-.2-.4-.4s-.1-.4-.1-.6v-.9c0-.2,0-.4.1-.6s.2-.3.4-.4c.2-.1.4-.1.6-.1s.4,0,.6.1c.2,0,.3.2.4.4s.1.4.1.6v.9c0,.2,0,.4-.1.6,0,.2-.2.3-.4.4s-.4.1-.6.1ZM54.6,26c.2,0,.3,0,.5-.2.1-.1.2-.3.2-.5v-.9c0-.2,0-.4-.2-.5-.1-.1-.3-.2-.5-.2s-.3,0-.5.2-.2.3-.2.5v.9c0,.2,0,.4.2.5s.3.2.5.2ZM54.6,23.1l-.2-.2.6-.5.3.3-.6.5Z"/>
    <path class="st3" d="M57.4,24.7h1.1v.5c0,.2,0,.4-.1.6s-.2.3-.4.4-.3.1-.6.1-.4,0-.6-.1c-.2,0-.3-.2-.4-.4s-.1-.4-.1-.6v-.9c0-.2,0-.4.1-.6s.2-.3.4-.4c.2-.1.3-.1.6-.1s.3,0,.5.1.3.2.4.3c0,.1.2.3.2.5h-.5c0-.2-.1-.3-.2-.4s-.2-.1-.4-.1c-.2,0-.3,0-.5.2-.1.1-.2.3-.2.5v.9c0,.2,0,.4.2.5.1.1.3.2.5.2s.3,0,.5-.2c.1-.1.2-.3.2-.5h0c0-.1-.6-.1-.6-.1v-.4h0Z"/>
    <path class="st3" d="M59.6,23.3v3.1h-.4v-3.1h.4Z"/>
    <path class="st3" d="M61.5,26.4c-.2,0-.4,0-.6-.1s-.3-.2-.4-.4-.1-.4-.1-.6v-.9c0-.2,0-.4.1-.6s.2-.3.4-.4.3-.1.6-.1.3,0,.5.1.3.2.4.3c0,.1.2.3.2.5h-.4c0-.1,0-.2-.1-.3s-.1-.1-.2-.2c0,0-.2,0-.3,0-.2,0-.3,0-.5.2-.1.1-.2.3-.2.5v.9c0,.2,0,.4.2.5.1.1.3.2.5.2s.3,0,.4-.1c.1,0,.2-.2.2-.4h.4c0,.2,0,.4-.2.5,0,.1-.2.2-.4.3s-.3.1-.5.1h0Z"/>
    <path class="st3" d="M64.1,26.4c-.2,0-.4,0-.6-.1s-.3-.2-.4-.4-.1-.4-.1-.6v-.9c0-.2,0-.4.1-.6,0-.2.2-.3.4-.4.2-.1.4-.1.6-.1s.4,0,.6.1c.2,0,.3.2.4.4s.1.4.1.6v.9c0,.2,0,.4-.1.6s-.2.3-.4.4c-.2,0-.4.1-.6.1ZM64.1,26c.2,0,.3,0,.5-.2s.2-.3.2-.5v-.9c0-.2,0-.4-.2-.5s-.3-.2-.5-.2-.3,0-.5.2-.2.3-.2.5v.9c0,.2,0,.4.2.5s.3.2.5.2Z"/>
    <path class="st3" d="M67.2,26.4v-3.1h.4v3.1h-.4ZM67.5,26.4v-.4h.7c.2,0,.4,0,.5-.2.1-.1.2-.3.2-.5v-.9c0-.2,0-.4-.2-.5s-.3-.2-.5-.2h-.7v-.4h.7c.4,0,.7.1.9.3.2.2.3.5.3.8v.9c0,.2,0,.4-.1.6,0,.2-.2.3-.4.4-.2,0-.4.1-.6.1h-.7Z"/>
    <path class="st3" d="M69.7,26.4l1.2-3.1h.4l1.2,3.1h-.5l-.9-2.5-.9,2.5h-.5ZM70.3,25.7v-.4h1.6v.4h-1.6Z"/>
    <path class="st3" d="M73.7,26.4c-.2,0-.3,0-.4,0-.1,0-.3,0-.4-.1-.1,0-.2-.1-.3-.2l.3-.3c.1.1.2.2.4.2s.3,0,.5,0c.2,0,.4,0,.5-.1.1,0,.2-.2.2-.4h0c0-.1,0-.2,0-.3,0,0-.2-.1-.2-.1,0,0-.2,0-.3,0s-.2,0-.3,0-.2,0-.3-.1-.2-.1-.2-.2,0-.2,0-.4h0c0-.3,0-.5.3-.7.2-.2.5-.2.8-.2s.3,0,.5,0c.2,0,.3.1.5.2l-.2.4c-.1,0-.2-.1-.3-.2-.1,0-.2,0-.3,0-.2,0-.4,0-.5.1s-.2.2-.2.4h0c0,.1,0,.2,0,.3,0,0,.2.1.3.1.1,0,.2,0,.4,0,.1,0,.2,0,.3,0,.1,0,.2,0,.3.1s.2.1.2.2,0,.2,0,.4h0c0,.3,0,.5-.3.7-.2.2-.5.2-.8.2h0Z"/>
    <path class="st3" d="M16.4,31.2c-.2,0-.4,0-.6-.1s-.3-.2-.4-.4-.1-.4-.1-.6v-.9c0-.2,0-.5.1-.6s.2-.3.4-.4.4-.1.6-.1.4,0,.5.1c.2,0,.3.2.4.3,0,.1.2.3.2.5h-.5c0-.1,0-.2-.1-.3,0,0-.1-.1-.2-.2s-.2,0-.3,0c-.2,0-.4,0-.5.2s-.2.3-.2.5v.9c0,.2,0,.4.2.5s.3.2.5.2.3,0,.4-.1c.1,0,.2-.2.2-.4h.5c0,.2-.1.4-.2.5-.1.1-.2.3-.4.3-.2,0-.3.1-.5.1h0Z"/>
    <path class="st3" d="M17.7,31.2l1.2-3.2h.4l1.2,3.2h-.5l-.9-2.6-.9,2.6h-.5,0ZM18.3,30.5v-.4h1.7v.4h-1.7Z"/>
    <path class="st3" d="M21,31.2v-3.2h.5v3.2h-.5ZM21.3,31.2v-.4h.7c.2,0,.4,0,.5-.2s.2-.3.2-.5v-1c0-.2,0-.4-.2-.5s-.3-.2-.5-.2h-.7v-.4h.7c.4,0,.7.1.9.3s.3.5.3.9v.9c0,.2,0,.5-.1.6,0,.2-.2.3-.4.4-.2,0-.4.1-.7.1h-.7Z"/>
    <path class="st3" d="M23.9,31.2v-3.2h.5v3.2h-.5ZM24.2,28.4v-.4h1.9v.4h-1.9ZM24.2,29.8v-.4h1.6v.4h-1.6ZM24.2,31.2v-.4h1.9v.4h-1.9Z"/>
    <path class="st3" d="M27.1,28v3.2h-.5v-3.2h.5Z"/>
    <path class="st3" d="M27.6,31.2l1.2-3.2h.4l1.2,3.2h-.5l-.9-2.6-.9,2.6h-.5,0ZM28.1,30.5v-.4h1.7v.4h-1.7Z"/>
    <path class="st3" d="M31.6,31.2c-.2,0-.3,0-.4,0s-.3,0-.4-.1-.2-.1-.3-.2l.3-.4c.1.1.3.2.4.2s.3,0,.5,0,.4,0,.6-.1c.1,0,.2-.2.2-.4h0c0-.1,0-.2,0-.3,0,0-.2-.1-.3-.1-.1,0-.2,0-.3,0-.1,0-.2,0-.4,0-.1,0-.2,0-.3-.1s-.2-.1-.2-.3,0-.3,0-.5h0c0-.3,0-.5.3-.7.2-.2.5-.2.8-.2s.3,0,.5,0c.2,0,.3.1.5.2l-.3.4c-.1,0-.2-.2-.4-.2s-.2,0-.4,0c-.2,0-.4,0-.5.1-.1,0-.2.2-.2.4h0c0,.1,0,.2.1.3,0,0,.2.1.3.1s.2,0,.4,0c.1,0,.2,0,.4,0,.1,0,.2,0,.3.1s.2.1.2.3c0,.1,0,.2,0,.4h0c0,.3,0,.5-.3.7-.2.2-.5.2-.9.2h0Z"/>
    <path class="st3" d="M34.7,31.2v-3.2h.4v3.2h-.4ZM34.9,31.2v-.4h.9c.2,0,.4,0,.5-.1s.2-.2.2-.4h0c0-.2,0-.3-.1-.4s-.2-.1-.4-.1h-1v-.4h1c.2,0,.3,0,.4-.1s.1-.2.1-.4,0-.3-.1-.4c0,0-.2-.1-.4-.1h-.9v-.4h1c.3,0,.6,0,.7.2.2.2.2.4.2.6s0,.3-.1.4c0,.1-.2.2-.4.3.2,0,.4.1.5.3.1.1.2.3.2.5h0c0,.3,0,.5-.3.6-.2.2-.4.2-.7.2h-1.1Z"/>
    <path class="st3" d="M38.1,28v3.2h-.4v-3.2h.4Z"/>
    <path class="st3" d="M39.9,31.2c-.2,0-.4,0-.6-.1s-.3-.2-.4-.4c0-.2-.1-.4-.1-.6v-.9c0-.2,0-.5.1-.6s.2-.3.4-.4.4-.1.6-.1.4,0,.6.1.3.2.4.4c0,.2.1.4.1.6v.9c0,.2,0,.5-.1.6,0,.2-.2.3-.4.4s-.4.1-.6.1ZM39.9,30.8c.2,0,.4,0,.5-.2.1-.1.2-.3.2-.5v-1c0-.2,0-.4-.2-.5-.1-.1-.3-.2-.5-.2s-.4,0-.5.2c-.1.1-.2.3-.2.5v1c0,.2,0,.4.2.5.1.1.3.2.5.2Z"/>
    <path class="st3" d="M42.7,31.2c-.2,0-.3,0-.4,0s-.3,0-.4-.1-.2-.1-.3-.2l.3-.4c.1.1.3.2.4.2s.3,0,.5,0,.4,0,.5-.1c.1,0,.2-.2.2-.4h0c0-.1,0-.2,0-.3,0,0-.2-.1-.3-.1-.1,0-.2,0-.3,0-.1,0-.2,0-.4,0-.1,0-.2,0-.3-.1s-.2-.1-.2-.3,0-.3,0-.5h0c0-.3,0-.5.3-.7.2-.2.5-.2.8-.2s.3,0,.5,0,.3.1.5.2l-.3.4c-.1,0-.2-.2-.4-.2s-.2,0-.4,0c-.2,0-.4,0-.5.1-.1,0-.2.2-.2.4h0c0,.1,0,.2.1.3s.2.1.3.1c.1,0,.2,0,.4,0,.1,0,.2,0,.4,0s.2,0,.3.1c0,0,.2.1.2.3,0,.1,0,.2,0,.4h0c0,.3,0,.5-.3.7-.2.2-.5.2-.9.2h0Z"/>
    <path class="st3" d="M45.4,31.2c-.2,0-.3,0-.4,0s-.3,0-.4-.1-.2-.1-.3-.2l.3-.4c.1.1.3.2.4.2s.3,0,.5,0,.4,0,.5-.1c.1,0,.2-.2.2-.4h0c0-.1,0-.2,0-.3s-.2-.1-.3-.1c-.1,0-.2,0-.3,0-.1,0-.2,0-.4,0-.1,0-.2,0-.3-.1s-.2-.1-.2-.3,0-.3,0-.5h0c0-.3,0-.5.3-.7.2-.2.5-.2.8-.2s.3,0,.5,0,.3.1.5.2l-.3.4c-.1,0-.2-.2-.4-.2-.1,0-.2,0-.4,0-.2,0-.4,0-.5.1-.1,0-.2.2-.2.4h0c0,.1,0,.2.1.3,0,0,.2.1.3.1s.2,0,.4,0c.1,0,.2,0,.4,0,.1,0,.2,0,.3.1,0,0,.2.1.2.3,0,.1,0,.2,0,.4h0c0,.3,0,.5-.3.7-.2.2-.5.2-.9.2h0Z"/>
    <path class="st3" d="M48.2,31.2c-.4,0-.6-.1-.8-.3s-.3-.5-.3-.9v-2.1h.4v2.1c0,.2,0,.4.2.5s.3.2.5.2.4,0,.5-.2c.1-.1.2-.3.2-.5v-2.1h.4v2.1c0,.4,0,.7-.3.9-.2.2-.5.3-.8.3h0Z"/>
    <path class="st3" d="M51,31.2c-.2,0-.3,0-.4,0s-.3,0-.4-.1-.2-.1-.3-.2l.3-.4c.1.1.3.2.4.2s.3,0,.5,0,.4,0,.5-.1c.1,0,.2-.2.2-.4h0c0-.1,0-.2,0-.3,0,0-.2-.1-.3-.1-.1,0-.2,0-.3,0-.1,0-.2,0-.4,0-.1,0-.2,0-.3-.1s-.2-.1-.2-.3,0-.3,0-.5h0c0-.3,0-.5.3-.7.2-.2.5-.2.8-.2s.3,0,.5,0,.3.1.5.2l-.3.4c-.1,0-.2-.2-.4-.2s-.2,0-.4,0c-.2,0-.4,0-.5.1-.1,0-.2.2-.2.4h0c0,.1,0,.2.1.3s.2.1.3.1c.1,0,.2,0,.4,0,.1,0,.2,0,.4,0s.2,0,.3.1c0,0,.2.1.2.3,0,.1,0,.2,0,.4h0c0,.3,0,.5-.3.7-.2.2-.5.2-.9.2h0Z"/>
    <path class="st3" d="M52.4,28.4v-.4h2.3v.4h-2.3ZM53.3,31.2v-3h.4v3h-.4Z"/>
    <path class="st3" d="M55.1,31.2v-3.2h.4v3.2h-.4ZM55.3,28.4v-.4h1.9v.4h-1.9ZM55.3,29.8v-.4h1.6v.4h-1.6ZM55.3,31.2v-.4h1.9v.4h-1.9Z"/>
    <path class="st3" d="M57.8,31.2v-3.2h.4l1.6,2.5h0c0,0,0-2.5,0-2.5h.4v3.2h-.4l-1.6-2.5h0c0,0,0,2.5,0,2.5h-.4,0Z"/>
    <path class="st3" d="M60.8,28.4v-.4h2.3v.4h-2.3ZM61.7,31.2v-3h.4v3h-.4Z"/>
    <path class="st3" d="M63,31.2l1.2-3.2h.4l1.2,3.2h-.5l-.9-2.6-.9,2.6h-.5,0ZM63.5,30.5v-.4h1.7v.4h-1.7ZM64.4,27.7l-.2-.3.6-.5.3.3-.7.5h0Z"/>
    <path class="st3" d="M66.8,31.2l-1.1-3.2h.5l.8,2.5.8-2.5h.5l-1.1,3.2h-.4Z"/>
    <path class="st3" d="M68.7,31.2v-3.2h.4v3.2h-.4ZM68.9,28.4v-.4h1.9v.4h-1.9ZM68.9,29.8v-.4h1.6v.4h-1.6ZM68.9,31.2v-.4h1.9v.4h-1.9Z"/>
    <path class="st3" d="M71.9,28v3.2h-.4v-3.2h.4Z"/>
    <path class="st3" d="M73.7,31.2c-.2,0-.3,0-.4,0s-.3,0-.4-.1-.2-.1-.3-.2l.3-.4c.1.1.3.2.4.2s.3,0,.5,0,.4,0,.5-.1c.1,0,.2-.2.2-.4h0c0-.1,0-.2,0-.3,0,0-.2-.1-.3-.1-.1,0-.2,0-.3,0-.1,0-.2,0-.4,0-.1,0-.2,0-.3-.1s-.2-.1-.2-.3,0-.3,0-.5h0c0-.3,0-.5.3-.7.2-.2.5-.2.8-.2s.3,0,.5,0,.3.1.5.2l-.3.4c-.1,0-.2-.2-.4-.2s-.2,0-.4,0c-.2,0-.4,0-.5.1-.1,0-.2.2-.2.4h0c0,.1,0,.2.1.3s.2.1.3.1c.1,0,.2,0,.4,0,.1,0,.2,0,.4,0s.2,0,.3.1c0,0,.2.1.2.3,0,.1,0,.2,0,.4h0c0,.3,0,.5-.3.7-.2.2-.5.2-.9.2h0Z"/>
  </g>
</svg>