<?xml version="1.0" encoding="UTF-8"?>
<svg id="Camada_1" xmlns="http://www.w3.org/2000/svg" version="1.1" viewBox="0 0 85 36">
  <!-- Generator: Adobe Illustrator 29.3.1, SVG Export Plug-In . SVG Version: 2.1.0 Build 151)  -->
  <defs>
    <style>
      .st0 {
        fill: #f7b617;
      }

      .st1 {
        fill: #3b91cf;
      }

      .st2 {
        fill: #9cc33b;
      }

      .st3 {
        fill: #3c3b52;
      }

      .st4 {
        fill: #e01b5e;
      }

      .st5 {
        fill: #574e62;
      }
    </style>
  </defs>
  <path class="st1" d="M35.6,17.1c-1.6,0-3.1,0-4.7,0s-.2,0-.2.2v11.3c0,.1,0,.2.2.2h4.7c.7,0,1.4-.1,2.1-.4,2.3-1,3.6-2.7,3.7-5.1,0-1.4-.3-2.8-1.3-3.9-1.2-1.4-2.7-2.2-4.6-2.2h0ZM36.8,25.8c-.4.2-.8.2-1.2.2h-2c-.1,0-.1,0-.1-.1v-6c0-.1,0-.2.2-.2h2c1.2,0,2.2.6,2.8,1.6,1,1.6.2,3.7-1.6,4.4h0Z"/>
  <path class="st4" d="M28.8,26.2h-4.8c-.1,0-.2,0-.2-.1v-1.8c0-.1,0-.1.2-.1h3.8c.1,0,.2,0,.2-.1v-2.2c0-.1,0-.1-.2-.1h-3.8c-.1,0-.2,0-.2-.1v-1.7c0-.1,0-.2.2-.2h4.8c.1,0,.1,0,.1-.1v-2.2c0-.1,0-.2-.2-.2h-7.4c-.1,0-.2,0-.2.2v11.3c0,.1,0,.2.1.2h7.5c.1,0,.1,0,.1-.1v-2.2c0-.1,0-.2-.2-.2h0Z"/>
  <path class="st0" d="M52.6,17.1h-2.3c-.1,0-.2,0-.2.2v6.7c0,.7-.3,1.3-.8,1.7-.7.6-1.5.7-2.3.3-.8-.4-1.3-1-1.3-2v-6.8c0-.1,0-.2-.2-.2h-2.3c-.1,0-.2,0-.2.2v6.8c0,.7.1,1.3.4,1.9.9,2,3.1,3.2,5.3,2.8,2.3-.4,4.1-2.4,4-4.7,0-1.1,0-2.1,0-3.2v-3.6c0-.1,0-.2-.2-.2h0Z"/>
  <path class="st2" d="M64.8,26.4c-.2-.2-.3-.3-.5-.5-.6-.7-1.7-.6-2.2-.2-.4.3-.8.5-1.3.5-.9.1-1.8,0-2.6-.7-.7-.5-1.1-1.1-1.2-2-.1-.7,0-1.3.2-1.9.5-1.1,1.3-1.7,2.5-2,.9-.2,1.7,0,2.4.5.4.3.8.4,1.3.3.3,0,.6-.2.9-.4.2-.2.4-.4.6-.6,0,0,0-.1.2,0,0,0,0,0,0-.1-.5-.5-1.1-1-1.7-1.4-1.2-.7-2.6-1-4-.8-1.4.2-2.6.9-3.5,2-1.2,1.4-1.6,3-1.4,4.8.2,1.5.9,2.7,2.1,3.6,1.6,1.3,3.5,1.7,5.5,1.1,1.2-.4,2.2-1.1,3.1-2,0,0,0,0,0-.1,0,0-.1,0-.2,0h0Z"/>
  <path class="st5" d="M50.2,8.8c.2-.1.4-.2.5-.4.6-.7.9-1.6.7-2.5-.3-1.5-1.6-2.6-3.1-2.6h-4.3c-.1,0-.2,0-.2.2v11.4c0,.1,0,.2.2.2h4.8c.9,0,1.7-.4,2.3-1,.9-1.1,1.1-2.3.6-3.6-.3-.7-.7-1.2-1.5-1.5h0ZM44.8,6.4v-2c0-.1,0-.1.1-.1h3.2c1,0,1.9.7,2.2,1.7.2.9-.2,1.8-1.1,2.3-.3.2-.7.3-1.1.3h-3.2c-.1,0-.2,0-.2-.2v-1.9h0ZM50.9,11.7c0,1.2-1,2.1-2.2,2.1-1.3,0-2.6,0-3.8,0s-.1,0-.1-.1v-4.1c0-.1,0-.1.1-.1h3.9c.7,0,1.2.2,1.7.7.3.4.4,1,.4,1.5Z"/>
  <path class="st5" d="M36.1,3.1c-3.2,0-6,2.6-6,5.9,0,3.3,2.7,5.9,5.9,6,3.4,0,6.1-2.7,6.1-5.9s-2.7-6-6-6ZM36,14c-2.7,0-4.9-2.3-4.9-4.9,0-2.7,2.2-4.9,5-4.9s4.9,2.2,4.9,4.9-2.3,5-5,4.9h0Z"/>
  <path class="st5" d="M59.1,3.1c-3.1,0-5.9,2.5-6,5.9,0,3.4,2.7,6,5.9,6.1,3.4,0,6.1-2.7,6.1-6s-2.7-6-6-6ZM59.1,14c-2.7,0-4.9-2.2-4.9-5s2.2-4.9,5-4.9c2.7,0,5,2.3,4.9,5,0,2.6-2.2,4.9-5,4.8h0Z"/>
  <path class="st5" d="M26.1,9.8s0,0,0,0c.4,0,.8-.2,1.1-.4,1-.7,1.5-1.7,1.5-3,0-1.8-1.5-3.1-3.3-3.1h-4c-.1,0-.2,0-.2.2v11.3c0,.1,0,.2.2.2.2,0,.5,0,.7,0,.1,0,.2,0,.2-.2v-4.8c0-.1,0-.1.1-.1h2.1c0,0,.1,0,.2,0,1.1,1.5,2.2,2.9,3.3,4.4.4.6,1,.7,1.7.6-1.3-1.7-2.5-3.4-3.8-5.1,0,0,0,0,0,0h0ZM22.5,8.7c-.1,0-.1,0-.1-.1v-4.2c0-.1,0-.2.2-.2h2.9c1.1,0,2.1.8,2.2,1.9.2,1.1-.5,2.2-1.7,2.5-.2,0-.3,0-.5,0h-3,0Z"/>
  <path class="st3" d="M64.1,33.3h-.3l.6-1.7h.4l.6,1.7h-.3l-.4-1.3h0l-.4,1.3h0ZM64.1,32.6h.9v.2h-.9v-.2Z"/>
  <path class="st3" d="M63.5,31.6v1.7h-.3v-1.7h.3Z"/>
  <path class="st3" d="M62.6,32.1s0,0,0-.1c0,0,0,0,0,0s0,0-.1,0c0,0,0,0-.1,0,0,0-.2,0-.2,0,0,0-.1.1-.2.2s0,.2,0,.3,0,.2,0,.3,0,.2.2.2c0,0,.2,0,.2,0s.2,0,.2,0,.1,0,.1-.1c0,0,0-.1,0-.2h0-.4s0-.2,0-.2h.7v.2c0,.1,0,.3,0,.4s-.1.2-.2.2-.2,0-.4,0-.3,0-.4,0c-.1,0-.2-.2-.3-.3s0-.3,0-.5,0-.2,0-.4,0-.2.2-.3c0,0,.2-.1.2-.2s.2,0,.3,0,.2,0,.3,0,.2,0,.2.1c0,0,.1.1.2.2s0,.1,0,.2h-.3Z"/>
  <path class="st3" d="M61.2,32.4c0,.2,0,.3,0,.5,0,.1-.2.2-.3.3-.1,0-.2,0-.4,0s-.3,0-.4,0c-.1,0-.2-.2-.3-.3,0-.1,0-.3,0-.5s0-.3,0-.5c0-.1.2-.2.3-.3.1,0,.2-.1.4-.1s.3,0,.4.1c.1,0,.2.2.3.3,0,.1,0,.3,0,.5ZM60.9,32.4c0-.1,0-.2,0-.3s0-.1-.2-.2c0,0-.2,0-.2,0s-.2,0-.2,0c0,0-.1.1-.2.2s0,.2,0,.3,0,.2,0,.3,0,.2.2.2c0,0,.2,0,.2,0s.2,0,.2,0,.1-.1.2-.2,0-.2,0-.3Z"/>
  <path class="st3" d="M58.4,33.3v-1.7h.3v1.4h.7v.2h-1,0Z"/>
  <path class="st3" d="M58.1,32.4c0,.2,0,.3,0,.5,0,.1-.2.2-.3.3-.1,0-.2,0-.4,0s-.3,0-.4,0c-.1,0-.2-.2-.3-.3,0-.1,0-.3,0-.5s0-.3,0-.5c0-.1.2-.2.3-.3.1,0,.2-.1.4-.1s.3,0,.4.1c.1,0,.2.2.3.3,0,.1,0,.3,0,.5ZM57.8,32.4c0-.1,0-.2,0-.3s0-.1-.2-.2c0,0-.2,0-.2,0s-.2,0-.2,0c0,0-.1.1-.2.2s0,.2,0,.3,0,.2,0,.3,0,.2.2.2c0,0,.2,0,.2,0s.2,0,.2,0,.1-.1.2-.2,0-.2,0-.3Z"/>
  <path class="st3" d="M56.3,31.6v1.7h-.3l-.8-1.1h0v1.1h-.3v-1.7h.3l.8,1.1h0v-1.1s.3,0,.3,0Z"/>
  <path class="st3" d="M54.6,32.2h-.3s0,0,0-.1c0,0,0,0,0-.1,0,0,0,0-.1,0,0,0,0,0-.1,0,0,0-.2,0-.2,0s-.1.1-.2.2,0,.2,0,.3,0,.2,0,.3,0,.2.2.2c0,0,.2,0,.2,0s0,0,.1,0c0,0,0,0,.1,0,0,0,0,0,0,0,0,0,0,0,0-.1h.3c0,0,0,.2,0,.2,0,0,0,.1-.2.2,0,0-.1,0-.2.1s-.2,0-.3,0c-.2,0-.3,0-.4,0s-.2-.2-.3-.3,0-.3,0-.5,0-.3,0-.5c0-.1.2-.2.3-.3.1,0,.2-.1.4-.1s.2,0,.3,0,.2,0,.2.1c0,0,.1.1.2.2s0,.1,0,.2Z"/>
  <path class="st3" d="M51.8,33.3v-1.7h1.1v.2h-.8v.4h.7v.2h-.7v.5h.8v.2h-1.1Z"/>
  <path class="st3" d="M50.2,31.9v-.2h1.3v.2h-.5v1.4h-.3v-1.4h-.5Z"/>
  <path class="st3" d="M48.2,33.3v-1.7h1.1v.2h-.8v.4h.7v.2h-.7v.5h.8v.2h-1.1Z"/>
  <path class="st3" d="M47.3,32.4c0,.2,0,.3,0,.5,0,.1-.2.2-.3.3-.1,0-.2,0-.4,0s-.3,0-.4,0-.2-.2-.3-.3c0-.1,0-.3,0-.5s0-.3,0-.5c0-.1.2-.2.3-.3.1,0,.2-.1.4-.1s.3,0,.4.1c.1,0,.2.2.3.3,0,.1,0,.3,0,.5ZM47,32.4c0-.1,0-.2,0-.3s0-.1-.2-.2c0,0-.2,0-.2,0s-.2,0-.2,0c0,0-.1.1-.2.2s0,.2,0,.3,0,.2,0,.3,0,.2.2.2c0,0,.2,0,.2,0s.2,0,.2,0,.1-.1.2-.2,0-.2,0-.3Z"/>
  <path class="st3" d="M44.4,33.3h-.3l.6-1.7h.4l.6,1.7h-.3l-.4-1.3h0l-.4,1.3h0ZM44.5,32.6h.9v.2h-.9v-.2ZM44.7,31.4h-.2c0-.1,0-.2,0-.2s.1,0,.2,0,0,0,0,0c0,0,0,0,0,0s0,0,0,0,0,0,0,0,0,0,0,0c0,0,0,0,0,0h.2c0,.1,0,.2,0,.2s-.1,0-.2,0,0,0,0,0c0,0,0,0,0,0,0,0,0,0,0,0s0,0,0,0,0,0,0,0,0,0,0,0h0Z"/>
  <path class="st3" d="M44,32.2h-.3s0,0,0-.1c0,0,0,0,0-.1,0,0,0,0-.1,0,0,0,0,0-.1,0,0,0-.2,0-.2,0s-.1.1-.2.2,0,.2,0,.3,0,.2,0,.3,0,.2.2.2c0,0,.2,0,.2,0s0,0,.1,0c0,0,0,0,.1,0,0,0,0,0,0,0,0,0,0,0,0-.1h.3c0,0,0,.2,0,.2,0,0,0,.1-.2.2,0,0-.1,0-.2.1s-.2,0-.3,0c-.2,0-.3,0-.4,0s-.2-.2-.3-.3c0-.1,0-.3,0-.5s0-.3,0-.5c0-.1.2-.2.3-.3.1,0,.2-.1.4-.1s.2,0,.3,0,.2,0,.2.1c0,0,.1.1.2.2s0,.1,0,.2ZM43.2,33.3h.2c0,0,0,0,.1.1,0,0,0,0,0,.1s0,.1,0,.2-.2,0-.3,0h0c0-.1.1-.1.2-.2,0,0,0,0,0,0s0,0,0,0,0,0-.1,0v-.2s0,0,0,0Z"/>
  <path class="st3" d="M41.1,33.3h-.3l.6-1.7h.4l.6,1.7h-.3l-.4-1.3h0l-.4,1.3h0ZM41.1,32.6h.9v.2h-.9v-.2Z"/>
  <path class="st3" d="M39.7,31.6l.4,1.3h0l.4-1.3h.3l-.6,1.7h-.4l-.6-1.7h.3Z"/>
  <path class="st3" d="M39.2,32.4c0,.2,0,.3,0,.5,0,.1-.2.2-.3.3-.1,0-.2,0-.4,0s-.3,0-.4,0-.2-.2-.3-.3c0-.1,0-.3,0-.5s0-.3,0-.5c0-.1.2-.2.3-.3.1,0,.2-.1.4-.1s.3,0,.4.1c.1,0,.2.2.3.3,0,.1,0,.3,0,.5ZM38.9,32.4c0-.1,0-.2,0-.3s0-.1-.2-.2c0,0-.2,0-.2,0s-.2,0-.2,0c0,0-.1.1-.2.2s0,.2,0,.3,0,.2,0,.3,0,.2.2.2c0,0,.2,0,.2,0s.2,0,.2,0,.1-.1.2-.2,0-.2,0-.3Z"/>
  <path class="st3" d="M37.4,31.6v1.7h-.3l-.8-1.1h0v1.1h-.3v-1.7h.3l.8,1.1h0v-1.1s.3,0,.3,0Z"/>
  <path class="st3" d="M35.7,31.6v1.7h-.3v-1.7h.3Z"/>
  <path class="st3" d="M33.4,33.3v-1.7h1.1v.2h-.8v.4h.7v.2h-.7v.5h.8v.2h-1.1Z"/>
  <path class="st3" d="M32.2,33.3h-.6v-1.7h.6c.2,0,.3,0,.4.1s.2.2.3.3c0,.1,0,.3,0,.5s0,.3,0,.5c0,.1-.2.2-.3.3-.1,0-.3,0-.4,0h0ZM32,33h.2c.1,0,.2,0,.3,0s.1-.1.2-.2c0,0,0-.2,0-.3s0-.2,0-.3c0,0,0-.1-.2-.2,0,0-.2,0-.3,0h-.3v1.1Z"/>
  <path class="st3" d="M29.6,33.3h-.3l.6-1.7h.4l.6,1.7h-.3l-.4-1.3h0l-.4,1.3h0ZM29.6,32.6h.9v.2h-.9v-.2Z"/>
  <path class="st3" d="M28,33.3v-1.7h.3v1.4h.7v.2h-1,0Z"/>
  <path class="st3" d="M27.7,32.4c0,.2,0,.3,0,.5,0,.1-.2.2-.3.3-.1,0-.2,0-.4,0s-.3,0-.4,0-.2-.2-.3-.3c0-.1,0-.3,0-.5s0-.3,0-.5c0-.1.2-.2.3-.3.1,0,.2-.1.4-.1s.3,0,.4.1c.1,0,.2.2.3.3,0,.1,0,.3,0,.5ZM27.4,32.4c0-.1,0-.2,0-.3s0-.1-.2-.2c0,0-.2,0-.2,0s-.2,0-.2,0c0,0-.1.1-.2.2s0,.2,0,.3,0,.2,0,.3,0,.2.2.2c0,0,.2,0,.2,0s.2,0,.2,0c0,0,.1-.1.2-.2s0-.2,0-.3Z"/>
  <path class="st3" d="M25.9,32.2h-.3s0,0,0-.1c0,0,0,0,0-.1,0,0,0,0-.1,0,0,0,0,0-.1,0,0,0-.2,0-.2,0,0,0-.1.1-.2.2s0,.2,0,.3,0,.2,0,.3,0,.2.2.2c0,0,.2,0,.2,0s0,0,.1,0c0,0,0,0,.1,0,0,0,0,0,0,0,0,0,0,0,0-.1h.3c0,0,0,.2,0,.2,0,0,0,.1-.2.2s-.1,0-.2.1c0,0-.2,0-.3,0-.2,0-.3,0-.4,0s-.2-.2-.3-.3c0-.1,0-.3,0-.5s0-.3,0-.5c0-.1.2-.2.3-.3.1,0,.2-.1.4-.1s.2,0,.3,0c0,0,.2,0,.2.1,0,0,.1.1.2.2s0,.1,0,.2Z"/>
  <path class="st3" d="M23.9,32.1c0,0,0-.1,0-.2,0,0-.1,0-.2,0s-.1,0-.2,0c0,0,0,0,0,0s0,0,0,.1,0,0,0,0,0,0,0,0,0,0,0,0c0,0,0,0,0,0h.2c0,0,.1,0,.2.1,0,0,.1,0,.2,0,0,0,0,0,.1.1,0,0,0,.1,0,.2,0,0,0,.2,0,.3,0,0-.1.1-.2.2,0,0-.2,0-.3,0s-.2,0-.3,0c0,0-.2,0-.2-.2,0,0,0-.2,0-.3h.3c0,0,0,.1,0,.1,0,0,0,0,.1,0s.1,0,.2,0,.1,0,.2,0c0,0,0,0,.1,0,0,0,0,0,0-.1s0,0,0-.1c0,0,0,0,0,0,0,0,0,0-.2,0h-.2c-.1,0-.2-.1-.3-.2s-.1-.2-.1-.3,0-.2,0-.3c0,0,.1-.1.2-.2s.2,0,.3,0,.2,0,.3,0c0,0,.2.1.2.2s0,.1,0,.2h-.3,0Z"/>
  <path class="st3" d="M21.6,33.3v-1.7h1.1v.2h-.8v.4h.7v.2h-.7v.5h.8v.2h-1.1Z"/>
</svg>