<?xml version="1.0" encoding="UTF-8"?>
<svg id="Camada_1" xmlns="http://www.w3.org/2000/svg" version="1.1" viewBox="0 0 85 36">
  <!-- Generator: Adobe Illustrator 29.3.1, SVG Export Plug-In . SVG Version: 2.1.0 Build 151)  -->
  <defs>
    <style>
      .st0 {
        fill: #6f64ac;
      }

      .st1 {
        fill: #232323;
      }

      .st2 {
        fill: #00b5ad;
      }

      .st3 {
        fill: #87d2e1;
      }
    </style>
  </defs>
  <g>
    <path d="M17.9,20.4v.7c0,.2.1.3.3.4.2,0,.4,0,.4-.3,0,0,0-.1,0-.2v-4.7h0c0-.1,0,0,.1,0,.4.5.9,1.1,1.3,1.6.5.6.9,1.1,1.4,1.7.5.6,1,1.2,1.5,1.8,0,0,.2.2.3.2.3,0,.5-.1.5-.4v-6.1h0c0-.3-.3-.5-.5-.4-.2,0-.3.2-.3.4v5c-.4-.5-.7-.9-1.1-1.3-.4-.5-.8-.9-1.1-1.4-.3-.4-.7-.9-1-1.3l-1-1.2c-.1-.2-.3-.2-.5-.2-.2,0-.3.2-.3.4v5.4"/>
    <path d="M38.7,16.8v-1.9c0-.3-.3-.5-.6-.4-.2,0-.2.2-.2.4v4c0,.5-.2.9-.5,1.2-.5.6-1.2.8-2,.6-.8-.2-1.4-1-1.4-1.8,0-1.3,0-2.6,0-4s0-.3-.1-.4-.3-.1-.4,0c-.1,0-.2.2-.2.4v3.9c0,.1,0,.3,0,.5,0,.8.5,1.4,1.1,1.8.6.4,1.2.6,2,.5.6,0,1.1-.3,1.5-.7.6-.5.9-1.2.9-2v-2.1"/>
    <path d="M78.8,21.4h.4c.5,0,.9,0,1.4,0,.5,0,.9-.3,1.2-.7.5-.7.5-1.4.1-2.1-.3-.6-.9-1-1.6-1-.3,0-.7,0-1,0-.6,0-1.2-.5-1.2-1.2,0-.6.5-1.1,1.1-1.1h1.5c.3,0,.4-.2.4-.4s-.2-.4-.4-.4c-.5,0-1,0-1.5,0-.5,0-.9.2-1.2.5-.5.5-.7,1-.6,1.7.1.8.8,1.5,1.5,1.6.3,0,.7,0,1,0,.2,0,.4,0,.7,0,.5,0,.8.4.9.9.1.4-.1.9-.5,1.2-.2.2-.5.2-.8.2h-1.6c-.2,0-.4,0-.6,0-.2,0-.4.1-.4.3,0,.2.2.4.4.4h.9"/>
    <path d="M73.5,17.5v-2.1c0-.1,0-.2.2-.2h1.4c.2,0,.4-.2.4-.4s-.1-.4-.4-.4h-3.9c0,0-.2,0-.3,0-.1,0-.2.3-.1.4,0,.2.2.3.4.3h1.4c.1,0,.2,0,.2.2v5.4h0c0,.4.2.5.4.5.3,0,.4-.1.4-.4v-3.5"/>
    <path d="M44.9,14.9c0-.2-.2-.4-.3-.4-.5,0-.9,0-1.4,0-.7,0-1.2.4-1.6.9-.3.4-.4.9-.4,1.3v4.1h0c0,.3.2.5.4.5.3,0,.4-.1.4-.4v-4.2c0,0,0-.2,0-.3.1-.7.7-1.3,1.5-1.3h1.1c.2,0,.4-.1.4-.4"/>
    <path d="M26.8,14.5c0,0-.1.1-.1.2v.3c0,.1,0,.2.2.2,0,0,.1,0,.2,0h3.9c.4,0,.5,0,.5-.5,0-.2,0-.3-.3-.3h-4.1s-.1,0-.2,0"/>
    <path d="M30.2,20.7h-3.2c-.2,0-.3,0-.3.3v.2c0,.2,0,.3.3.3h4.2c.2,0,.3,0,.3-.3v-.2c0-.2,0-.2-.3-.3h-.9"/>
    <path d="M27.2,17.6h-.3c-.1,0-.2,0-.2.2v.3c0,.1,0,.2.2.2h2.7c.2,0,.2,0,.3-.2v-.2c0-.2,0-.3-.3-.3h-2.4,0Z"/>
    <path class="st1" d="M59.6,17.6c.6.3,1,.8,1.1,1.5,0,.6-.1,1.2-.5,1.6-.3.3-.7.6-1.2.6-.7,0-1.4,0-2,0h-.8c-.4,0-.6-.2-.6-.6v-5.6c0-.4.2-.6.6-.6h2.1c.9,0,1.6.7,1.8,1.5,0,.5,0,.9-.3,1.3,0,0-.1,0,0,.1M56.3,18.4v2.1c0,.1,0,.2.2.2h2.2c.4,0,.7-.2,1-.5.5-.7.2-1.7-.6-1.9-.2,0-.4,0-.7,0-.6,0-1.2,0-1.8,0s-.3,0-.3.3M58.5,17.3s0,0,.1,0c.4-.2.6-.7.5-1.1-.1-.4-.5-.8-.9-.8h-1.8c-.1,0-.1,0-.1.2v1.7c0,.1,0,.1.2.1h1.7c.1,0,.2,0,.4,0h0Z"/>
    <path class="st1" d="M69,16.4c.2.4.3.8.3,1.2,0,.8-.1,1.6-.6,2.3-.5.9-1.3,1.4-2.3,1.6-.9.2-1.7,0-2.5-.4-.9-.5-1.5-1.4-1.8-2.4-.2-.8,0-1.5.3-2.3.5-1.1,1.4-1.7,2.5-2,1.1-.2,2.1,0,3,.7.4.3.8.8,1,1.3M67.9,16.3c-.2-.2-.3-.3-.5-.5-.6-.5-1.3-.7-2.2-.6-.7,0-1.3.4-1.8,1-.6.7-.8,1.4-.6,2.3.1.7.5,1.2,1,1.7.6.5,1.3.7,2,.6.8,0,1.4-.5,1.9-1.1.3-.4.5-.9.6-1.5,0-.7-.1-1.3-.5-1.9h0Z"/>
    <path class="st1" d="M46.7,19.6c-.2-.4-.3-.9-.4-1.3,0-.6,0-1.3.3-1.8.5-1,1.3-1.7,2.5-2,1.1-.2,2.1,0,3,.7.8.6,1.2,1.4,1.3,2.3,0,.7,0,1.3-.3,2-.5,1.2-1.4,1.9-2.7,2.1-1.1.2-2,0-2.9-.8-.4-.3-.7-.7-1-1.2M47.8,19.8s0,0,0,0c.5.5,1.1.9,1.8.9.5,0,.9,0,1.4-.2.7-.3,1.2-.8,1.5-1.5.2-.5.3-1,.2-1.6-.1-.7-.4-1.2-1-1.6-.7-.5-1.4-.8-2.2-.6-.9.2-1.6.7-2,1.5-.3.5-.4,1.1-.3,1.6,0,.5.3,1,.6,1.4Z"/>
    <path class="st1" d="M17.9,20.4v-5.4c0-.2,0-.4.3-.4.2,0,.3,0,.5.2.3.4.7.8,1,1.2.3.4.7.9,1,1.3.4.5.8.9,1.1,1.4.4.4.7.9,1.1,1.3v-5c0-.2,0-.4.3-.4.2,0,.5,0,.5.3h0v6.2c0,.3-.2.5-.5.4-.2,0-.2-.1-.3-.2-.5-.6-1-1.2-1.5-1.8-.5-.6-.9-1.1-1.4-1.7-.4-.5-.9-1.1-1.3-1.6,0,0,0,0-.1,0h0v4.9c0,0,0,.1,0,.2,0,.2-.2.3-.4.3-.2,0-.3-.2-.3-.4v-.7h0Z"/>
    <path class="st1" d="M38.7,16.8v2.1c0,.8-.3,1.5-.9,2-.4.4-.9.6-1.5.7-.7,0-1.4,0-2-.5-.6-.5-1-1.1-1.1-1.8,0-.1,0-.3,0-.5v-3.9c0-.2,0-.3.2-.4.1,0,.3,0,.4,0,.1.1.1.3.1.4v4c0,.8.6,1.6,1.4,1.8.8.2,1.4,0,2-.6.3-.3.5-.8.5-1.2v-4c0-.2,0-.3.2-.4.3-.1.6,0,.6.4v1.9h0Z"/>
    <path class="st1" d="M78.8,21.4h-.9c-.2,0-.4-.2-.4-.4,0-.2.2-.4.4-.3.2,0,.4,0,.6,0h1.6c.3,0,.5,0,.8-.2.4-.3.6-.7.5-1.2-.1-.5-.4-.8-.9-.9-.2,0-.4,0-.7,0-.3,0-.7,0-1,0-.8-.1-1.4-.8-1.5-1.6,0-.7,0-1.3.6-1.7.3-.3.8-.5,1.2-.5.5,0,1,0,1.5,0s.4.1.4.4c0,.2-.2.4-.4.4h-1.5c-.6,0-1.1.5-1.1,1.1,0,.7.6,1.2,1.2,1.2.3,0,.7,0,1,0,.7,0,1.3.4,1.6,1,.4.7.3,1.4-.1,2.1-.3.4-.7.7-1.2.7-.5,0-.9,0-1.4,0h-.4,0Z"/>
    <path class="st1" d="M73.5,17.6v3.5c0,.3-.2.4-.4.4-.2,0-.3-.2-.4-.4h0v-5.6c0-.1,0-.2-.2-.2h-1.4c-.2,0-.3,0-.4-.3,0-.1,0-.3.1-.4,0,0,.2,0,.3,0h3.9c.2,0,.4.1.4.4s-.2.4-.4.4h-1.4c-.1,0-.2,0-.2.2v2.1h0Z"/>
    <path class="st1" d="M44.9,14.9c0,.2-.2.4-.4.4h-1.1c-.7,0-1.4.5-1.5,1.3,0,0,0,.2,0,.3v4.2c0,.3-.1.4-.4.4-.2,0-.4-.2-.4-.4h0v-4.3c0-.5.1-.9.4-1.3.4-.5.9-.9,1.6-.9.5,0,.9,0,1.4,0,.2,0,.3.2.3.4h0Z"/>
    <path class="st1" d="M26.8,14.5c0,0,.1,0,.2,0h4.1c.2,0,.3,0,.3.3,0,.4,0,.5-.5.5h-3.9c0,0-.1,0-.2,0,0,0-.2,0-.2-.2v-.3c0-.1,0-.2.1-.2h0Z"/>
    <path class="st1" d="M30.2,20.7h.9c.2,0,.3,0,.3.3v.2c0,.2,0,.3-.3.3h-4.2c-.2,0-.3,0-.3-.3v-.2c0-.2,0-.2.3-.3h3.2,0Z"/>
    <path class="st1" d="M27.2,17.6h2.4c.2,0,.3,0,.3.3v.2c0,.2,0,.2-.3.2h-2.7c-.1,0-.2,0-.2-.2v-.3c0-.1,0-.2.2-.2h.3,0Z"/>
  </g>
  <g>
    <path class="st0" d="M12.9,16.5c.2.3.4.7.5,1,.1.5.2,1,.1,1.5,0,.6-.2,1.2-.6,1.6-.5.6-1.1,1-1.8,1.3-.4.1-.9.1-1.4.1,0,0-.2,0-.2,0-.2,0-.5-.1-.7-.2-.2-.1-.4-.2-.5-.4-.2-.2-.5-.4-.7-.6-.5-.4-1.2-.6-1.8-.7-.4-.1-.8-.2-1.2-.4-.4-.2-.6-.5-.7-1,0-.3,0-.6,0-.8,0-.3.1-.6.3-.9.2-.5.6-1,1.1-1.3.1-.1.3-.2.5-.3.1,0,.3-.1.4-.2.4-.2.9-.3,1.3-.4,0,0,0,0,.1,0,.3,0,.6,0,.9,0,.4,0,.7,0,1.1,0,.5,0,1,.2,1.5.4.2,0,.3.1.5.2h0s0,0,0,0c.3.2.6.5.9.7.2.1.3.3.5.5M7.3,20.3s0,0,0,0c0,0,0,0,.1,0,.3.2.6.5.9.7h0,0s0,0,.1.1c.3.3.8.4,1.2.5.4,0,.7,0,1.1,0,.1,0,.3,0,.4-.1.7-.3,1.2-.7,1.6-1.4.3-.6.3-1.2.3-1.8,0,0,0,0,0,0,0-.2,0-.4-.1-.6,0-.3-.2-.6-.4-.8-.2-.4-.6-.7-.9-.9-.5-.3-1-.6-1.5-.7-.2,0-.4,0-.6-.1,0,0-.1,0-.2,0-.4,0-.8,0-1.2,0s-.4,0-.6,0c-.4,0-.9.2-1.3.4-.8.3-1.5.9-1.8,1.7-.2.4-.3.9-.2,1.4,0,.2,0,.4.2.6h0,0c0,0,.1.1.2.2.3.2.6.3.9.4.5.2,1,.3,1.5.5.1,0,.3,0,.4.1h0s0,0,0,0h0s0,0,0,0Z"/>
    <path class="st2" d="M7.2,14.7c-.5,0-.9.2-1.3.4-.1,0-.3.1-.4.2-.5.1-.9.3-1.3.6,0,0,0,0,0,0h0c-.3.2-.5.4-.7.7,0,.1-.2.2-.2.4-.2.4-.3.9-.3,1.4,0,.5.2.8.6,1,.5.2.9.3,1.4.5.8.2,1.6.6,2.2,1.3.4.4,1,.6,1.5.6.2,0,.5.1.7.2,0,0,.1,0,.2,0-.1,0-.2,0-.4,0-.6,0-1.3,0-1.8-.3-.2,0-.4-.2-.5-.4-.4-.4-.8-.7-1.3-.9-.4-.2-.8-.3-1.2-.4-.4-.1-.9-.2-1.3-.4-.4-.2-.6-.5-.7-1,0-.8,0-1.5.5-2.2.2-.3.5-.6.9-.9,0,0,0,0,0,0h0l1.2-.6s0,0,0,0h0c.2,0,.4,0,.5-.1.3,0,.6-.1.8-.1.2,0,.4,0,.5,0h0Z"/>
    <path class="st3" d="M5.2,15c-.4.2-.8.4-1.2.6.2-.3.4-.5.7-.7.6-.4,1.2-.7,1.9-.8.4,0,.8-.1,1.1-.1.2,0,.4,0,.6,0,.4,0,.8,0,1.2.1.5,0,1,.3,1.4.5.5.3,1,.6,1.4,1.1.2.3.4.6.5.9-.1-.2-.3-.3-.5-.5-.3-.2-.6-.5-.9-.7,0,0,0,0,0,0h0s0,0-.1-.1c-.5-.3-.9-.5-1.5-.7-.5-.1-1-.2-1.6-.2-.5,0-1,0-1.5.1-.5.1-1,.3-1.5.5,0,0,0,0,0,0h0s0,0,0,0h0Z"/>
    <path class="st3" d="M4.1,15.5s0,0,0,0c0,0,0,0,0,0Z"/>
    <path class="st2" d="M11.5,20.4c.2-.3.4-.7.4-1.1,0-.2,0-.5,0-.7,0-.7-.2-1.4-.7-1.9-.6-.7-1.3-1.1-2.1-1.4-.4-.1-.8-.2-1.2-.2-.2,0-.3,0-.5,0,.2,0,.4,0,.6,0,.4,0,.8,0,1.2,0,0,0,.1,0,.2,0,.1,0,.3.1.4.2.6.3,1.2.7,1.6,1.2.3.4.5.8.6,1.2,0,.3.1.6.1,1,0,.2,0,.4,0,.6,0,.2,0,.3,0,.5,0,.2-.1.3-.2.5,0,.1-.1.2-.2.4h0s0,0,0,0c0,.1-.2.3-.3.4-.2.2-.4.4-.6.5-.3.1-.7.1-1.1,0,.3,0,.6-.2.9-.4h0s0,0,0,0c0,0,0,0,0,0,.2-.2.4-.3.6-.5,0,0,0-.1,0-.2h0s0,0,0,0h0s0,0,0,0h0Z"/>
    <path class="st3" d="M11.5,20.5c0,0,0,.1,0,.2-.2.2-.4.3-.6.5,0,0,0,0,0,0h0c-.4,0-.7.1-1.1.1-.4,0-.7,0-1-.2h0s0,0,0,0c-.3-.2-.6-.5-.9-.7,0,0,0,0-.1-.1,0,0,0,0,0,0h0s0,0,0,0h0c-.4-.3-.8-.5-1.3-.7-.5-.2-1.1-.3-1.6-.5h0s0,0,0,0c-.2-.1-.2-.3-.2-.5.3.2.6.3.9.4.6.2,1.2.3,1.8.6.4.2.8.4,1.1.8.3.3.7.6,1.2.7.4,0,.7,0,1.1,0,.4,0,.8-.2,1.2-.4,0,0,0,0,.1,0h0Z"/>
    <path class="st3" d="M12.2,19.8c.3-.4.4-.8.5-1.3.1-.6,0-1.2-.1-1.7.2.2.3.5.4.8,0,.2,0,.4.1.6v.2c0,.5-.2.9-.5,1.3-.2.4-.5.7-.8.9,0-.1.1-.2.2-.4,0-.2.1-.3.2-.5h0Z"/>
    <path class="st3" d="M3.8,18.7c-.3-.3-.4-.6-.4-1,0-.3,0-.7.1-1,.2-.3.4-.5.7-.7,0,.1-.1.2-.2.3-.1.3-.2.6-.3.9,0,.2,0,.4,0,.6,0,.3,0,.5,0,.8h0Z"/>
    <path class="st3" d="M4.2,15.9s0,0,0,0c0,0,0,0,0,0Z"/>
    <path class="st3" d="M11.5,20.4s0,0,0,0c0,0,0,0,0,0Z"/>
    <path class="st3" d="M11.5,20.5s0,0,0,0c0,0,0,0,0,0Z"/>
    <path class="st3" d="M11.8,20.7s0,0,0,0c0,0,0,0,0,0Z"/>
  </g>
</svg>