<?xml version="1.0" encoding="UTF-8"?>
<svg id="Camada_1" data-name="Camada 1" xmlns="http://www.w3.org/2000/svg" xmlns:xlink="http://www.w3.org/1999/xlink" viewBox="0 0 61 61">
  <defs>
    <style>
      .cls-1 {
        fill: url(#Gradiente_sem_nome_7);
      }
    </style>
    <linearGradient id="Gradiente_sem_nome_7" data-name="Gradiente sem nome 7" x1="3.48" y1="3.48" x2="57.19" y2="57.19" gradientUnits="userSpaceOnUse">
      <stop offset="0" stop-color="#63c6f1"/>
      <stop offset=".02" stop-color="#62c3ef"/>
      <stop offset=".25" stop-color="#59aade"/>
      <stop offset=".46" stop-color="#549ad3"/>
      <stop offset=".62" stop-color="#5395d0"/>
    </linearGradient>
  </defs>
  <path class="cls-1" d="M48.78,28.77h-3.37c.07.57.1,1.15.1,1.73s-.03,1.16-.1,1.73h3.37c.74,2.34,2.93,4.04,5.51,4.04,3.18,0,5.77-2.59,5.77-5.77s-2.59-5.77-5.77-5.77c-2.58,0-4.77,1.7-5.51,4.04h0ZM48.78,28.77,50.25,40.43c-2.08,0-4.01.65-5.6,1.76l-2.38-2.38c-.72.91-1.54,1.73-2.45,2.45l2.38,2.38c-1.11,1.59-1.76,3.52-1.76,5.6,0,5.41,4.4,9.82,9.82,9.82s9.82-4.4,9.82-9.82-4.4-9.82-9.82-9.82h0ZM50.25,40.43,9.6,18.26c1.76,0,3.4-.53,4.77-1.44l4.37,4.37c.72-.91,1.54-1.73,2.45-2.45l-4.37-4.37c.91-1.37,1.44-3.01,1.44-4.77C18.26,4.82,14.37.94,9.6.94S.94,4.82.94,9.6s3.89,8.66,8.66,8.66h0ZM9.6,18.26,42.05,30.5c0,6.38-5.17,11.55-11.55,11.55s-11.55-5.17-11.55-11.55,5.17-11.55,11.55-11.55,11.55,5.17,11.55,11.55h0ZM42.05,30.5,15.59,32.23c-.07-.57-.1-1.15-.1-1.73s.03-1.16.1-1.73h-5.75c-.69-1.69-2.35-2.89-4.28-2.89-2.55,0-4.62,2.07-4.62,4.62s2.07,4.62,4.62,4.62c1.93,0,3.59-1.2,4.28-2.89h5.75ZM15.59,32.23,40.18,19.04l5.22-7.87c.41.1.83.16,1.27.16,2.87,0,5.2-2.33,5.2-5.2s-2.33-5.2-5.2-5.2-5.2,2.33-5.2,5.2c0,1.17.39,2.25,1.05,3.12l-5.22,7.86c1.04.53,2,1.18,2.88,1.92h0ZM40.18,19.04,20.82,41.96l-5.22,7.87c-.41-.1-.83-.16-1.27-.16-2.87,0-5.2,2.33-5.2,5.2s2.33,5.2,5.2,5.2,5.2-2.33,5.2-5.2c0-1.17-.39-2.25-1.05-3.12l5.22-7.86c-1.04-.53-2-1.18-2.88-1.92h0ZM20.82,41.96"/>
</svg>