<?xml version="1.0" encoding="UTF-8"?>
<svg id="Camada_1" data-name="Camada 1" xmlns="http://www.w3.org/2000/svg" xmlns:xlink="http://www.w3.org/1999/xlink" viewBox="0 0 61 61">
  <defs>
    <style>
      .cls-1 {
        fill: url(#Gradiente_sem_nome_7);
      }
    </style>
    <linearGradient id="Gradiente_sem_nome_7" data-name="Gradiente sem nome 7" x1="6.19" y1="14.79" x2="54.81" y2="63.42" gradientUnits="userSpaceOnUse">
      <stop offset="0" stop-color="#63c6f1"/>
      <stop offset=".02" stop-color="#62c3ef"/>
      <stop offset=".25" stop-color="#59aade"/>
      <stop offset=".46" stop-color="#549ad3"/>
      <stop offset=".62" stop-color="#5395d0"/>
    </linearGradient>
  </defs>
  <path class="cls-1" d="M54.82,47.24c-.61-3.04-2.94-5.51-5.94-6.29l-9.64-2.51-.94-5.26c1.36-1.57,2.3-3.54,2.64-5.73h.8c3.55,0,6.44-2.89,6.44-6.44,0-2.94-1.98-5.42-4.67-6.19V5.67c0-2.93-2.39-5.32-5.32-5.32h-15.35c-2.93,0-5.32,2.39-5.32,5.32v9.13c-2.69.77-4.67,3.25-4.67,6.19,0,3.55,2.89,6.44,6.44,6.44h.8c.34,2.19,1.28,4.16,2.64,5.73l-.94,5.26-9.64,2.51c-3,.78-5.33,3.25-5.94,6.29l-2.7,13.48h54.03l-2.7-13.48ZM25.86,35.66c1.4.73,2.98,1.13,4.64,1.13s3.24-.41,4.64-1.13l.61,3.41-5.25,3.75-5.25-3.75.61-3.41ZM23.47,18.1h14.06v7.56c0,4.19-3.15,7.6-7.03,7.6s-7.03-3.41-7.03-7.6v-7.56ZM44.63,21c0,1.6-1.3,2.9-2.9,2.9h-.66v-5.81h.66c1.6,0,2.9,1.3,2.9,2.9h0ZM22.82,3.89h15.35c.98,0,1.78.8,1.78,1.78v8.89h-18.92V5.67c0-.98.8-1.78,1.78-1.78h0ZM16.37,21c0-1.6,1.3-2.9,2.9-2.9h.66v5.81h-.66c-1.6,0-2.9-1.3-2.9-2.9h0ZM9.65,47.93c.34-1.72,1.67-3.12,3.37-3.56l5.06-1.32v7.03h-1.78v3.54h7.1v-3.54h-1.78v-7.95l1.34-.35,7.54,5.38,7.54-5.38,1.34.35v8.25c-2.07.73-3.55,2.7-3.55,5.02v1.78H7.8l1.85-9.25ZM46.47,57.18v-1.78c0-2.31-1.48-4.29-3.55-5.02v-7.33l5.06,1.32c1.7.44,3.02,1.84,3.37,3.56l1.85,9.25h-6.72ZM46.47,57.18,28.73,12.78h3.54v-1.78h1.78v-3.54h-1.78v-1.78h-3.54v1.78h-1.78v3.54h1.78v1.78ZM28.73,12.78"/>
</svg>