<?xml version="1.0" encoding="UTF-8"?>
<svg id="Camada_1" data-name="Camada 1" xmlns="http://www.w3.org/2000/svg" xmlns:xlink="http://www.w3.org/1999/xlink" viewBox="0 0 61 61">
  <defs>
    <style>
      .cls-1 {
        fill: url(#Gradiente_sem_nome_7);
      }
    </style>
    <linearGradient id="Gradiente_sem_nome_7" data-name="Gradiente sem nome 7" x1="10.15" y1="8.07" x2="54.44" y2="52.36" gradientUnits="userSpaceOnUse">
      <stop offset="0" stop-color="#63c6f1"/>
      <stop offset=".02" stop-color="#62c3ef"/>
      <stop offset=".25" stop-color="#59aade"/>
      <stop offset=".46" stop-color="#549ad3"/>
      <stop offset=".62" stop-color="#5395d0"/>
    </linearGradient>
  </defs>
  <path class="cls-1" d="M51.46,20.69c-.67.67-.67,1.76,0,2.43l4.65,4.65v7.74l-4.08,4.08c-.67.67-.67,1.76,0,2.43.67.67,1.76.67,2.43,0l4.58-4.58c.32-.32.5-.76.5-1.21v-9.16c0-.46-.18-.89-.5-1.21l-5.15-5.15c-.67-.67-1.76-.67-2.43,0h0ZM51.46,20.69,50.39,27.64h-2.95l-4.08-4.08c-.67-.67-1.76-.67-2.43,0-.67.67-.67,1.76,0,2.43l4.58,4.58c.32.32.76.5,1.22.5h3.67c.95,0,1.72-.77,1.72-1.72s-.77-1.72-1.72-1.72h0ZM50.39,27.64,34.69,28.78c.95,0,1.72-.77,1.72-1.72v-8.59h9.74c.46,0,.89-.18,1.22-.5l2.93-2.93h4.1c.95,0,1.72-.77,1.72-1.72s-.77-1.72-1.72-1.72h-4.81c-.46,0-.89.18-1.22.5l-2.93,2.93h-9.02v-6.88l2.59-3.54h1.99v5.27c0,.95.77,1.72,1.72,1.72s1.72-.77,1.72-1.72v-5.27h2.17l3.17,3.07c.68.66,1.77.64,2.43-.04.66-.68.64-1.77-.04-2.43l-3.67-3.55c-.32-.31-.75-.48-1.2-.48h-9.16c-.55,0-1.06.26-1.39.7l-3.44,4.7c-.22.29-.33.65-.33,1.01v19.47c0,.95.77,1.72,1.72,1.72h0ZM34.69,28.78,20.95,1.18c-4.23,0-7.76,3.08-8.46,7.12-4.61.76-8.14,4.78-8.14,9.61,0,.12,0,.24,0,.36,2.17-1.32,4.71-2.08,7.44-2.08.95,0,1.72.77,1.72,1.72s-.77,1.72-1.72,1.72c-2.48,0-4.78.83-6.61,2.23,0,0,0,0,0,0-2.67,2.04-4.27,5.22-4.27,8.65s1.6,6.61,4.27,8.65c-.55,1.24-.84,2.58-.84,3.95,0,4.83,3.53,8.84,8.14,9.61h0c.52.09,1.05.13,1.59.13,2.16,0,4.16-.7,5.77-1.9.68-.5,1.63-.43,2.23.17.75.75.65,1.98-.2,2.6-2.18,1.61-4.88,2.56-7.81,2.56h-.08c1.56,2.15,4.1,3.55,6.95,3.55,4.74,0,8.59-3.85,8.59-8.59v-19.01h-1.72c-2.85,0-5.15,2.31-5.15,5.15,0,.95-.77,1.72-1.72,1.72s-1.72-.77-1.72-1.72c0-2.81,1.35-5.3,3.44-6.87-2.09-1.57-3.44-4.06-3.44-6.87,0-.95.77-1.72,1.72-1.72s1.72.77,1.72,1.72c0,2.85,2.31,5.15,5.15,5.15h1.72V9.77c0-4.74-3.85-8.59-8.59-8.59h0ZM20.95,1.18,48.32,53.18l-4.58-3.44c-.76-.57-1.84-.42-2.41.34-.57.76-.42,1.84.34,2.41l2.48,1.86-3.16,1.78-4.58-2.58v-9.88h1.72c.95,0,1.72-.77,1.72-1.72s-.77-1.72-1.72-1.72h-1.72v-4.58h2.86c.95,0,1.72-.77,1.72-1.72s-.77-1.72-1.72-1.72h-4.58c-.95,0-1.72.77-1.72,1.72v20.62c0,.62.33,1.19.87,1.5l6.3,3.55c.52.3,1.16.3,1.69,0l6.3-3.55c1.08-.61,1.18-2.13.19-2.87h0ZM48.32,53.18,59.05,45.32c-.67-.67-1.76-.67-2.43,0l-3.49,3.49-5.26-4.24v-8.34c0-.95-.77-1.72-1.72-1.72s-1.72.77-1.72,1.72v9.16c0,.52.24,1.01.64,1.34l7.1,5.73c.68.55,1.67.5,2.29-.12l4.58-4.58c.67-.67.67-1.76,0-2.43h0ZM59.05,45.32"/>
</svg>