<?xml version="1.0" encoding="UTF-8"?>
<svg id="Camada_1" data-name="Camada 1" xmlns="http://www.w3.org/2000/svg" xmlns:xlink="http://www.w3.org/1999/xlink" viewBox="0 0 61 61">
  <defs>
    <style>
      .cls-1 {
        fill: url(#Gradiente_sem_nome_7);
      }
    </style>
    <linearGradient id="Gradiente_sem_nome_7" data-name="Gradiente sem nome 7" x1="8.24" y1="8.25" x2="52.76" y2="52.77" gradientUnits="userSpaceOnUse">
      <stop offset="0" stop-color="#63c6f1"/>
      <stop offset=".02" stop-color="#62c3ef"/>
      <stop offset=".25" stop-color="#59aade"/>
      <stop offset=".46" stop-color="#549ad3"/>
      <stop offset=".62" stop-color="#5395d0"/>
    </linearGradient>
  </defs>
  <path class="cls-1" d="M30.5,4.79C13.54,4.79.26,11.44.26,19.92v21.17c0,5.14,4.78,9.7,13.12,12.51.16.05.32.08.48.08.31,0,.62-.1.88-.28.4-.28.63-.74.63-1.23v-14.97c1.83-.56,3.86-1.01,6.05-1.36v3.74c0,.84.68,1.51,1.51,1.51h3.02v10.58c0,2.5,2.03,4.54,4.54,4.54s4.54-2.03,4.54-4.54v-10.58h3.02c.84,0,1.51-.68,1.51-1.51v-3.74c2.19.35,4.21.8,6.05,1.36v14.97c0,.49.23.94.63,1.23.26.19.57.28.88.28.16,0,.32-.03.48-.08,8.34-2.81,13.12-7.37,13.12-12.51v-21.17c0-8.48-13.28-15.12-30.24-15.12ZM3.28,41.08v-14.5c2.06,2.14,5.13,3.99,9.07,5.45v17.96c-5.72-2.32-9.07-5.58-9.07-8.91ZM57.72,41.08c0,3.33-3.35,6.59-9.07,8.91v-17.93c3.94-1.45,7.01-3.3,9.07-5.43v14.45ZM46.65,29.57c-.61.21-1.03.78-1.03,1.43v3.07c-1.87-.53-3.88-.96-6.05-1.3v-.76c0-3.42-1.92-6.37-4.72-7.91,1.05-1.09,1.7-2.56,1.7-4.18,0-3.34-2.71-6.05-6.05-6.05s-6.05,2.71-6.05,6.05c0,1.63.65,3.1,1.7,4.18-2.8,1.55-4.72,4.49-4.72,7.91v.76c-2.17.33-4.18.77-6.05,1.3v-3.07c0-.67-.39-1.23-1.03-1.43-6.93-2.34-11.07-5.95-11.07-9.65,0-6.56,12.46-12.1,27.22-12.1s27.22,5.54,27.22,12.1c0,3.7-4.14,7.31-11.07,9.65Z"/>
</svg>