<?xml version="1.0" encoding="UTF-8"?>
<svg id="Camada_1" data-name="Camada 1" xmlns="http://www.w3.org/2000/svg" xmlns:xlink="http://www.w3.org/1999/xlink" viewBox="0 0 61 61">
  <defs>
    <style>
      .cls-1 {
        fill: url(#Gradiente_sem_nome_7-2);
      }

      .cls-2 {
        fill: url(#Gradiente_sem_nome_7);
      }
    </style>
    <linearGradient id="Gradiente_sem_nome_7" data-name="Gradiente sem nome 7" x1="14.93" y1="35.38" x2="29.89" y2="50.34" gradientUnits="userSpaceOnUse">
      <stop offset="0" stop-color="#63c6f1"/>
      <stop offset=".02" stop-color="#62c3ef"/>
      <stop offset=".25" stop-color="#59aade"/>
      <stop offset=".46" stop-color="#549ad3"/>
      <stop offset=".62" stop-color="#5395d0"/>
    </linearGradient>
    <linearGradient id="Gradiente_sem_nome_7-2" data-name="Gradiente sem nome 7" x1="13.89" y1="13.2" x2="55.25" y2="54.57" xlink:href="#Gradiente_sem_nome_7"/>
  </defs>
  <path class="cls-2" d="M22.41,32.28c-5.83,0-10.58,4.75-10.58,10.58s4.75,10.58,10.58,10.58,10.58-4.75,10.58-10.58-4.75-10.58-10.58-10.58h0ZM22.41,49.92c-3.9,0-7.06-3.17-7.06-7.06s3.17-7.06,7.06-7.06,7.06,3.17,7.06,7.06-3.17,7.06-7.06,7.06h0ZM22.41,49.92"/>
  <path class="cls-1" d="M46.12,37.51c-.6-3-2.8-5.39-5.74-6.22l-5.62-1.59v-.84c1.92,1.09,4.61.85,6.32-.87l7.49-7.49c.32-.32.59-.67.81-1.04,3.79-.11,6.85-3.23,6.85-7.05s-3.16-7.05-7.05-7.05-6.95,3.06-7.05,6.86c-.37.22-.71.48-1.03.8l-3.77,3.76-3.58-3.59c1.69-1.29,2.79-3.32,2.79-5.61,0-3.89-3.16-7.05-7.05-7.05s-7.05,3.16-7.05,7.05c0,1.81.68,3.46,1.81,4.71-4.2,1.98-7.12,6.25-7.12,11.19v2.56c-7.15,2.25-12.35,8.94-12.35,16.83,0,9.72,7.91,17.64,17.64,17.64,5.76,0,10.88-2.77,14.1-7.06h5.65c-.2.55-.31,1.15-.31,1.77,0,2.91,2.37,5.29,5.29,5.29s5.29-2.37,5.29-5.29c0-.62-.11-1.22-.31-1.77h2.07v-3.51h-5.61l-2.46-12.42ZM49.17,8.86c1.95,0,3.54,1.59,3.54,3.54,0,1.65-1.14,3.05-2.68,3.43-.19-1.06-.69-2.04-1.47-2.82-.8-.79-1.79-1.28-2.82-1.46.38-1.54,1.78-2.69,3.43-2.69h0ZM43.58,15.5c.69-.69,1.81-.69,2.5,0,.59.58.75,1.76,0,2.5l-7.49,7.49c-.69.69-1.81.69-2.5,0l-7.86-7.85c-.59-.58-.75-1.76,0-2.51.59-.61,1.77-.73,2.51,0l6.58,6.59,6.26-6.24ZM29.49,4.04c1.95,0,3.54,1.59,3.54,3.54s-1.59,3.54-3.54,3.54-3.54-1.59-3.54-3.54,1.59-3.54,3.54-3.54h0ZM20.64,23.47c0-2.9,1.4-5.47,3.56-7.09,0,0,0,.01,0,.02,0,1.41.55,2.74,1.55,3.74l5.49,5.48v1.98c-2.6-1.51-5.62-2.37-8.83-2.37-.6,0-1.19.03-1.77.09v-1.84h0ZM22.41,56.98c-7.79,0-14.12-6.34-14.12-14.12s6.34-14.12,14.12-14.12,14.12,6.34,14.12,14.12-6.34,14.12-14.12,14.12h0ZM37.77,34.2l1.65.47c1.67.47,2.92,1.82,3.25,3.52l2.33,11.73h-6.43c.95-2.16,1.48-4.55,1.48-7.06,0-3.14-.83-6.1-2.28-8.66h0ZM48.91,55.21c0,.98-.79,1.77-1.77,1.77s-1.77-.79-1.77-1.77.79-1.77,1.77-1.77,1.77.79,1.77,1.77h0ZM48.91,55.21"/>
</svg>