<?xml version="1.0" encoding="UTF-8"?>
<svg id="Camada_1" data-name="Camada 1" xmlns="http://www.w3.org/2000/svg" xmlns:xlink="http://www.w3.org/1999/xlink" viewBox="0 0 61 61">
  <defs>
    <style>
      .cls-1 {
        fill: url(#Gradiente_sem_nome_7-2);
      }

      .cls-2 {
        fill: none;
      }

      .cls-3 {
        fill: url(#Gradiente_sem_nome_7);
      }

      .cls-4 {
        clip-path: url(#clippath);
      }
    </style>
    <clipPath id="clippath">
      <rect class="cls-2" x=".73" y=".52" width="59.54" height="59.54"/>
    </clipPath>
    <linearGradient id="Gradiente_sem_nome_7" data-name="Gradiente sem nome 7" x1="9.45" y1="9.24" x2="51.55" y2="51.34" gradientUnits="userSpaceOnUse">
      <stop offset="0" stop-color="#63c6f1"/>
      <stop offset=".02" stop-color="#62c3ef"/>
      <stop offset=".25" stop-color="#59aade"/>
      <stop offset=".46" stop-color="#549ad3"/>
      <stop offset=".62" stop-color="#5395d0"/>
    </linearGradient>
    <linearGradient id="Gradiente_sem_nome_7-2" data-name="Gradiente sem nome 7" x1="18.94" y1="18.94" x2="42.06" y2="42.06" xlink:href="#Gradiente_sem_nome_7"/>
  </defs>
  <g class="cls-4">
    <path class="cls-3" d="M6.78,41.62c-1.7-3.55-2.56-7.36-2.56-11.33,0-14.49,11.79-26.28,26.28-26.28,5.76,0,11.23,1.84,15.75,5.24l-4.35.57c-.96.13-1.63,1-1.5,1.96.13.96,1,1.63,1.96,1.5l8.19-1.08c.96-.13,1.63-1,1.5-1.96l-1.08-8.19c-.13-.96-1-1.63-1.96-1.5h0c-.96.13-1.63,1-1.5,1.96l.48,3.68C42.94,2.51,36.87.52,30.5.52c-7.95,0-15.43,3.1-21.05,8.72C3.83,14.86.73,22.34.73,30.29c0,4.49.98,8.81,2.9,12.84.42.87,1.46,1.24,2.33.82.87-.42,1.24-1.46.82-2.33h0ZM6.78,41.62,57.37,17.46c-.42-.87-1.46-1.24-2.33-.82-.87.42-1.24,1.46-.82,2.33,1.7,3.55,2.56,7.36,2.56,11.33,0,14.49-11.79,26.28-26.28,26.28-5.76,0-11.23-1.84-15.75-5.24l4.35-.57c.96-.13,1.63-1,1.5-1.96-.13-.96-1-1.63-1.96-1.5l-8.19,1.08c-.96.13-1.63,1-1.5,1.96l1.08,8.19c.13.96,1,1.63,1.96,1.5h0c.96-.13,1.63-1,1.5-1.96l-.48-3.68c5.05,3.69,11.12,5.68,17.5,5.68,7.95,0,15.43-3.1,21.05-8.72,5.62-5.62,8.72-13.1,8.72-21.05,0-4.49-.98-8.81-2.9-12.84h0ZM57.37,17.46"/>
  </g>
  <path class="cls-1" d="M46.32,30.5c0-1.89-.89-3.65-2.36-4.78.3-.68.46-1.42.46-2.18,0-2.67-1.95-4.89-4.5-5.31h0c-.29-.05-.58-.07-.88-.07-1.19,0-2.3.39-3.19,1.05-.38.28-.9.24-1.23-.09-.41-.41-.36-1.09.11-1.44,1.21-.89,2.7-1.41,4.31-1.41h.04c-.86-1.19-2.26-1.96-3.84-1.96-2.62,0-4.75,2.13-4.75,4.75,0-2.62-2.13-4.75-4.75-4.75-2.34,0-4.29,1.7-4.68,3.93-2.55.42-4.5,2.64-4.5,5.31,0,.07,0,.13,0,.2,1.2-.73,2.61-1.15,4.11-1.15.52,0,.95.42.95.95s-.42.95-.95.95c-1.37,0-2.64.46-3.65,1.23,0,0,0,0,0,0-1.48,1.13-2.36,2.88-2.36,4.78s.89,3.65,2.36,4.78c-.3.68-.46,1.42-.46,2.18,0,2.67,1.95,4.89,4.5,5.31h0c.29.05.58.07.88.07,1.19,0,2.3-.39,3.19-1.05.38-.28.9-.24,1.23.09.41.41.36,1.09-.11,1.44-1.21.89-2.7,1.41-4.31,1.41h-.04c.86,1.19,2.26,1.96,3.84,1.96,2.62,0,4.75-2.13,4.75-4.75,0,2.62,2.13,4.75,4.75,4.75,2.34,0,4.29-1.7,4.68-3.93,2.55-.42,4.5-2.64,4.5-5.31,0-.07,0-.13,0-.2-1.2.73-2.61,1.15-4.11,1.15-.52,0-.95-.42-.95-.95s.42-.95.95-.95c1.37,0,2.64-.46,3.65-1.23,0,0,0,0,0,0,1.48-1.13,2.36-2.88,2.36-4.78ZM35.94,34.12c0,.5-.41.91-.91.91s-.91-.41-.91-.91c0-1.5-1.22-2.72-2.72-2.72h-1.81c-1.5,0-2.72,1.22-2.72,2.72,0,.5-.41.91-.91.91s-.91-.41-.91-.91c0-1.48.71-2.8,1.81-3.62-1.1-.83-1.81-2.14-1.81-3.62,0-.5.41-.91.91-.91s.91.41.91.91c0,1.5,1.22,2.72,2.72,2.72h1.81c1.5,0,2.72-1.22,2.72-2.72,0-.5.41-.91.91-.91s.91.41.91.91c0,1.48-.71,2.8-1.81,3.62,1.1.83,1.81,2.14,1.81,3.62Z"/>
</svg>