<?xml version="1.0" encoding="UTF-8"?>
<svg id="Camada_1" data-name="Camada 1" xmlns="http://www.w3.org/2000/svg" xmlns:xlink="http://www.w3.org/1999/xlink" viewBox="0 0 61 61">
  <defs>
    <style>
      .cls-1 {
        fill: url(#Gradiente_sem_nome_7);
      }
    </style>
    <linearGradient id="Gradiente_sem_nome_7" data-name="Gradiente sem nome 7" x1="4.14" y1="4.15" x2="56.86" y2="56.86" gradientUnits="userSpaceOnUse">
      <stop offset="0" stop-color="#63c6f1"/>
      <stop offset=".02" stop-color="#62c3ef"/>
      <stop offset=".25" stop-color="#59aade"/>
      <stop offset=".46" stop-color="#549ad3"/>
      <stop offset=".62" stop-color="#5395d0"/>
    </linearGradient>
  </defs>
  <path class="cls-1" d="M25.25,25.25h10.51v10.51h-10.51v-10.51ZM51.63,52.22c2.25,0,4.09,1.83,4.09,4.09s-1.83,4.09-4.09,4.09c-1.58,0-2.95-.9-3.63-2.22h-10.49c-.97,0-1.75-.78-1.75-1.75v-8.41h3.5v6.65h8.63c.63-1.44,2.07-2.45,3.74-2.45h0ZM51.63,52.22,25.25,52.62c1.38.66,2.34,2.06,2.34,3.69,0,2.25-1.83,4.09-4.09,4.09s-4.09-1.83-4.09-4.09c0-1.63.96-3.03,2.34-3.69v-4.6h3.5v4.6h0ZM25.25,52.62,44.51,42.77c0,.97-.78,1.75-1.75,1.75h-24.52c-.97,0-1.75-.78-1.75-1.75v-24.52c0-.97.78-1.75,1.75-1.75h24.52c.97,0,1.75.78,1.75,1.75v24.52h0ZM39.26,23.5c0-.97-.78-1.75-1.75-1.75h-14.01c-.97,0-1.75.78-1.75,1.75v14.01c0,.97.78,1.75,1.75,1.75h14.01c.97,0,1.75-.78,1.75-1.75v-14.01ZM39.26,37.51,21.74,6.34h-8.63c-.63,1.44-2.07,2.45-3.74,2.45-2.25,0-4.09-1.83-4.09-4.09S7.11.62,9.37.62c1.58,0,2.95.9,3.63,2.22h10.49c.97,0,1.75.78,1.75,1.75v8.41h-3.5v-6.65ZM21.74,13,35.75,8.4c-1.38-.66-2.34-2.06-2.34-3.69,0-2.25,1.83-4.09,4.09-4.09s4.09,1.83,4.09,4.09c0,1.63-.96,3.03-2.34,3.69v4.6h-3.5v-4.6h0ZM35.75,8.4,58.17,23.5c0,.97-.78,1.75-1.75,1.75h-8.41v-3.5h6.65v-8.63c-1.44-.63-2.45-2.07-2.45-3.74,0-2.25,1.83-4.09,4.09-4.09s4.09,1.83,4.09,4.09c0,1.58-.9,2.95-2.22,3.63v10.49h0ZM58.17,23.5,56.3,33.43c2.25,0,4.09,1.83,4.09,4.09s-1.83,4.09-4.09,4.09c-1.63,0-3.03-.96-3.69-2.34h-4.6v-3.5h4.6c.66-1.38,2.06-2.34,3.69-2.34h0ZM56.3,33.43,2.83,37.51c0-.97.78-1.75,1.75-1.75h8.41v3.5h-6.65v8.63c1.44.63,2.45,2.07,2.45,3.74,0,2.25-1.83,4.09-4.09,4.09s-4.09-1.83-4.09-4.09c0-1.58.9-2.95,2.22-3.63v-10.49h0ZM2.83,37.51,4.7,19.42c1.63,0,3.03.96,3.69,2.34h4.6v3.5h-4.6c-.66,1.38-2.06,2.34-3.69,2.34-2.25,0-4.09-1.83-4.09-4.09s1.83-4.09,4.09-4.09h0ZM4.7,19.42"/>
</svg>