<?xml version="1.0" encoding="UTF-8"?>
<svg id="Camada_1" data-name="Camada 1" xmlns="http://www.w3.org/2000/svg" xmlns:xlink="http://www.w3.org/1999/xlink" viewBox="0 0 61 61">
  <defs>
    <style>
      .cls-1 {
        fill: url(#Gradiente_sem_nome_7-2);
      }

      .cls-2 {
        fill: url(#Gradiente_sem_nome_7);
      }
    </style>
    <linearGradient id="Gradiente_sem_nome_7" data-name="Gradiente sem nome 7" x1="16.83" y1="36.26" x2="30.03" y2="49.46" gradientUnits="userSpaceOnUse">
      <stop offset="0" stop-color="#63c6f1"/>
      <stop offset=".02" stop-color="#62c3ef"/>
      <stop offset=".25" stop-color="#59aade"/>
      <stop offset=".46" stop-color="#549ad3"/>
      <stop offset=".62" stop-color="#5395d0"/>
    </linearGradient>
    <linearGradient id="Gradiente_sem_nome_7-2" data-name="Gradiente sem nome 7" x1="12.1" y1="16.01" x2="53.47" y2="57.37" xlink:href="#Gradiente_sem_nome_7"/>
  </defs>
  <path class="cls-2" d="M23.43,33.52c-5.15,0-9.34,4.19-9.34,9.34s4.19,9.34,9.34,9.34,9.34-4.19,9.34-9.34-4.19-9.34-9.34-9.34h0ZM23.43,49.1c-3.44,0-6.24-2.8-6.24-6.24s2.8-6.24,6.24-6.24,6.24,2.8,6.24,6.24-2.8,6.24-6.24,6.24h0ZM23.43,49.1"/>
  <path class="cls-1" d="M47.14,37.51c-.59-2.99-2.81-5.39-5.74-6.22l-5.62-1.59v-.84c1.92,1.09,4.61.85,6.32-.87l7.49-7.49c.89-.94,2.85-4.48,0-7.48s-6.23-1.18-7.46,0l-3.77,3.76-3.58-3.59c2.04-1.55,3.21-4.19,2.65-7.04s-2.75-4.94-5.49-5.48c-4.51-.88-8.47,2.56-8.47,6.91,0,1.81.68,3.46,1.81,4.71-4.2,1.98-7.12,6.25-7.12,11.19v2.56c-7.87,2.48-13.38,10.34-12.19,19.24,1.02,7.6,7.02,13.78,14.59,14.99,6.91,1.1,13.24-1.84,16.99-6.83h5.65c-.35.98-.42,2.1-.1,3.24.52,1.86,2.09,3.32,3.99,3.7,3.39.69,6.38-1.9,6.38-5.17,0-.62-.11-1.22-.31-1.77h.31c.97,0,1.76-.79,1.76-1.76h0c0-.97-.79-1.76-1.76-1.76h-3.85l-2.46-12.41ZM44.6,15.5c.69-.69,1.81-.69,2.5,0,.59.58.75,1.76,0,2.5l-7.49,7.49c-.69.69-1.81.69-2.5,0l-7.86-7.85c-.59-.58-.75-1.76,0-2.51.59-.61,1.77-.73,2.51,0l6.58,6.59,6.26-6.24ZM30.51,4.04c1.95,0,3.54,1.59,3.54,3.54s-1.59,3.54-3.54,3.54-3.54-1.59-3.54-3.54,1.59-3.54,3.54-3.54h0ZM21.66,23.47c0-2.9,1.4-5.47,3.56-7.09,0,0,0,.01,0,.02,0,1.41.55,2.74,1.55,3.74l5.49,5.48v1.98c-2.6-1.51-5.62-2.37-8.83-2.37-.6,0-1.19.03-1.77.09v-1.84h0ZM23.43,56.98c-7.79,0-14.12-6.34-14.12-14.12s6.34-14.12,14.12-14.12,14.12,6.34,14.12,14.12-6.34,14.12-14.12,14.12h0ZM38.79,34.2l1.65.47c1.67.47,2.92,1.82,3.25,3.52l2.33,11.73h-6.43c.95-2.16,1.48-4.55,1.48-7.06,0-3.14-.83-6.1-2.28-8.66h0ZM50.63,55.21c0,1.36-1.11,2.47-2.47,2.47s-2.47-1.11-2.47-2.47,1.11-2.47,2.47-2.47,2.47,1.11,2.47,2.47h0ZM49.93,55.21"/>
</svg>