<?xml version="1.0" encoding="UTF-8"?>
<svg id="Camada_1" data-name="Camada 1" xmlns="http://www.w3.org/2000/svg" viewBox="0 0 512 512">
  <path d="M311.95,175.04c-73.81,0-133.86,61.7-133.86,137.53v171.24c0,15.54,12.31,28.19,27.44,28.19s27.44-12.64,27.44-28.19v-171.24c0-44.75,35.44-81.16,78.99-81.16s78.99,36.41,78.99,81.16v171.24c0,15.54,12.31,28.19,27.44,28.19s27.44-12.64,27.44-28.19v-171.24c0-75.84-60.05-137.53-133.87-137.53Z"/>
  <path d="M359.21,315.85c0,26.11-21.24,47.35-47.35,47.35s-47.35-21.24-47.35-47.35,21.24-47.35,47.35-47.35,47.35,21.24,47.35,47.35ZM48,293.35c5.68-137.04,119.69-239.1,241.96-245.46,13.24-.69,22.98-12.8,21.83-26.01-1.15-13.21-12.8-22.6-26.01-21.83C134.73,8.92,6.71,129.88.02,291.36c-.55,13.25,9.75,24.44,23,24.98.53.02,1.06.03,1.59.01,12.54-.3,22.87-10.29,23.39-23.01ZM138.2,294.19c7.47-82.23,72.94-151.49,152.28-161.1,13.16-1.6,22.54-13.56,20.95-26.73-1.6-13.17-13.59-22.54-26.73-20.95-101.31,12.28-184.86,100.17-194.33,204.43-1.2,13.21,8.53,24.89,21.74,26.08.99.09,1.98.12,2.96.09,11.95-.37,22.02-9.62,23.13-21.83Z"/>
</svg>