<svg width="458" height="458" viewBox="0 0 458 458" fill="none" xmlns="http://www.w3.org/2000/svg">
<path fill-rule="evenodd" clip-rule="evenodd" d="M0 4.99999C0 2.23857 2.23858 0 5 0H453C455.761 0 458 2.23858 458 5V453C458 455.761 455.761 458 453 458H4.99999C2.23857 458 0 455.761 0 453V4.99999Z" fill="#D1DBE3"/>
<path fill-rule="evenodd" clip-rule="evenodd" d="M243.889 209H214.111C211.293 209 209 211.293 209 214.111V243.889C209 246.707 211.293 249 214.111 249H243.889C246.707 249 249 246.707 249 243.889V214.111C249 211.293 246.707 209 243.889 209ZM246.644 243.889C246.644 245.408 245.408 246.644 243.889 246.644H214.111C212.592 246.644 211.356 245.408 211.356 243.889V239.591L219.11 232.994C219.393 232.753 219.806 232.75 220.092 232.988L224.949 237.021C225.417 237.41 226.105 237.378 226.535 236.947L238.077 225.388C238.285 225.179 238.528 225.159 238.655 225.165C238.782 225.172 239.022 225.217 239.208 225.446L246.644 234.602V243.889H246.644ZM241.037 223.961L246.644 230.864V214.111C246.644 212.592 245.408 211.356 243.889 211.356H214.111C212.592 211.356 211.356 212.592 211.356 214.111V236.498L217.584 231.199C218.741 230.215 220.428 230.205 221.597 231.175L225.628 234.522L236.409 223.723C237.033 223.099 237.896 222.768 238.776 222.812C239.657 222.858 240.481 223.276 241.037 223.961Z" fill="#9DAFBD"/>
<path fill-rule="evenodd" clip-rule="evenodd" d="M215.956 219.636C215.956 216.501 218.507 213.95 221.642 213.95C224.777 213.95 227.327 216.501 227.327 219.636C227.327 222.771 224.777 225.321 221.642 225.321C218.507 225.321 215.956 222.771 215.956 219.636ZM218.314 219.636C218.314 221.471 219.807 222.963 221.642 222.963C223.477 222.963 224.969 221.471 224.969 219.636C224.969 217.801 223.477 216.308 221.642 216.308C219.807 216.308 218.314 217.801 218.314 219.636Z" fill="#9DAFBD"/>
</svg>
