<?xml version="1.0" encoding="UTF-8"?>
<svg id="Layer_1" data-name="Layer 1" xmlns="http://www.w3.org/2000/svg" xmlns:xlink="http://www.w3.org/1999/xlink" viewBox="0 0 292.29 50.86">
  <defs>
    <style>
      .cls-1 {
        fill: url(#Gradiente_sem_nome_11);
      }

      .cls-2 {
        fill: url(#Gradiente_sem_nome_403);
      }
    </style>
    <linearGradient id="Gradiente_sem_nome_403" data-name="Gradiente sem nome 403" x1="68.7" y1="94.88" x2="208.28" y2="-44.69" gradientUnits="userSpaceOnUse">
      <stop offset="0" stop-color="#a1daf8"/>
      <stop offset=".29" stop-color="#93ccf0"/>
      <stop offset=".54" stop-color="#8ec7ed"/>
      <stop offset="1" stop-color="#7dbde9"/>
    </linearGradient>
    <linearGradient id="Gradiente_sem_nome_11" data-name="Gradiente sem nome 11" x1="78.8" y1="-41.69" x2="223.95" y2="103.46" gradientUnits="userSpaceOnUse">
      <stop offset="0" stop-color="#56ccff"/>
      <stop offset=".52" stop-color="#51b3f1"/>
      <stop offset="1" stop-color="#4d99e2"/>
    </linearGradient>
  </defs>
  <path class="cls-2" d="M4.59,25.33c-.05,1.21-1.03,2.17-2.24,2.2-.02,0-.04,0-.05,0-.03,0-.06,0-.1,0-.61-.03-1.18-.29-1.59-.74-.42-.45-.63-1.04-.6-1.65C.56,11.61,11.15.81,24.62.02c1.28-.07,2.37.84,2.48,2.09.05.63-.15,1.26-.56,1.73-.4.46-.94.73-1.53.76C14.01,5.17,5.05,14.28,4.59,25.33ZM25.06,11.88c.61-.07,1.15-.38,1.53-.86s.55-1.08.47-1.69c-.15-1.26-1.3-2.16-2.55-2-8.76,1.06-15.98,8.67-16.8,17.69-.11,1.26.82,2.38,2.08,2.5.07,0,.14,0,.21,0,.02,0,.05,0,.07,0,1.16-.04,2.11-.93,2.21-2.09.63-6.91,6.12-12.73,12.78-13.54ZM27.59,23.5h0s-.24-.04-.24-.04c-.13-.02-.24-.02-.34-.02-.02,0-.04,0-.07,0h-.05c-2.1,0-3.81,1.71-3.81,3.81s1.71,3.82,3.81,3.82,3.81-1.71,3.81-3.82c0-1.84-1.32-3.42-3.11-3.75ZM276.33,33.21h0s.24.04.24.04c.13.02.24.02.35.02.02,0,.04,0,.07,0h.05c2.11,0,3.83-1.71,3.83-3.81s-1.72-3.82-3.83-3.82-3.83,1.71-3.83,3.82c0,1.84,1.33,3.42,3.13,3.75Z"/>
  <path class="cls-1" d="M166.49,42.39c-.43.91-1.36,1.55-2.43,1.55h0c-1.49,0-2.69-1.21-2.69-2.69v-4.96c1.16,2.43,2.94,4.52,5.13,6.1ZM190.84,29.54c0,7.94-6.61,14.39-14.73,14.39s-14.73-6.46-14.73-14.39V12c0-1.53,1.27-2.76,2.81-2.69,1.45.06,2.57,1.32,2.57,2.77v4.93c0,.58.64.92,1.12.6,2.35-1.55,5.19-2.46,8.23-2.46,8.12,0,14.73,6.46,14.73,14.39ZM185.45,29.54c0-4.97-4.2-9.01-9.35-9.01s-9.35,4.04-9.35,9.01,4.2,9.01,9.35,9.01,9.35-4.04,9.35-9.01ZM38.62,41.3v-14.34c0-6.51-5.29-11.8-11.8-11.8s-11.8,5.29-11.8,11.8v14.34c0,1.46,1.18,2.64,2.64,2.64s2.64-1.18,2.64-2.64v-14.34c0-3.6,2.93-6.52,6.52-6.52s6.52,2.93,6.52,6.52v14.34c0,1.46,1.18,2.64,2.64,2.64s2.64-1.18,2.64-2.64ZM100.21,32.15v-14.37c0-1.45-1.18-2.63-2.63-2.63s-2.63,1.18-2.63,2.63v14.37c0,3.61-2.94,6.54-6.54,6.54s-6.54-2.94-6.54-6.54v-14.37c0-1.45-1.18-2.63-2.63-2.63s-2.63,1.18-2.63,2.63v14.37c0,6.51,5.29,11.8,11.8,11.8s11.8-5.29,11.8-11.8ZM109.77,41.31v-14.35c0-3.6,2.93-6.53,6.52-6.53h6.74c1.46,0,2.64-1.18,2.64-2.64s-1.18-2.64-2.64-2.64h-6.74c-6.51,0-11.81,5.3-11.81,11.81v14.35c0,1.46,1.18,2.64,2.64,2.64s2.64-1.18,2.64-2.64ZM157.09,29.55c0-7.93-6.61-14.39-14.73-14.39s-14.73,6.46-14.73,14.39,6.61,14.39,14.73,14.39,14.73-6.46,14.73-14.39ZM151.7,29.55c0,4.97-4.2,9.01-9.35,9.01s-9.35-4.04-9.35-9.01,4.2-9.01,9.35-9.01,9.35,4.04,9.35,9.01ZM72.33,29.53c0,1.47-1.19,2.67-2.66,2.67h-20.04c-.53,0-.88.55-.66,1.03,1.46,3.17,4.75,5.38,8.56,5.41l7.18-.15c1.46-.07,2.7,1.06,2.77,2.52.07,1.46-1.06,2.7-2.52,2.77l-7.31.16h-.06c-8.13,0-14.74-6.46-14.74-14.39s6.61-14.39,14.74-14.39,14.72,6.45,14.74,14.37ZM48.97,25.87c-.22.48.13,1.03.66,1.03h15.93c.53,0,.88-.55.66-1.03-1.47-3.18-4.78-5.41-8.62-5.41s-7.15,2.22-8.62,5.41ZM224.59,29.53c0,1.47-1.19,2.67-2.66,2.67h-20.05c-.53,0-.88.55-.66,1.03,1.46,3.17,4.75,5.38,8.56,5.41h0s7.18-.34,7.18-.34c1.45-.07,2.67,1.03,2.77,2.47s-1.12,2.76-2.61,2.83l-7.23.34h-.06c-8.13,0-14.74-6.46-14.74-14.39s6.61-14.39,14.74-14.39,14.72,6.45,14.74,14.37ZM201.23,25.87c-.22.48.13,1.03.66,1.03h15.93c.53,0,.88-.55.66-1.03-1.47-3.18-4.78-5.41-8.62-5.41s-7.15,2.22-8.62,5.41ZM258.3,29.53c0,1.47-1.19,2.67-2.66,2.67h-20.05c-.53,0-.88.55-.66,1.03,1.46,3.17,4.75,5.38,8.56,5.41h0s7.18-.34,7.18-.34c1.45-.07,2.67,1.03,2.77,2.47s-1.12,2.76-2.61,2.83l-7.23.34h-.06c-8.13,0-14.74-6.46-14.74-14.39s6.61-14.39,14.74-14.39,14.72,6.45,14.74,14.37ZM234.95,25.87c-.22.48.13,1.03.66,1.03h15.93c.53,0,.88-.55.66-1.03-1.47-3.18-4.78-5.41-8.62-5.41s-7.15,2.22-8.62,5.41ZM267.71,16.7c-.43-.91-1.36-1.55-2.43-1.55-1.49,0-2.69,1.21-2.69,2.69v4.95c1.16-2.43,2.94-4.52,5.12-6.09ZM292.03,29.54c0,7.93-6.61,14.38-14.73,14.38-3.04,0-5.88-.91-8.23-2.46-.48-.32-1.12.03-1.12.6v6.04c0,1.53-1.27,2.75-2.81,2.69-1.45-.06-2.57-1.32-2.57-2.77v-17.45c0-.1,0-.79,0-1.03,0-7.93,6.61-14.38,14.73-14.38s14.73,6.45,14.73,14.38ZM286.65,29.54c0-4.96-4.19-9-9.35-9s-9.35,4.04-9.35,9,4.19,9,9.35,9,9.35-4.04,9.35-9Z"/>
</svg>