<?xml version="1.0" encoding="UTF-8"?>
<svg id="svg8" xmlns="http://www.w3.org/2000/svg" version="1.1" xmlns:cc="http://creativecommons.org/ns#" xmlns:dc="http://purl.org/dc/elements/1.1/" xmlns:inkscape="http://www.inkscape.org/namespaces/inkscape" xmlns:rdf="http://www.w3.org/1999/02/22-rdf-syntax-ns#" xmlns:sodipodi="http://sodipodi.sourceforge.net/DTD/sodipodi-0.dtd" xmlns:svg="http://www.w3.org/2000/svg" viewBox="0 0 448 512">
  <!-- Generator: Adobe Illustrator 29.5.1, SVG Export Plug-In . SVG Version: 2.1.0 Build 141)  -->
  <defs>
    <style>
      .st0 {
        fill: #33354c;
      }
    </style>
  </defs>
  <sodipodi:namedview id="base" bordercolor="#666666" borderopacity="1.0" inkscape:current-layer="layer6" inkscape:cx="224" inkscape:cy="256" inkscape:document-rotation="0" inkscape:document-units="px" inkscape:guide-bbox="true" inkscape:pageopacity="0.0" inkscape:pageshadow="2" inkscape:window-height="713" inkscape:window-maximized="1" inkscape:window-width="1315" inkscape:window-x="51" inkscape:window-y="27" inkscape:zoom="0.75" pagecolor="#ffffff" showgrid="true" showguides="true" units="px">
    <inkscape:grid id="grid10" empspacing="4" type="xygrid"/>
    <sodipodi:guide id="guide23" inkscape:color="rgb(0,0,255)" inkscape:label="baseline" inkscape:locked="true" orientation="0,1" position="447.99999,64"/>
  </sodipodi:namedview>
  <g id="layer6" inkscape:groupmode="layer" inkscape:label="icon">
    <path id="path2" class="st0" d="M154.63,358.55c-26.59-54.48-42.4-87.38-42.4-88.19,0-1.33,1.62-1.15,17.6,1.98,28.09,5.52,43.1,7.07,68.12,7.08,33.1,0,60.06-5.23,81-15.77,11.08-5.57,17.74-10.52,23.2-17.21,6.72-8.25,8.88-13.93,8.96-23.49.07-9.1-1.16-13.89-6.42-25.02-2.08-4.4-3.91-9.45-4.09-11.22-.27-2.85-.04-3.26,2.06-3.5,4.59-.54,27.26,21.46,35.6,34.56,14.39,22.6,15.56,47.04,3.38,70.68-7.48,14.52-15.75,24.57-29.59,35.99-23.01,18.97-49.75,32.18-86.67,42.82-19.83,5.72-51.91,12.66-58.51,12.66-1.4,0-4.03-4.59-12.22-21.39h-.02s0,0,0,0ZM162.04,270.69c-25.83-3.35-47.5-6.26-48.17-6.47-1.15-.37-5.25-14.07-7.57-25.21-.58-2.82-1.44-10.29-1.91-16.61-2.08-28.21,4.06-47.72,20.51-65.25,27.85-29.67,87.48-33.28,154.76-9.37,11.81,4.2,16.5,7.12,14.33,8.94-1.6,1.34-12.48,1.32-31.27-.06-29.38-2.16-51.74,1.93-63.27,11.58-17.55,14.69-14.87,46.89,7.76,93.34,2.45,5.03,4.92,9.95,5.49,10.95,1.31,2.31.36,4.45-1.93,4.34-.97-.05-22.9-2.82-48.73-6.17h0ZM248.68,245.42c-20.61-3.71-39.14-16.49-45.13-31.11-2.87-7.02-2.73-16.19.33-21.67,2.77-4.96,9.93-10.7,16.34-13.1,10.67-4,29.36-2.4,42.98,3.68,12.93,5.77,24.39,15.91,28.65,25.35,5.47,12.11.91,25.62-10.8,32.07-7.76,4.27-22.85,6.5-32.38,4.79h.01Z"/>
  </g>
</svg>